<svg width="666" height="666" viewBox="0 0 666 666" fill="none" xmlns="http://www.w3.org/2000/svg">
<path d="M122.81 301.765C122.597 299.5 122.091 297.263 121.718 295.012C120.226 289.684 118.774 284.356 115.977 279.48C115.22 278.145 114.327 276.891 113.313 275.737C110.143 272.208 106.347 271.741 102.298 274.166C99.3551 276.038 96.8699 278.546 95.0249 281.505C90.8158 287.859 87.9253 294.758 88.4581 302.497C88.5938 306.255 89.6197 309.927 91.4514 313.21C93.2831 316.494 95.8683 319.296 98.9942 321.385C106.427 326.42 115.178 324.342 119.76 316.617C122.357 312.126 123.427 306.915 122.81 301.765Z" fill="#FFDBCC"/>
<path d="M162.224 307.493C166.58 299.501 166.753 291.189 162.224 283.197C158.085 275.737 151.378 270.034 143.35 267.146C141.905 266.624 140.394 266.306 138.861 266.201C137.035 265.917 135.167 266.308 133.608 267.301C132.049 268.293 130.905 269.82 130.389 271.595C129.092 275.533 128.705 279.714 129.257 283.823C129.524 286.926 129.99 290.017 130.363 293.147C131.375 298.821 133.173 304.136 137.023 308.571C139.381 311.45 142.551 313.553 146.12 314.605C149.213 315.47 152.51 315.233 155.448 313.936C158.385 312.639 160.78 310.361 162.224 307.493Z" fill="#FFDBCC"/>
<path d="M185.907 336.996C192.967 331.815 195.817 324.622 195.085 315.964C194.937 314.972 194.733 313.989 194.472 313.02C193.379 307.229 190.598 301.891 186.48 297.675C186.08 297.289 185.641 296.903 185.148 296.557C180.646 293.107 176.343 293.533 172.627 297.889C170.027 301.107 168.093 304.811 166.94 308.784C165.248 313.926 163.796 319.121 164.475 324.648C164.803 328.002 165.992 331.213 167.925 333.972C172.334 339.966 179.82 341.365 185.907 336.996Z" fill="#FFDBCC"/>
<path d="M97.8622 372.88C97.9421 373.706 98.0886 374.532 98.2485 375.611C100.246 383.536 105.694 388.158 113.686 389.89C122.131 391.715 130.03 389.81 137.356 385.574C142.018 382.779 147.475 381.608 152.874 382.244C161.172 383.137 169.018 381.698 175.957 376.85C181.778 372.787 185.281 367.286 184.935 359.946C184.797 357.214 184.103 354.539 182.896 352.084C181.689 349.629 179.994 347.445 177.915 345.667C175.594 343.605 173.041 341.817 170.31 340.339C164.343 337.152 158.943 333.002 154.326 328.058C152.137 325.665 149.482 323.743 146.524 322.413C143.566 321.082 140.368 320.37 137.125 320.32C133.882 320.27 130.662 320.883 127.665 322.122C124.667 323.362 121.955 325.2 119.694 327.526C116.716 330.509 114.599 334.241 113.566 338.328C112.243 343.723 109.561 348.689 105.774 352.754C100.958 357.62 98.1116 364.096 97.7823 370.935C97.7636 371.585 97.7903 372.235 97.8622 372.88Z" fill="#FFDBCC"/>
<path d="M70.9689 338.581C73.1135 348.065 78.1617 354.086 86.54 357.003C94.9183 359.92 102.83 355.325 104.162 346.56C104.619 343.509 104.332 340.392 103.323 337.476C101.006 330.536 96.2503 325.328 90.9756 320.56C89.072 318.876 86.9479 317.46 84.6619 316.35C79.9466 314.046 75.8441 315.471 73.2866 320.04C71.2132 324.032 70.2516 328.509 70.5027 333C70.596 335.158 70.8624 337.289 70.9689 338.581Z" fill="#FFDBCC"/>
<path d="M267.426 110.889C267.279 107.413 266.693 103.95 266.32 100.486C264.482 92.2013 262.724 83.903 258.847 76.2706C257.802 74.1715 256.543 72.1853 255.091 70.3432C250.549 64.6955 244.795 63.6033 238.415 67.0132C233.763 69.6244 229.753 73.2424 226.68 77.6026C219.727 86.9266 214.692 97.2496 214.878 109.118C215.065 120.986 219.66 131.429 229.397 138.848C240.306 147.16 253.852 144.709 261.511 133.294C265.857 126.663 267.932 118.801 267.426 110.889Z" fill="#FFDBCC"/>
<path d="M327.112 122.944C334.452 111.049 335.411 98.4216 329.257 85.8476C323.555 74.1092 313.793 64.8345 301.778 59.7404C299.616 58.8259 297.339 58.2119 295.011 57.9155C288.671 57.0231 284.195 59.5938 281.598 65.4546C279.001 71.3154 278.668 77.6957 278.854 84.1026C278.987 88.8579 279.453 93.6131 279.76 98.3684C280.825 107.12 283.116 115.378 288.618 122.478C291.955 127.065 296.597 130.541 301.938 132.454C306.585 134.04 311.64 133.958 316.234 132.223C320.828 130.487 324.674 127.206 327.112 122.944Z" fill="#FFDBCC"/>
<path d="M360.812 169.883C372.028 162.571 376.956 151.848 376.583 138.528C376.457 137.055 376.239 135.592 375.93 134.146C374.465 125.102 371.175 116.83 364.928 109.983C364.343 109.339 363.72 108.729 363.063 108.159C356.47 102.511 349.876 102.831 343.842 109.078C339.607 113.767 336.343 119.25 334.239 125.208C331.228 132.92 328.564 140.726 329.137 149.184C329.374 154.306 330.919 159.282 333.626 163.636C339.82 173.4 351.182 176.157 360.812 169.883Z" fill="#FFDBCC"/>
<path d="M223.323 217.383C223.323 218.715 223.536 219.927 223.683 221.592C226.08 233.846 234.019 241.385 246.074 244.689C258.808 248.192 271.035 245.941 282.584 240.08C289.942 236.216 298.371 234.89 306.56 236.31C319.147 238.375 331.255 236.83 342.257 230.023C351.488 224.296 357.229 216.184 357.389 204.968C357.417 200.781 356.586 196.633 354.948 192.78C353.31 188.926 350.899 185.45 347.865 182.564C344.501 179.2 340.755 176.241 336.703 173.746C327.841 168.375 319.921 161.585 313.26 153.646C310.121 149.793 306.226 146.624 301.815 144.334C297.404 142.044 292.571 140.683 287.613 140.333C282.656 139.984 277.679 140.654 272.991 142.302C268.302 143.95 264.001 146.542 260.353 149.917C255.591 154.228 252.092 159.753 250.23 165.901C247.741 174.006 243.225 181.341 237.109 187.213C229.477 194.632 224.375 203.45 223.416 214.292C223.316 215.319 223.285 216.352 223.323 217.383Z" fill="#FFDBCC"/>
<path d="M185.148 162.744C187.625 177.396 194.832 187.027 207.379 192.195C220.206 197.523 232.394 190.996 235.178 177.729C236.126 173.102 235.947 168.314 234.658 163.77C231.688 152.981 224.868 144.629 217.209 136.917C214.436 134.178 211.298 131.833 207.885 129.95C200.879 126.034 194.565 127.859 190.21 134.639C186.44 140.593 185.121 147.293 184.882 154.206C184.788 157.483 185.148 160.76 185.148 162.744Z" fill="#FFDBCC"/>
<path d="M540.459 251.601C541.578 249.617 542.444 247.486 543.416 245.421C545.241 240.186 547.106 234.965 547.572 229.437C547.732 227.914 547.732 226.378 547.572 224.855C546.986 220.153 544.162 217.569 539.433 217.276C535.949 217.136 532.478 217.773 529.27 219.141C522.197 221.978 515.87 225.987 511.888 232.647C509.864 235.814 508.617 239.415 508.249 243.156C507.881 246.897 508.402 250.671 509.77 254.172C512.993 262.537 521.372 265.827 529.55 262.098C534.231 259.879 538.061 256.194 540.459 251.601Z" fill="#FFDBCC"/>
<path d="M569.563 278.788C577.728 274.685 582.577 267.986 583.469 258.808C584.33 250.312 582.077 241.792 577.129 234.832C576.241 233.582 575.183 232.461 573.985 231.502C572.648 230.223 570.89 229.476 569.042 229.4C567.193 229.324 565.38 229.925 563.942 231.089C560.627 233.581 557.925 236.797 556.043 240.493C554.485 243.157 553.113 245.994 551.648 248.751C549.237 253.986 547.652 259.407 548.304 265.202C548.591 268.904 549.983 272.436 552.3 275.338C554.331 277.827 557.163 279.532 560.313 280.162C563.462 280.791 566.732 280.305 569.563 278.788Z" fill="#FFDBCC"/>
<path d="M572.214 316.47C580.965 316.257 587.412 311.968 591.741 304.482C592.171 303.616 592.554 302.726 592.886 301.818C595.288 296.415 596.039 290.423 595.044 284.595C594.94 284.033 594.802 283.477 594.631 282.93C592.9 277.602 589.13 275.431 583.629 276.856C579.669 278.01 575.975 279.934 572.76 282.517C568.444 285.781 564.288 289.177 561.691 294.132C560.063 297.06 559.219 300.359 559.24 303.709C559.32 311.222 564.768 316.67 572.214 316.47Z" fill="#FFDBCC"/>
<path d="M479.387 295.704C478.974 296.437 478.641 297.196 478.148 298.168C475.271 305.814 477.109 312.727 482.677 318.708C488.564 325.021 496.143 327.965 504.588 328.671C510.014 329.041 515.166 331.196 519.24 334.798C525.527 340.259 532.8 343.563 541.272 343.536C548.371 343.536 554.352 340.979 558.281 334.785C559.735 332.466 560.697 329.873 561.107 327.167C561.517 324.461 561.367 321.7 560.665 319.054C559.949 316.023 558.881 313.086 557.482 310.303C554.391 304.276 552.312 297.783 551.328 291.082C550.903 287.86 549.823 284.76 548.153 281.972C546.483 279.184 544.26 276.768 541.62 274.873C538.979 272.978 535.979 271.645 532.803 270.955C529.628 270.265 526.345 270.234 523.156 270.862C519.024 271.621 515.178 273.496 512.034 276.283C507.859 279.954 502.816 282.499 497.382 283.676C490.658 284.933 484.634 288.628 480.466 294.052C480.074 294.581 479.714 295.133 479.387 295.704Z" fill="#FFDBCC"/>
<path d="M476.856 252.241C473.206 261.259 473.912 269.077 479.12 276.217C484.329 283.357 493.466 284.129 499.553 277.696C501.685 275.44 503.231 272.696 504.056 269.704C506.107 262.671 505.174 255.691 503.563 248.764C502.962 246.295 502.026 243.919 500.779 241.705C498.221 237.123 494.052 235.951 489.337 238.242C485.35 240.336 482.004 243.471 479.653 247.313C478.481 249.177 477.522 251.109 476.856 252.241Z" fill="#FFDBCC"/>
<path d="M59.2073 592.34L127.659 592.007L196.11 591.901L333 591.674L469.889 591.887L538.341 592.007L606.792 592.34L538.341 592.66L469.889 592.78L333 593.006L196.11 592.78L127.659 592.66L59.2073 592.34Z" fill="#1C1C1C"/>
<path d="M286.633 185.894C295.264 191.768 307.599 191.222 307.599 191.222C307.599 191.222 314.472 180.966 313.912 170.55C313.446 161.865 307.172 155.724 300.965 157.123C292.054 159.108 297.582 173.453 297.582 173.453C297.582 173.453 288.151 161.306 281.838 167.912C277.429 172.468 279.44 181.006 286.633 185.894Z" fill="#FF8656"/>
<path d="M312.154 130.949C314.552 137.423 321.478 141.832 321.478 141.832C321.478 141.832 329.111 138.955 332.814 133.12C335.89 128.259 334.865 122.544 330.989 120.906C325.421 118.562 322.89 128.418 322.89 128.418C322.89 128.418 322.477 118.255 316.536 119.374C312.341 120.173 310.156 125.541 312.154 130.949Z" fill="#FF8656"/>
<path d="M546.266 284.223C547.665 290.989 553.805 296.384 553.805 296.384C553.805 296.384 561.797 294.679 566.313 289.471C570.096 285.128 569.936 279.321 566.313 277.123C561.158 273.966 557.175 283.33 557.175 283.33C557.175 283.33 558.294 273.22 552.247 273.447C548.078 273.606 545.107 278.588 546.266 284.223Z" fill="#FF8656"/>
<path d="M103.789 296.437C113.926 306.36 130.536 308.518 130.536 308.518C130.536 308.518 142.204 296.463 143.949 282.397C145.401 270.663 138.488 260.952 129.843 261.312C117.456 261.845 121.398 282.358 121.398 282.358C121.398 282.358 111.701 263.856 101.671 271.155C94.705 276.257 95.3443 288.165 103.789 296.437Z" fill="#FF8656"/>
<path d="M124.675 552.86C118.175 556.856 110.969 561.318 103.07 560.093C95.7708 558.947 87.9253 555.55 84.7951 548.371C83.9027 546.32 83.6896 544.868 86.2204 544.535C90.0965 544.029 94.4921 546.16 98.0619 547.399C102.637 549.035 107.355 550.239 112.154 550.995C115.524 551.488 118.948 551.621 122.344 552.034C122.77 552.034 123.197 552.141 123.676 552.207L124.156 552.274L124.356 552.167C124.41 552.141 124.469 552.128 124.529 552.128C124.589 552.128 124.648 552.141 124.702 552.167L124.822 552.26C124.86 552.307 124.886 552.361 124.899 552.42C124.913 552.478 124.912 552.539 124.898 552.597C124.884 552.655 124.856 552.709 124.818 552.754C124.779 552.8 124.73 552.836 124.675 552.86Z" fill="#FF8656"/>
<path d="M124.768 552.247C118.868 555.404 112.78 559.187 105.827 557.828C102.626 557.129 99.5561 555.929 96.7298 554.272C95.3978 553.552 91.5883 551.408 91.6948 549.636C91.8946 546.426 104.229 552.154 105.707 552.54C111.203 553.813 116.936 553.638 122.344 552.034C122.77 552.034 123.197 552.14 123.676 552.207C119.864 553.404 115.882 553.971 111.888 553.885C106.36 553.725 102.018 551.368 96.863 549.756C95.7441 549.41 92.2543 548.104 92.3209 550.102C92.3209 551.434 96.1037 553.526 96.9163 553.978C99.5989 555.544 102.505 556.689 105.534 557.375C112.461 558.854 118.655 555.204 124.675 552.154L124.768 552.247Z" fill="#F5EEE5"/>
<path d="M130.603 554.871L130.882 555.737C130.899 555.768 130.907 555.802 130.907 555.837C130.907 555.871 130.899 555.906 130.882 555.937C130.831 555.996 130.76 556.036 130.682 556.048C130.603 556.06 130.524 556.044 130.456 556.003C130.406 555.964 130.373 555.906 130.363 555.843C130.363 555.843 130.363 555.763 130.363 555.71V555.444C126.727 551.701 123.703 547.385 120.027 543.682C116.35 539.979 112.727 536.849 109.477 533.026C107.439 530.629 97.982 518.121 104.908 516.469C107.972 515.75 111.928 518.561 114.232 520.292C117.184 522.67 119.692 525.552 121.638 528.804C126.687 536.796 127.872 546.013 130.603 554.871Z" fill="#FF8656"/>
<path d="M130.882 555.737C130.802 555.497 130.736 555.27 130.656 555.044C130.663 554.991 130.663 554.937 130.656 554.884C130.469 554.538 130.27 554.205 130.07 553.885C128.101 548.102 125.792 542.44 123.157 536.929C121.548 533.766 119.493 530.85 117.056 528.271C116.217 527.378 112.128 523.116 110.516 524.182C109.464 524.861 110.516 527.125 110.782 527.884C112.114 531.121 114.778 533.652 117.003 536.249C121.477 541.574 125.555 547.219 129.204 553.139L129.683 554.378L130.083 555.377L130.23 555.723C130.264 555.819 130.304 555.912 130.349 556.003C130.414 556.046 130.492 556.064 130.569 556.051C130.646 556.039 130.715 555.998 130.762 555.936L130.456 555.137L130.816 555.737H130.882ZM121.771 541.697C119.787 539.033 117.682 536.569 115.524 534.105C114.257 532.741 113.103 531.275 112.074 529.723C111.342 528.524 108.958 523.849 112.9 525.367C115.751 526.473 118.601 530.615 120.213 533.026C121.984 535.718 123.505 538.567 124.755 541.537C126.207 544.881 127.419 548.331 128.751 551.741C126.575 548.277 124.249 544.93 121.771 541.697Z" fill="#F5EEE5"/>
<path d="M144.362 571.108L144.136 571.268C137.889 574.358 130.11 579.446 122.824 578.247C117.496 577.368 110.503 573.545 108.904 567.911C107.106 561.544 118.441 564.048 121.358 564.554C129.122 566.179 136.789 568.238 144.322 570.722H144.469C144.575 570.868 144.482 571.001 144.362 571.108Z" fill="#FF8656"/>
<path d="M144.469 570.815L143.057 570.748C137.662 570.468 132.268 569.949 126.926 569.163C125.594 568.963 115.338 566.699 115.524 569.443C115.631 571.108 119.387 572.533 120.613 573.039C122.816 573.932 125.152 574.449 127.526 574.571C132.987 574.837 138.182 572.64 143.51 571.294L144.256 571.108H144.416C144.482 571.001 144.575 570.881 144.469 570.815ZM130.536 574.091C128.112 574.294 125.672 574.087 123.317 573.479C121.758 573.079 116.137 571.454 116.257 569.483C116.257 568.417 116.976 568.604 118.215 568.537C118.779 568.504 119.343 568.504 119.907 568.537C121.239 568.644 122.677 568.897 124.049 569.123C126.465 569.532 128.88 569.878 131.295 570.162C135.291 570.655 139.287 570.961 143.283 571.148C138.968 571.987 134.865 573.692 130.536 574.091Z" fill="#F5EEE5"/>
<path d="M148.478 552.393C150.77 560.235 150.677 568.581 148.212 576.369C148.201 576.418 148.172 576.46 148.132 576.489C148.085 576.538 148.023 576.572 147.956 576.584C147.889 576.596 147.82 576.586 147.759 576.556C147.689 576.526 147.634 576.471 147.604 576.401C147.574 576.332 147.572 576.253 147.599 576.183C147.599 576.023 147.679 575.863 147.732 575.703C144.122 566.885 140.659 558.054 136.876 549.303C135.984 547.238 130.576 533.958 135.544 533.852C138.595 533.785 141.592 538.793 143.07 540.965C145.449 544.474 147.273 548.329 148.478 552.393Z" fill="#FF8656"/>
<path d="M148.558 569.63C148.555 566.501 148.261 563.38 147.679 560.306C147.068 557.164 146.135 554.093 144.895 551.142C143.75 548.478 142.231 544.628 140.087 542.564C139.5 541.991 138.755 541.485 138.235 542.39C137.276 544.149 139.94 550.316 140.606 552.074C143.27 559.307 145.295 566.593 147.266 573.999L147.785 575.89C147.785 576.117 147.785 576.356 147.692 576.583C147.746 576.624 147.811 576.646 147.879 576.646C147.946 576.646 148.012 576.624 148.065 576.583C148.071 576.516 148.071 576.449 148.065 576.383C148.065 576.077 148.158 575.757 148.185 575.437C148.431 573.511 148.556 571.572 148.558 569.63ZM147.852 575.424C147.852 575.158 147.759 574.905 147.692 574.651C146.487 568.809 144.903 563.052 142.95 557.415C141.938 554.552 140.753 551.781 139.833 548.891C139.46 547.678 138.248 544.255 138.874 543.243C139.5 542.231 140.206 543.456 140.646 544.109C141.086 544.761 141.498 545.441 141.765 545.96C146.819 554.741 148.968 564.895 147.905 574.971C147.932 575.104 147.852 575.251 147.852 575.424Z" fill="#F5EEE5"/>
<path d="M158.774 593.006H157.176C156.816 592.38 156.443 591.767 156.084 591.155C153.54 586.919 150.955 582.71 148.278 578.54C146.76 576.156 145.228 573.812 143.616 571.534C143.616 571.454 143.51 571.388 143.456 571.294L143.057 570.748C142.924 570.548 142.764 570.349 142.617 570.149C139.012 564.982 134.616 560.415 129.59 556.616C127.885 555.377 126.14 554.205 124.342 553.073L123.876 552.78L123.743 552.7L123.223 552.393L122.837 552.154C117.269 548.784 111.408 545.853 105.707 542.83C104.069 541.964 102.431 541.085 100.819 540.166L100.526 540.006L100.153 539.819C92.9469 535.903 85.7807 531.92 78.4947 528.204C78.215 528.071 78.4947 527.671 78.7345 527.818C83.6229 530.242 88.5646 532.56 93.493 534.917L95.4644 535.863L99.3538 537.728C102.018 538.953 104.495 540.219 107.053 541.538C114.392 545.045 121.51 549 128.365 553.379L129.843 554.431C130.163 554.644 130.469 554.871 130.762 555.097C131.055 555.324 131.468 555.603 131.815 555.87C137.658 560.569 142.635 566.253 146.52 572.666C146.786 573.106 147.079 573.532 147.359 573.998L147.759 574.624L147.972 574.944C148.052 575.091 148.145 575.224 148.238 575.384L148.438 575.717C148.678 576.09 148.904 576.476 149.144 576.862C151.728 581.089 154.263 585.329 156.75 589.583L158.774 593.006Z" fill="#FF8656"/>
<path d="M79.2674 535.717C73.4466 533.053 64.0293 526.246 66.2538 518.72C66.6255 517.295 67.5114 516.057 68.741 515.246C69.9706 514.434 71.4569 514.106 72.9138 514.325C76.5501 514.751 79.6803 517.642 82.1579 520.106C88.8179 526.673 94.7186 533.812 101.805 539.913C101.805 539.913 102.404 540.445 102.564 540.565C102.724 540.685 102.564 540.912 102.351 540.792L101.658 540.192C94.2125 539.3 86.1672 538.82 79.2674 535.717Z" fill="#FF8656"/>
<path d="M101.858 539.912L101.698 539.832C99.5085 538.626 97.3914 537.291 95.3579 535.836C91.1591 532.7 87.1557 529.311 83.3699 525.687C81.9047 524.355 74.925 517.428 73.8195 522.33C73.3533 524.408 74.8851 526.752 76.0306 528.324C77.8727 530.853 80.2001 532.991 82.8771 534.611C88.2051 537.888 94.279 539.193 100.366 539.939L101.192 540.046L101.419 540.179L101.578 540.259C101.595 540.268 101.613 540.273 101.632 540.273C101.65 540.273 101.669 540.268 101.685 540.259C101.713 540.255 101.74 540.247 101.765 540.233C101.789 540.219 101.811 540.2 101.828 540.178C101.846 540.156 101.858 540.13 101.866 540.103C101.873 540.075 101.875 540.047 101.871 540.019C101.878 539.983 101.874 539.946 101.858 539.912ZM100.047 539.739C94.9812 539.092 90.042 537.686 85.3946 535.57C83.01 534.392 80.811 532.871 78.8678 531.055C78.0172 530.234 77.2375 529.343 76.5368 528.391C76.0073 527.687 75.5478 526.933 75.1648 526.139C74.2724 524.421 73.9394 522.144 74.8451 521.451C75.9507 520.545 76.7632 521.038 78.3749 521.997C78.918 522.321 79.4387 522.682 79.9334 523.076C81.1709 524.054 82.3579 525.094 83.4898 526.193C85.3946 527.978 87.2993 529.749 89.2707 531.454C90.6027 532.613 91.9347 533.745 93.3866 534.811C95.8023 536.667 98.3436 538.354 100.992 539.859L100.047 539.739Z" fill="#F5EEE5"/>
<path d="M555.124 533.798C551.834 537.701 548.278 541.391 544.695 545.027C542.657 547.105 540.606 549.143 538.568 551.221C536.33 553.499 533.812 555.67 532.8 558.787C532.744 558.921 532.677 559.05 532.6 559.173H532.534C532.468 559.191 532.4 559.192 532.334 559.176C532.268 559.159 532.208 559.126 532.159 559.078C532.111 559.031 532.076 558.972 532.057 558.907C532.039 558.841 532.038 558.773 532.054 558.707C532.07 558.638 532.093 558.572 532.121 558.507C532.121 558.507 532.121 558.507 532.121 558.427C532.184 557.473 532.359 556.53 532.64 555.617C534.128 547.853 536.954 540.407 540.992 533.612C543.464 529.56 546.465 525.855 549.916 522.596C552.687 519.999 556.763 516.083 560.572 515.217C564.049 514.431 563.569 518.987 563.037 521.118C561.851 525.98 558.241 530.135 555.124 533.798Z" fill="#FF8656"/>
<path d="M557.189 522.29C555.631 521.278 551.248 525.554 549.29 527.365C546.203 530.212 543.479 533.429 541.178 536.942C537.08 543.273 534.089 550.254 532.334 557.588C532.254 557.881 532.174 558.174 532.107 558.467C532.107 558.467 532.107 558.534 532.107 558.561C532.104 558.627 532.104 558.694 532.107 558.76C532.088 558.827 532.087 558.898 532.106 558.965C532.125 559.032 532.162 559.093 532.213 559.14C532.264 559.187 532.328 559.219 532.396 559.232C532.465 559.245 532.535 559.238 532.6 559.213C532.808 558.682 533.044 558.162 533.306 557.655C533.323 557.599 533.345 557.546 533.373 557.495C533.439 557.375 533.493 557.242 533.573 557.122C533.746 556.736 533.946 556.363 534.145 556.003C537.036 550.675 541.152 545.893 545.081 541.258C549.637 535.823 559.24 523.636 557.189 522.29ZM555.071 527.378C554.618 528.164 554.125 528.924 553.619 529.683C552.594 531.228 551.461 532.72 550.329 534.185C547.838 537.368 545.174 540.419 542.577 543.509C538.932 547.569 535.772 552.039 533.16 556.829C532.787 557.575 532.454 558.321 532.147 559.08C532.307 558.481 532.467 557.881 532.64 557.295C534.378 550.889 536.972 544.746 540.353 539.033C542.287 535.828 544.555 532.837 547.119 530.109C548.498 528.657 549.961 527.287 551.501 526.006C552.154 525.474 556.017 522.01 556.829 522.85C557.415 523.476 555.111 527.299 555.071 527.378Z" fill="#F5EEE5"/>
<path d="M571.934 561.438C565.474 565.141 557.908 566.286 550.622 566.766C546.706 566.992 542.763 567.032 538.834 567.165C535.316 567.084 531.798 567.365 528.338 568.004L527.885 568.111C526.93 568.366 526.006 568.723 525.128 569.177C525.098 569.19 525.067 569.197 525.034 569.197C525.002 569.197 524.97 569.19 524.941 569.177L524.688 569.363C524.688 569.363 524.542 569.363 524.595 569.27L524.808 569.003C524.801 568.958 524.808 568.911 524.83 568.87C524.852 568.829 524.886 568.797 524.928 568.777H525.034C525.114 568.697 525.181 568.604 525.247 568.524C530.282 562.557 539.1 558.947 546.2 556.429C553.299 553.912 560.852 552.593 568.324 554.152C570.189 554.551 574.611 555.177 575.344 557.375C576.077 559.573 573.306 560.652 571.934 561.438Z" fill="#FF8656"/>
<path d="M567.512 558.6C567.033 556.376 560.852 557.122 559.374 557.268C554.82 557.761 550.318 558.653 545.92 559.932C538.706 561.636 531.805 564.468 525.474 568.324L525.221 568.404L524.995 568.657H524.888C524.845 568.679 524.81 568.714 524.789 568.757C524.767 568.8 524.76 568.849 524.768 568.897L525.115 568.79C526.007 568.497 526.913 568.244 527.779 568.018L528.231 567.898C534.633 566.53 541.115 565.569 547.639 565.021C552.179 564.555 556.665 563.663 561.039 562.357C562.197 562.104 567.912 560.479 567.512 558.6ZM564.329 560.772C557.349 564.168 548.877 564.448 541.285 565.3C536.159 565.753 531.087 566.694 526.14 568.111C532.003 564.849 538.274 562.38 544.788 560.772C548.462 559.712 552.193 558.862 555.964 558.227C558.005 557.863 560.071 557.658 562.144 557.615C563.386 557.572 564.629 557.674 565.847 557.921C568.072 558.56 565.527 560.186 564.329 560.772Z" fill="#F5EEE5"/>
<path d="M515.564 581.778C515.504 581.807 515.438 581.822 515.371 581.822C515.304 581.822 515.238 581.807 515.178 581.778V581.924C515.182 581.94 515.183 581.956 515.18 581.972C515.177 581.988 515.169 582.002 515.158 582.014C515.148 582.027 515.134 582.036 515.119 582.041C515.103 582.046 515.087 582.047 515.071 582.044C515.057 582.051 515.042 582.054 515.026 582.053C515.011 582.052 514.996 582.048 514.983 582.04C514.97 582.032 514.959 582.021 514.951 582.008C514.943 581.994 514.939 581.979 514.938 581.964C513.153 573.173 512.274 563.316 514.298 554.552C515.115 550.827 516.533 547.259 518.494 543.989C519.826 541.764 522.597 537.329 525.514 536.903C531.348 536.157 525.953 551.967 525.128 554.352C523.636 558.694 521.784 562.89 520.199 567.206C518.481 571.921 517.096 576.756 515.724 581.591C515.696 581.671 515.639 581.738 515.564 581.778Z" fill="#FF8656"/>
<path d="M523.343 542.736C522.211 543.083 519.174 548.917 518.508 550.502C517.049 554.14 516.038 557.942 515.498 561.824C514.519 568.323 514.357 574.919 515.018 581.458C515.018 581.658 515.018 581.844 515.018 582.03C515.034 582.029 515.049 582.024 515.063 582.016C515.077 582.009 515.089 581.999 515.099 581.986C515.109 581.974 515.116 581.96 515.121 581.944C515.125 581.929 515.126 581.913 515.125 581.897C515.118 581.853 515.118 581.808 515.125 581.764H515.231C515.277 581.784 515.327 581.794 515.378 581.794C515.428 581.794 515.478 581.784 515.524 581.764C515.524 581.285 515.524 580.818 515.604 580.339C516.119 572.573 517.836 564.934 520.692 557.695C522.222 554.09 523.451 550.366 524.369 546.559C524.595 545.6 525.541 542.124 523.343 542.736ZM524.142 545.96C523.966 547.225 523.667 548.469 523.25 549.676C522.677 551.381 522.064 553.073 521.412 554.764C520.08 558.134 518.748 561.504 517.775 564.968C516.274 569.928 515.437 575.065 515.284 580.246C514.945 575.208 515.025 570.151 515.524 565.127C515.872 561.253 516.631 557.426 517.789 553.712C518.263 552.242 518.824 550.801 519.467 549.396C519.963 548.291 520.537 547.223 521.185 546.2C522.824 543.722 523.436 543.216 523.849 543.389C524.262 543.562 524.382 544.002 524.142 545.96Z" fill="#F5EEE5"/>
<path d="M540.939 579.726C538.618 581.94 535.846 583.625 532.813 584.668C526.873 586.945 520.546 587.944 514.485 589.796C513.579 590.076 512.673 590.382 511.821 590.702C511.714 590.702 510.742 591.381 510.795 591.314L511.581 590.488C513.992 587.984 521.398 580.512 526.513 577.555C529.666 575.627 533.043 574.093 536.57 572.986C538.261 572.52 542.071 571.654 543.443 573.266C544.815 574.877 542.124 578.527 540.939 579.726Z" fill="#FF8656"/>
<path d="M539.287 576.17C538.195 573.852 528.005 579.207 526.66 579.886C521.698 582.38 517.085 585.515 512.94 589.21C512.461 589.61 512.008 590.036 511.608 590.462L510.929 591.182L510.836 591.275C510.943 591.232 511.045 591.178 511.142 591.115L511.355 590.982L511.648 590.795L511.848 590.675L512.301 590.516L513.193 590.209L514.525 589.783C518.521 588.051 522.637 586.386 526.646 584.561C529.545 583.274 532.338 581.76 534.998 580.033C535.557 579.66 539.767 577.182 539.287 576.17ZM537.222 578.208C529.857 583.842 520.799 586.2 512.514 590.036L512.101 590.222L512.647 589.77C516.14 586.782 519.908 584.132 523.902 581.857C526.34 580.483 528.858 579.256 531.442 578.181C532.835 577.534 534.268 576.973 535.731 576.503C536.383 576.343 538.168 575.943 538.395 576.37C538.621 576.796 537.702 577.835 537.222 578.208Z" fill="#F5EEE5"/>
<path d="M598.614 531.174C585.054 540.139 567.019 536.676 553.006 544.694H552.94C552.514 544.934 552.07 545.187 551.608 545.453C551.567 545.481 551.519 545.498 551.47 545.502C551.421 545.506 551.372 545.498 551.326 545.478C551.281 545.458 551.242 545.427 551.212 545.388C551.182 545.349 551.162 545.303 551.155 545.254C551.151 545.208 551.161 545.163 551.182 545.123C551.203 545.083 551.235 545.05 551.275 545.027L551.581 544.841C557.415 537.968 565.527 532.24 573.413 527.938C580.286 524.221 588.065 521.611 595.95 522.423C597.895 522.623 601.784 522.889 602.61 525.194C603.436 527.498 600.279 530.135 598.614 531.174Z" fill="#FF8656"/>
<path d="M593.366 528.537C593.006 527.578 591.554 527.525 590.702 527.445C588.719 527.249 586.72 527.294 584.748 527.578C580.704 528.174 576.772 529.368 573.08 531.121C566.676 533.924 560.641 537.502 555.111 541.777C553.885 542.763 552.7 543.788 551.568 544.881L551.142 545.28C551.15 545.328 551.17 545.374 551.2 545.413C551.23 545.452 551.268 545.483 551.313 545.504C551.357 545.525 551.406 545.535 551.455 545.533C551.504 545.531 551.552 545.518 551.594 545.493C551.994 545.24 552.367 545.014 552.767 544.787L552.886 544.721C555.565 542.915 558.41 541.372 561.385 540.112C566.091 538.353 570.905 536.898 575.797 535.756C577.822 535.237 594.618 531.84 593.366 528.537ZM590.622 530.868C587.066 532.733 582.95 533.452 579.087 534.491C575.224 535.53 571.295 536.556 567.419 537.674C564.335 538.549 561.331 539.685 558.441 541.071C556.027 542.223 553.722 543.592 551.554 545.16C553.508 543.399 555.577 541.77 557.748 540.285C557.774 540.276 557.802 540.276 557.828 540.285C561.707 537.672 565.747 535.305 569.923 533.199L570.083 533.119C573.712 531.169 577.562 529.662 581.551 528.63C583.731 528.092 585.966 527.806 588.211 527.778C590.742 527.778 592.793 528.044 592.873 528.91C592.9 529.456 591.674 530.322 590.622 530.868Z" fill="#F5EEE5"/>
<path d="M570.096 533.479C566.18 535.943 562.291 538.5 558.428 541.071L552.993 544.708L552.873 544.774L550.969 546.106C545.055 550.102 538.821 553.978 533.653 558.853C530.934 561.442 528.468 564.283 526.287 567.338L525.594 568.284L525.234 568.803C525.154 568.897 525.101 569.003 525.035 569.096C523.156 571.76 521.412 574.544 519.707 577.248C517.349 581.018 515.271 584.907 513.233 588.837C513.162 588.945 513.104 589.061 513.06 589.183C512.953 589.356 512.86 589.529 512.767 589.716C512.717 589.802 512.673 589.891 512.634 589.982L512.354 590.488L511.022 592.953H509.41C510.995 589.058 512.851 585.279 514.965 581.644C515.001 581.564 515.046 581.488 515.098 581.417C515.298 581.045 515.524 580.658 515.737 580.299C515.95 579.939 516.257 579.393 516.536 578.967C517.202 577.888 517.868 576.809 518.508 575.756C522.357 569.603 526.5 563.289 531.828 558.187L532.267 557.774C532.323 557.71 532.385 557.652 532.454 557.601L532.76 557.295L533.28 556.829L534.212 556.016L534.492 555.776C539.612 551.726 545.001 548.028 550.622 544.708C551.621 544.082 552.607 543.455 553.619 542.843L555.284 541.83L557.855 540.312C557.881 540.303 557.909 540.303 557.935 540.312C561.931 537.928 566.02 535.637 570.03 533.226C570.096 533.053 570.296 533.372 570.096 533.479Z" fill="#FF8656"/>
<path d="M476.47 478.867C476.47 478.867 501.191 550.515 513.366 579.606C515.532 584.325 518.647 588.546 522.517 592.007C524.581 594.072 605.167 592.3 606.646 592.007C608.124 591.714 598.068 572.374 592.473 569.723C586.879 567.072 544.362 574.878 544.362 574.878C544.362 574.878 542.79 490.762 543.283 488.204C543.613 485.108 543.742 481.994 543.669 478.88L544.655 491.761C544.655 491.761 547.505 482.117 547.612 477.682C547.718 473.246 544.948 429.477 544.948 429.477L476.47 478.867Z" fill="#D56E45"/>
<path d="M587.838 579.167C592.021 581.831 596.576 587.159 594.831 592.487C594.551 587.159 590.742 583.416 587.838 579.167Z" fill="#1C1C1C"/>
<path d="M596.097 578.674C600.292 581.338 604.848 586.666 603.103 591.994C602.81 586.666 599.014 582.923 596.097 578.674Z" fill="#1C1C1C"/>
<path opacity="0.1" d="M545.973 446.22C538.168 461.471 526.619 477.761 522.663 481.145C511.085 490.366 498.847 498.727 486.047 506.16C480.466 490.415 476.47 478.84 476.47 478.84L544.948 429.437C544.948 429.437 545.427 437.042 545.973 446.22Z" fill="#1C1C1C"/>
<path d="M225.494 531.894L220.726 550.981C181.032 520.345 143.296 470.942 129.137 423.935C126.087 413.759 119.107 391.701 118.974 382.643C118.828 373.093 123.849 359.347 124.302 358.241C124.169 359.253 122.584 371.801 124.302 382.483C124.382 380.765 124.515 379.087 124.702 377.395C130.736 322.384 208.018 275.004 208.018 275.004C208.018 275.004 170.469 332.28 174.851 408.204C176.397 435.031 186 461.671 196.417 483.329C191.608 472.806 187.093 455.743 186.879 454.691C187.679 456.596 209.177 507.172 217.236 520.039L218.048 521.291C218.261 521.598 218.435 521.864 218.594 522.117C222.777 528.351 225.494 531.894 225.494 531.894Z" fill="#D56E45"/>
<path opacity="0.1" d="M225.494 531.894L220.726 550.982C215.677 547.092 210.669 542.91 205.754 538.448L213.12 512.673C214.678 515.71 216.05 518.228 217.182 520.026L217.995 521.278C218.208 521.584 218.381 521.851 218.541 522.104C222.777 528.351 225.494 531.894 225.494 531.894Z" fill="#1C1C1C"/>
<path d="M213.48 559.2C213.986 565.98 212.6 591.674 238.268 591.674H365.194C381.724 591.674 497.835 496.303 517.402 474.192C536.969 452.081 553.806 425.494 556.163 404.235C558.521 382.977 535.997 286.473 511.488 241.305C511.488 241.305 511.288 220.06 505.68 202.944C500.073 185.827 484.448 161.318 466.733 155.711C449.017 150.103 366.38 164.276 358.108 180.499C349.836 196.723 350.436 225.374 350.436 225.374C350.436 225.374 279.307 255.771 279.6 260.792C279.893 265.814 307.932 295.917 331.548 298.275C355.164 300.632 400.612 282.637 400.612 282.637C400.612 282.637 402.677 291.188 400.319 298.861C397.962 306.533 338.035 388.917 327.059 397.016C316.083 405.114 255.744 427.266 242.424 449.99C229.104 472.713 210.829 523.476 213.48 559.2Z" fill="#FFD75F"/>
<path d="M213.48 559.2C213.986 565.98 212.6 591.674 238.268 591.674H365.194C381.724 591.674 497.835 496.303 517.402 474.192C536.969 452.081 553.806 425.494 556.163 404.235C558.521 382.977 535.997 286.473 511.488 241.305C511.488 241.305 511.288 220.06 505.68 202.944C500.073 185.827 484.448 161.318 466.733 155.711C449.017 150.103 366.38 164.276 358.108 180.499C349.836 196.723 350.436 225.374 350.436 225.374C350.436 225.374 279.307 255.771 279.6 260.792C279.893 265.814 307.932 295.917 331.548 298.275C355.164 300.632 400.612 282.637 400.612 282.637C400.612 282.637 402.677 291.188 400.319 298.861C397.962 306.533 338.035 388.917 327.059 397.016C316.083 405.114 255.744 427.266 242.424 449.99C229.104 472.713 210.829 523.476 213.48 559.2Z" fill="#D56E45"/>
<path opacity="0.1" d="M254.225 447.325C244.768 459.739 233.606 531.174 245.674 556.549C255.944 578.141 314.258 589.929 349.263 591.687H238.281C212.587 591.687 213.972 565.993 213.479 559.213C210.815 523.502 229.117 472.726 242.41 449.989C255.704 427.252 316.19 405.127 327.126 397.015C338.061 388.904 397.961 306.533 400.386 298.86C402.81 291.188 400.692 282.637 400.692 282.637C400.692 282.637 418.754 274.085 425.414 270.396C425.414 270.396 430.156 287.712 430.169 297.475C430.182 307.239 348.917 396.043 334.958 402.517C320.998 408.99 263.736 434.937 254.225 447.325Z" fill="#1C1C1C"/>
<path opacity="0.2" d="M310.742 405.713C308.944 427.745 297.888 460.086 281.358 478.534C264.575 497.275 231.128 500.139 221.711 500.578C227.639 480.239 235.671 461.511 242.41 449.962C252.321 433.059 288.458 416.436 310.742 405.713Z" fill="#1C1C1C"/>
<path opacity="0.2" d="M327.565 415.411C329.51 423.962 346.746 425.347 355.018 421.658C363.29 417.968 368.005 405.008 361.212 397.016C354.419 389.024 325.194 405.034 327.565 415.411Z" fill="#1C1C1C"/>
<path opacity="0.2" d="M388.651 347.132C388.211 357.602 379.074 374.438 369.177 377.768C361.838 380.299 352.367 378.168 347.505 373.386C358.561 359.253 371.774 341.351 382.23 326.553C386.786 329.989 388.944 339.353 388.651 347.132Z" fill="#1C1C1C"/>
<path opacity="0.1" d="M501.711 367.632C503.456 359.413 504.508 350.862 503.536 342.777C503.511 342.612 503.543 342.444 503.626 342.3C503.709 342.156 503.839 342.044 503.994 341.984C504.149 341.923 504.32 341.917 504.479 341.967C504.638 342.017 504.775 342.119 504.868 342.257C506.107 343.589 509.597 347.385 510.116 347.971C510.116 347.465 510.116 346.959 510.023 346.48C509.876 344.788 509.65 343.11 509.357 341.458C508.731 338.124 507.84 334.846 506.693 331.654C505.544 328.472 504.127 325.393 502.457 322.45C500.765 319.467 498.741 316.723 496.796 313.872C496.716 313.752 496.943 313.592 497.062 313.699C499.724 316.085 502.054 318.818 503.989 321.824C505.904 324.659 507.554 327.664 508.917 330.802C510.281 333.973 511.334 337.27 512.061 340.645C512.434 342.404 512.713 344.162 512.913 345.973C513.226 347.713 513.226 349.495 512.913 351.235C512.633 352.38 510.942 352.207 510.462 351.408C510.169 350.915 505.747 345.481 505.068 344.748C505.933 352.546 504.999 360.438 502.337 367.818C502.231 368.125 501.631 368.005 501.711 367.632Z" fill="#1C1C1C"/>
<path opacity="0.1" d="M399.906 281.745C398.814 282.184 396.443 283.077 393.18 284.249L399.906 281.745Z" fill="#1C1C1C"/>
<path d="M362.304 576.876C362.304 576.876 358.921 588.864 361.518 591.528C364.115 594.192 474.272 592.86 474.472 591.528C474.671 590.196 457.555 567.032 446.726 565.847C435.897 564.661 401.278 574.705 401.278 574.705C401.278 574.705 464.522 495.904 445.953 448.884C437.788 428.171 388.811 420.113 326.073 445.447C269.037 468.464 282.783 570.842 314.085 582.057C345.387 593.273 362.304 576.876 362.304 576.876Z" fill="#D56E45"/>
<path d="M330.03 443.449C358.281 432.061 417.009 416.077 441.398 440.266C460.872 460.872 447.552 497.076 436.896 519.213C427.032 538.913 415.092 557.502 401.278 574.665C407.725 565.767 413.812 556.629 419.447 547.225C434.711 521.571 462.404 470.955 440.998 443.476C418.754 418.168 358.135 433.819 330.096 443.476L330.03 443.449Z" fill="#1C1C1C"/>
<path d="M341.725 435.178C347.868 433.346 354.357 432.986 360.666 434.125C354.375 434.81 348.052 435.161 341.725 435.178Z" fill="#1C1C1C"/>
<path d="M361.824 591.674C361.447 591.512 361.123 591.247 360.888 590.911C360.653 590.575 360.516 590.179 360.492 589.77C360.157 587.374 360.081 584.949 360.266 582.537C360.842 574.548 362.13 566.627 364.115 558.867C364.528 557.322 364.915 555.777 365.447 554.245C365.261 555.83 365.008 557.415 364.808 559C364.368 561.971 363.13 570.096 362.65 573.173C361.958 577.888 361.158 582.603 360.905 587.359C360.905 588.81 360.426 590.795 361.931 591.674H361.824Z" fill="#1C1C1C"/>
<path d="M361.958 556.376C362.49 559.12 362.757 561.957 363.063 564.688C363.876 570.615 361.598 564.301 361.438 562.024C361.177 560.109 361.355 558.159 361.958 556.323V556.376Z" fill="#1C1C1C"/>
<path d="M452.147 579.167C456.343 581.831 460.898 587.159 459.154 592.487C458.86 587.159 455.064 583.416 452.147 579.167Z" fill="#1C1C1C"/>
<path d="M460.419 578.674C464.601 581.338 469.157 586.666 467.412 591.994C467.132 586.666 463.336 582.923 460.419 578.674Z" fill="#1C1C1C"/>
<path d="M511.488 240.146C511.488 240.146 514.605 209.883 516.017 207.299C517.429 204.715 532.32 201.105 536.45 204.129C540.579 207.152 513.579 242.517 513.579 242.517L511.488 240.146Z" fill="#FFD75F"/>
<path d="M518.441 235.977C518.068 236.509 517.695 237.002 517.362 237.482C515.55 236.802 513.779 236.15 512.034 235.55C512.034 234.978 512.167 234.378 512.234 233.739C514.276 234.44 516.345 235.186 518.441 235.977ZM522.903 221.325C519.893 220.246 516.962 219.207 514.072 218.234C513.992 218.82 513.912 219.42 513.845 220.033C516.643 220.992 519.506 221.977 522.423 223.043L524.088 223.656C524.901 223.935 525.727 224.242 526.539 224.561L527.565 223.043C526.553 222.657 525.567 222.284 524.568 221.951C523.995 221.644 523.476 221.458 522.903 221.258V221.325ZM528.591 207.046L526.926 206.459C525.114 205.807 523.303 205.127 521.598 204.581C520.599 204.888 519.68 205.207 518.934 205.54C521.438 206.393 523.995 207.259 526.606 208.204L528.258 208.79C530.442 209.563 532.64 210.389 534.918 211.241C535.197 210.669 535.464 210.136 535.704 209.616C533.253 208.684 530.882 207.805 528.591 206.979V207.046ZM527.738 203.289L526.926 206.459C526.779 207.032 526.619 207.605 526.486 208.191C525.367 212.374 524.173 216.751 522.903 221.325L522.423 223.043C521.265 227.132 520.026 231.355 518.72 235.67C519.706 234.338 520.772 232.86 521.864 231.301C522.637 228.704 523.382 226.146 524.088 223.656L524.568 221.951C525.9 217.369 527.046 212.96 528.138 208.777C528.311 208.204 528.457 207.618 528.591 207.046C528.95 205.714 529.283 204.382 529.63 203.116C529.004 203.076 528.378 203.156 527.738 203.223V203.289Z" fill="#4C4C4C"/>
<path opacity="0.3" d="M511.488 240.146C511.488 240.146 514.911 208.178 520.812 207.525C526.713 206.873 513.686 236.31 511.488 240.146Z" fill="#1C1C1C"/>
<path d="M512.926 239.853C512.926 239.853 535.117 230.529 537.448 230.289C541.777 229.89 546.186 237.735 545.694 241.771C545.201 245.807 512.087 242.224 512.087 242.224L512.926 239.853Z" fill="#FFD75F"/>
<path d="M540.406 231.168L537.489 232.66L535.93 233.473C536.143 234.019 536.37 234.565 536.596 235.124L538.181 234.312C539.42 233.672 540.645 233.046 541.844 232.407C541.408 231.946 540.926 231.531 540.406 231.168ZM538.128 234.312L537.435 232.66C537.129 231.914 536.849 231.195 536.53 230.476L534.865 231.022L535.877 233.473C536.09 234.019 536.316 234.565 536.543 235.124C537.662 237.868 538.772 240.679 539.873 243.556C540.526 243.556 541.205 243.463 541.698 243.396C540.579 240.306 539.367 237.269 538.128 234.312Z" fill="#4C4C4C"/>
<path d="M524.408 241.225C524.688 241.918 524.955 242.637 525.248 243.329L523.29 243.196L522.81 242.011C522.131 242.33 521.478 242.663 520.772 243.01L517.256 242.717L522.157 240.359C521.651 239.094 521.145 237.868 520.639 236.643L522.277 235.977L523.729 239.573C527.991 237.482 532.081 235.444 535.93 233.473C536.143 234.019 536.37 234.565 536.596 235.124C532.8 237.096 528.671 239.134 524.408 241.225Z" fill="#4C4C4C"/>
<path opacity="0.3" d="M512.927 239.853C512.927 239.853 536.45 229.836 539.154 233.699C541.858 237.562 516.43 239.893 512.927 239.853Z" fill="#1C1C1C"/>
<path d="M400.199 282.224C401.372 286.513 487.978 309.65 494.625 306.56C499.593 304.242 517.002 243.756 513.033 238.321C511.355 236.03 508.038 241.705 467.319 258.834C448.431 266.786 399.24 278.761 400.199 282.224Z" fill="#FFD75F"/>
<path d="M412.48 276.55C412.484 276.514 412.484 276.479 412.48 276.443L410.815 277.029C410.81 277.06 410.81 277.092 410.815 277.122C411.108 277.962 411.455 278.827 411.748 279.693C412.32 279.533 412.893 279.374 413.479 279.24C413.133 278.388 412.8 277.429 412.48 276.55ZM414.079 280.905L412.374 281.385C413.186 283.663 414.025 285.994 414.865 288.391L416.956 289.057C415.997 286.26 415.038 283.529 414.079 280.905ZM433.712 290.815C433.539 290.243 433.339 289.697 433.166 289.137C431.688 284.768 430.209 280.559 428.757 276.563C428.544 276.004 428.344 275.444 428.158 274.898L427.066 271.994L425.347 272.527C425.707 273.459 426.08 274.445 426.426 275.418C426.639 275.964 426.839 276.51 427.052 277.083C428.504 281.079 429.996 285.301 431.461 289.67C431.648 290.216 431.848 290.789 432.021 291.362L432.82 293.772L434.871 294.345C434.498 293.16 434.099 291.961 433.712 290.815ZM462.803 281.052L461.125 281.651C462.519 285.763 463.895 290.016 465.254 294.412C465.827 294.225 466.373 294.026 466.946 293.812C465.6 289.483 464.189 285.221 462.803 281.052ZM462.803 281.052L461.125 281.651C462.519 285.763 463.895 290.016 465.254 294.412C465.827 294.225 466.373 294.026 466.946 293.812C465.6 289.483 464.189 285.221 462.803 281.052ZM462.803 281.052L461.125 281.651C462.519 285.763 463.895 290.016 465.254 294.412C465.827 294.225 466.373 294.026 466.946 293.812C465.6 289.483 464.189 285.221 462.803 281.052ZM448.324 286.087C448.125 285.514 447.951 284.955 447.752 284.382C446.26 280 444.755 275.777 443.303 271.781C443.09 271.235 442.876 270.676 442.677 270.129L441.704 267.465C441.132 267.652 440.559 267.825 439.973 267.985C440.319 268.877 440.639 269.757 440.985 270.649C441.185 271.208 441.398 271.768 441.611 272.341C443.09 276.337 444.581 280.546 446.047 284.928C446.246 285.474 446.433 286.047 446.619 286.606C447.951 290.416 449.177 294.359 450.402 298.381L452.227 298.847H452.427C452.435 298.812 452.435 298.776 452.427 298.741C451.068 294.518 449.71 290.256 448.324 286.14V286.087ZM462.803 281.052L461.125 281.651C462.519 285.763 463.895 290.016 465.254 294.412C465.827 294.225 466.373 294.026 466.946 293.812C465.6 289.483 464.189 285.221 462.803 281.052ZM462.803 281.052L461.125 281.651C462.519 285.763 463.895 290.016 465.254 294.412C465.827 294.225 466.373 294.026 466.946 293.812C465.6 289.483 464.189 285.221 462.803 281.052ZM462.803 281.052L461.125 281.651C462.519 285.763 463.895 290.016 465.254 294.412C465.827 294.225 466.373 294.026 466.946 293.812C465.6 289.483 464.189 285.221 462.803 281.052ZM469.676 303.03C468.939 300.49 468.198 297.977 467.452 295.491C467.279 294.931 467.106 294.359 466.946 293.812C465.614 289.43 464.189 285.168 462.803 281.052C462.617 280.479 462.417 279.933 462.217 279.36C460.712 274.965 459.18 270.729 457.715 266.76C457.502 266.187 457.289 265.641 457.089 265.081C456.809 264.322 456.516 263.576 456.236 262.857L454.558 263.416C454.838 264.162 455.118 264.935 455.411 265.694C455.624 266.227 455.81 266.786 456.023 267.359C457.515 271.355 459.02 275.564 460.552 279.96C456.356 281.451 452.081 282.943 447.752 284.382C447.951 284.955 448.125 285.514 448.324 286.087C452.667 284.635 456.929 283.143 461.125 281.651C462.519 285.763 463.895 290.016 465.254 294.412C465.441 294.985 465.614 295.531 465.774 296.103C466.426 298.235 467.106 300.379 467.692 302.564L469.676 303.03ZM485.66 303.136C484.462 298.741 483.196 294.412 481.864 290.189C486.246 288.524 490.495 286.873 494.571 285.234C494.385 284.675 494.198 284.115 494.025 283.569C489.963 285.181 485.714 286.833 481.345 288.498C480.013 284.102 478.547 279.826 477.136 275.724C476.922 275.151 476.736 274.592 476.549 274.032C475.018 269.61 473.473 265.388 471.954 261.418C471.741 260.845 471.528 260.299 471.341 259.74C471.035 258.967 470.729 258.221 470.449 257.449C469.916 257.715 469.423 257.928 468.944 258.155C468.944 258.155 468.877 258.155 468.837 258.155C469.144 258.901 469.423 259.647 469.703 260.406L470.342 262.084C471.834 266.08 473.379 270.263 474.924 274.685C470.804 276.257 466.573 277.824 462.23 279.387C462.43 279.96 462.63 280.506 462.817 281.079C467.146 279.507 471.395 277.948 475.51 276.39C476.936 280.492 478.348 284.768 479.72 289.164C479.893 289.723 480.079 290.269 480.252 290.842C481.567 295.06 482.828 299.371 484.035 303.776C484.195 304.349 484.355 304.921 484.501 305.481C484.501 305.641 484.568 305.814 484.621 305.974L486.539 306.267C486.42 305.8 486.286 305.321 486.166 304.935L485.66 303.136ZM496.21 284.582C496.037 284.009 495.85 283.463 495.677 282.89C494.247 278.494 492.813 274.228 491.375 270.09C491.188 269.543 490.988 268.971 490.789 268.425C489.217 263.976 487.632 259.727 486.127 255.784C485.913 255.211 485.7 254.692 485.487 254.132C485.114 253.173 484.741 252.241 484.382 251.308L482.77 252.041C483.13 252.947 483.476 253.866 483.849 254.811L484.475 256.463C486.007 260.459 487.565 264.642 489.137 269.077C489.337 269.637 489.536 270.196 489.723 270.769C491.188 274.871 492.622 279.138 494.025 283.569C494.198 284.115 494.385 284.675 494.571 285.234C495.903 289.443 497.235 293.772 498.448 298.181C498.527 298.514 498.621 298.847 498.727 299.207C498.9 298.781 499.087 298.315 499.26 297.875C499.433 297.435 499.62 296.983 499.793 296.543C498.661 292.494 497.475 288.524 496.236 284.635L496.21 284.582ZM505.534 264.202C505.321 263.656 505.121 263.083 504.921 262.537C503.309 258.062 501.711 253.839 500.179 249.91L499.54 248.271C499.047 247.046 498.581 245.86 498.128 244.715L496.529 245.501C496.982 246.62 497.449 247.779 497.861 248.964C498.075 249.497 498.288 250.056 498.501 250.602C500.019 254.598 501.618 258.768 503.256 263.243C503.429 263.789 503.629 264.349 503.842 264.895C504.894 267.825 505.933 270.862 506.986 273.979C507.265 272.953 507.545 271.941 507.811 270.915C507.119 268.678 506.333 266.4 505.56 264.255L505.534 264.202ZM513.459 242.131C512.966 240.892 512.127 239.094 511.648 237.842C511.077 238.016 510.52 238.235 509.983 238.494C510.529 239.826 511.315 241.571 511.847 242.863C512.061 243.396 512.274 243.942 512.487 244.515C512.7 245.088 512.966 245.701 513.219 246.327C513.326 245.527 513.393 244.782 513.459 244.089C513.526 243.396 513.552 242.917 513.566 242.397C513.566 242.344 513.526 242.277 513.486 242.184L513.459 242.131ZM411.748 279.72C408.018 280.759 404.28 281.749 400.532 282.69C400.639 282.783 400.759 282.863 400.905 282.97L401.398 283.276C401.827 283.536 402.271 283.767 402.73 283.969C405.936 283.161 409.141 282.308 412.347 281.412C412.161 280.812 411.961 280.253 411.748 279.72ZM513.486 242.211C512.953 242.464 512.42 242.717 511.874 242.943C508.105 244.635 504.015 246.433 499.566 248.351C499.034 248.564 498.487 248.804 497.941 249.044C494.012 250.722 489.883 252.441 485.514 254.212C484.981 254.452 484.435 254.665 483.875 254.891C479.879 256.503 475.697 258.168 471.368 259.82L469.69 260.459C465.614 262.04 461.413 263.607 457.089 265.161L455.411 265.774C451.255 267.266 446.992 268.758 442.677 270.209L440.985 270.756C436.776 272.181 432.487 273.566 428.158 274.911L426.426 275.431C422.151 276.763 417.822 278.015 413.479 279.267C413.666 279.813 413.866 280.386 414.079 280.932C418.448 279.707 422.772 278.428 427.052 277.096C427.625 276.936 428.185 276.763 428.757 276.576C433.117 275.235 437.402 273.859 441.611 272.447C443.09 276.443 444.581 280.652 446.047 285.035C446.619 284.861 447.179 284.662 447.752 284.462C446.26 280.08 444.755 275.857 443.303 271.861C447.605 270.409 451.867 268.931 456.023 267.439C457.515 271.435 459.02 275.644 460.552 280.04C456.356 281.531 452.081 283.023 447.752 284.462C447.951 285.035 448.125 285.594 448.324 286.167C452.667 284.715 456.929 283.223 461.125 281.731L462.803 281.132C467.132 279.56 471.381 278.002 475.497 276.443C476.057 276.203 476.603 276.017 477.162 275.804C481.505 274.139 485.714 272.487 489.75 270.849C489.563 270.276 489.363 269.717 489.163 269.157C485.123 270.791 480.927 272.443 476.576 274.112C475.044 269.69 473.499 265.467 471.981 261.498C476.296 259.82 480.492 258.168 484.501 256.543C486.033 260.539 487.592 264.722 489.163 269.157L490.815 268.504C489.243 264.056 487.658 259.806 486.153 255.864C490.522 254.106 494.678 252.374 498.581 250.682L500.206 249.99C504.655 248.085 508.771 246.273 512.513 244.662L513.486 244.235C513.486 243.636 513.579 243.063 513.592 242.544V242.264L513.486 242.211ZM474.858 274.738C470.737 276.31 466.506 277.877 462.164 279.44C460.659 275.045 459.127 270.809 457.662 266.839C461.977 265.268 466.182 263.7 470.276 262.137C471.821 266.067 473.366 270.289 474.911 274.712L474.858 274.738ZM504.894 262.617L503.283 263.323C499.287 264.988 495.157 266.733 490.762 268.504L489.11 269.157C485.07 270.791 480.874 272.443 476.523 274.112L474.884 274.738C470.764 276.31 466.533 277.877 462.19 279.44C461.644 279.653 461.072 279.853 460.525 280.04C456.33 281.531 452.054 283.023 447.725 284.462C447.152 284.662 446.593 284.861 446.02 285.035C441.784 286.446 437.491 287.818 433.14 289.15C432.567 289.31 431.994 289.497 431.435 289.67L425.081 291.548L425.907 291.801C426.693 292.014 427.465 292.241 428.251 292.48L431.994 291.362L433.686 290.829C438.028 289.497 442.344 288.165 446.593 286.7L448.298 286.153C452.64 284.702 456.902 283.21 461.098 281.718L462.777 281.118C467.106 279.547 471.355 277.988 475.471 276.43C476.03 276.19 476.576 276.004 477.136 275.79C481.478 274.125 485.687 272.474 489.723 270.835C490.282 270.609 490.828 270.396 491.375 270.156C495.77 268.38 499.944 266.649 503.895 264.961L505.534 264.269C507.092 263.616 508.611 262.937 510.089 262.311C510.262 261.605 510.422 260.872 510.609 260.166C508.788 260.956 506.901 261.765 504.948 262.59L504.894 262.617ZM495.65 282.97L493.999 283.649C489.936 285.261 485.687 286.913 481.318 288.578C479.986 284.182 478.521 279.906 477.109 275.804C476.549 276.017 476.003 276.203 475.444 276.443C476.869 280.546 478.281 284.821 479.653 289.217C475.497 290.789 471.244 292.347 466.892 293.892C466.32 294.105 465.774 294.305 465.201 294.492C460.992 295.984 456.703 297.453 452.334 298.901H452.174H452.374L455.357 299.647C458.86 298.474 462.31 297.276 465.72 296.077C466.28 295.877 466.852 295.677 467.399 295.464C471.768 293.932 476.03 292.361 480.186 290.789L481.837 290.163C486.22 288.498 490.469 286.846 494.545 285.208L496.183 284.555C499.193 283.343 502.15 282.144 504.974 280.972L505.614 278.787C502.47 280.199 499.14 281.558 495.704 282.943L495.65 282.97ZM498.421 298.261C494.305 299.886 490.016 301.565 485.634 303.216L483.969 303.829L480.119 305.254L483.556 305.867L484.408 305.534C484.954 305.348 485.527 305.134 486.073 304.921C490.269 303.336 494.332 301.778 498.274 300.206C498.394 299.913 498.541 299.607 498.661 299.287C498.781 298.967 499.02 298.395 499.193 297.955L498.421 298.261Z" fill="#4C4C4C"/>
<path opacity="0.1" d="M506.013 277.655C501.778 292.227 496.889 305.494 494.625 306.56C489.217 309.077 430.795 294.199 408.644 286.287C430.875 292.84 487.512 301.818 492.72 299.26C496.303 297.502 503.776 282.171 506.013 277.655Z" fill="#1C1C1C"/>
<path d="M401.398 394.964C401.398 394.964 443.116 423.149 466.933 427.971C490.749 432.793 537.968 395.857 537.968 395.857C537.968 395.857 556.323 424.521 559.147 427.971C561.971 431.421 576.929 433.299 579.686 430.515C582.444 427.731 582.244 414.531 579.686 407.205C577.129 399.879 549.57 368.244 538.554 369.23C527.539 370.216 495.504 386.679 493.12 386.346C489.39 385.827 468.824 360.772 453.746 341.484" fill="#D56E45"/>
<path opacity="0.1" d="M579.686 430.515C576.929 433.353 561.971 431.421 559.147 427.971C556.323 424.521 537.968 395.857 537.968 395.857C537.968 395.857 490.735 432.78 466.919 427.971C451.495 424.854 428.558 411.907 414.332 403.196C422.524 407.592 461.072 416.916 471.848 418.248C483.063 419.58 537.968 393.726 537.968 393.726C537.968 393.726 561.331 423.03 563.689 424.362C566.047 425.694 575.251 429.223 578.008 428.358C579.7 427.825 581.298 422.217 581.604 418.288C581.884 423.696 581.285 428.904 579.686 430.515Z" fill="#1C1C1C"/>
<path d="M568.111 418.834C572.307 421.498 576.862 426.826 575.117 432.154C574.824 426.826 571.028 423.07 568.111 418.834Z" fill="#1C1C1C"/>
<path d="M576.183 414.252C579.593 418.088 583.19 424.975 580.006 429.823C581.218 424.309 578.021 419.327 576.183 414.252Z" fill="#1C1C1C"/>
<path d="M411.042 402.264C426.759 410.096 442.45 418.248 458.901 424.415L463.016 425.747C463.722 425.907 465.454 426.386 466.12 426.546C487.432 429.743 519.84 406.966 537.968 395.83C523.982 406.606 509.317 416.836 493.066 423.989C484.209 427.612 474.219 431.141 464.495 428.797C456.583 426.746 449.124 423.109 441.851 419.566C431.275 414.332 421.045 408.484 411.055 402.25L411.042 402.264Z" fill="#1C1C1C"/>
<path d="M533.839 389.49C540.179 398.734 546.746 408.604 552.487 418.221C545.079 409.472 538.813 399.818 533.839 389.49Z" fill="#1C1C1C"/>
<path d="M417.142 410.256C422.683 411.335 427.798 412.92 433.299 414.252C427.631 414.613 421.989 413.217 417.142 410.256Z" fill="#1C1C1C"/>
<path d="M459.194 348.398L478.667 370.403C483.369 375.371 487.605 380.965 493.093 385.055C495.363 384.297 497.587 383.407 499.753 382.391C508.731 378.528 517.695 374.505 527.006 371.255C530.51 369.911 534.157 368.973 537.875 368.458C539.213 368.395 540.546 368.67 541.751 369.257C546.257 371.317 550.404 374.087 554.032 377.462C550.14 374.543 545.852 372.193 541.298 370.483C540.26 370.046 539.13 369.872 538.008 369.976C534.481 370.704 531.036 371.784 527.725 373.2C519.866 376.303 508.664 381.392 500.805 384.841C498.634 385.707 496.063 386.933 493.746 387.585C493.176 387.744 492.567 387.682 492.041 387.412C490.086 386.185 488.326 384.672 486.819 382.923C483.409 379.314 480.159 375.597 477.096 371.801C470.849 364.222 464.921 356.403 459.194 348.438V348.398Z" fill="#1C1C1C"/>
<path d="M467.532 352.9C469.145 354.456 470.433 356.317 471.32 358.375C472.207 360.433 472.676 362.647 472.7 364.888C471.048 360.719 469.064 357.069 467.532 352.9Z" fill="#1C1C1C"/>
<path d="M425.334 155.844C438.201 167.512 441.744 215.144 453.306 231.661C464.868 248.178 506.04 243.076 512.047 220.06C518.055 197.043 485.621 158.681 466.733 154.512C447.845 150.343 425.334 155.844 425.334 155.844Z" fill="#805032"/>
<path d="M275.471 260.059C275.124 263.882 290.669 276.443 297.462 275.564C304.255 274.685 310.542 253.479 307.639 248.99C304.735 244.502 275.91 255.198 275.471 260.059Z" fill="#1C1C1C"/>
<path d="M294.878 271.635C300.312 275.631 315.83 289.83 322.317 286.153C327.832 282.823 329.084 275.151 330.163 269.224C329.83 275.524 328.831 283.596 322.903 287.286C315.111 291.588 300.259 276.883 294.931 271.635H294.878Z" fill="#1C1C1C"/>
<path d="M304.189 285.048C306.213 286.167 308.504 287.898 310.662 288.325C310.489 288.325 310.489 288.578 310.476 288.511C306.48 282.983 301.072 278.628 296.77 273.273C300.658 276.185 304.277 279.439 307.585 282.997C309.011 284.675 310.742 286.18 311.488 288.325C311.488 291.521 305.108 285.86 304.189 285.048Z" fill="#1C1C1C"/>
<path opacity="0.2" d="M374.066 201.132C389.85 192.141 404.702 199.8 412.773 213.892C419.314 225.361 416.61 242.411 401.451 251.042C386.293 259.673 369.084 251.268 362.943 240.492C356.803 229.717 356.976 210.842 374.066 201.132Z" fill="#1C1C1C"/>
<path d="M368.737 219.047C376.53 212.867 385.201 215.744 390.742 222.724C391.938 224.3 392.809 226.098 393.304 228.013C393.799 229.929 393.908 231.923 393.625 233.882C393.343 235.84 392.674 237.722 391.658 239.42C390.641 241.117 389.298 242.595 387.705 243.769C380.219 249.71 370.203 246.593 365.994 241.265C364.695 239.634 363.735 237.761 363.17 235.754C362.605 233.748 362.445 231.649 362.7 229.58C362.956 227.511 363.621 225.514 364.658 223.706C365.695 221.897 367.081 220.313 368.737 219.047Z" fill="#1C1C1C"/>
<path d="M369.15 221.112C376.476 215.304 384.615 217.995 389.836 224.575C390.96 226.056 391.778 227.746 392.243 229.546C392.708 231.346 392.811 233.22 392.546 235.061C392.28 236.901 391.652 238.67 390.698 240.265C389.744 241.861 388.482 243.251 386.986 244.355C379.953 249.936 370.536 247.019 366.566 241.997C365.349 240.463 364.449 238.701 363.92 236.815C363.39 234.929 363.241 232.957 363.482 231.013C363.722 229.069 364.347 227.192 365.32 225.492C366.294 223.792 367.596 222.303 369.15 221.112Z" fill="#F5EEE5"/>
<path d="M368.085 224.282C374.065 219.54 380.712 221.751 384.974 227.106C385.892 228.316 386.56 229.696 386.939 231.167C387.319 232.637 387.403 234.169 387.186 235.672C386.969 237.175 386.456 238.62 385.676 239.923C384.896 241.226 383.866 242.361 382.643 243.263C376.902 247.818 369.217 245.421 365.98 241.345C364.976 240.095 364.233 238.657 363.795 237.115C363.356 235.574 363.231 233.96 363.428 232.369C363.624 230.778 364.137 229.243 364.937 227.854C365.737 226.465 366.807 225.25 368.085 224.282Z" fill="#1C1C1C"/>
<path d="M85.4077 392.167C86.4467 383.03 90.7357 357.375 92.3341 355.164C93.9325 352.953 112.394 361.651 120.306 378.901L85.4077 392.167Z" fill="#FFD75F"/>
<path opacity="0.1" d="M87.4324 391.394C88.2049 383.922 91.4284 363.143 92.5739 361.331C93.7194 359.52 107.745 367.339 113.659 381.444L87.4324 391.394Z" fill="#1C1C1C"/>
<path d="M95.2512 388.344C95.2512 388.344 95.8239 384.655 95.1313 383.642C94.6096 382.935 94.0159 382.283 93.3597 381.698C94.4493 381.988 95.4904 382.437 96.45 383.03C96.9982 383.541 97.5018 384.098 97.9551 384.695C97.9521 383.202 97.3694 381.77 96.3301 380.699C94.9913 379.665 93.5496 378.772 92.0277 378.035C92.0277 378.035 97.6887 378.035 99.7 379.287C101.711 380.539 104.122 381.418 105.268 382.017C106.677 382.519 108.138 382.859 109.623 383.03L95.2512 388.344Z" fill="#FFD75F"/>
<path d="M170.496 500.605C167.406 502.856 156.51 522.836 158.721 529.909C160.932 536.982 174.359 561.944 175.358 563.436C176.357 564.928 183.616 584.748 183.283 585.667C182.95 586.586 174.106 590.196 174.106 591.661C174.106 593.126 196.217 592.846 196.55 592.207C196.848 590.572 196.995 588.914 196.99 587.252C196.99 586.919 208.485 559.679 210.483 554.698C212.481 549.716 207.166 525.953 207.166 523.742C207.166 521.531 204.569 475.843 170.496 500.605Z" fill="#FFD75F"/>
<g opacity="0.1">
<path d="M170.496 500.605C167.406 502.856 156.51 522.836 158.721 529.909C160.932 536.982 174.359 561.944 175.358 563.436C176.357 564.928 183.616 584.748 183.283 585.667C182.95 586.586 174.106 590.196 174.106 591.661C174.106 593.126 196.217 592.846 196.55 592.207C196.848 590.572 196.995 588.914 196.99 587.252C196.99 586.919 208.485 559.679 210.483 554.698C212.481 549.716 207.166 525.953 207.166 523.742C207.166 521.531 204.569 475.843 170.496 500.605Z" fill="#1C1C1C"/>
</g>
<path d="M132.96 500.605C129.87 502.856 123.636 522.836 125.874 529.909C128.111 536.982 147.079 561.651 148.078 563.209C149.077 564.768 157.868 585.853 157.535 586.759C157.202 587.665 150.156 590.688 150.156 592.087C150.156 593.486 172.8 592.86 173.133 592.22C173.578 589.815 173.885 587.387 174.052 584.947C174.052 584.614 186.333 564.008 188.331 559.027C190.329 554.045 195.87 534.185 195.87 531.974C195.87 529.763 167.019 475.843 132.96 500.605Z" fill="#FFD75F"/>
<path d="M301.884 454.771C308.145 460.779 318.734 485.207 319.387 493.279C320.039 501.351 315.297 540.046 315.857 541.711C319.595 549.153 323.703 556.404 328.164 563.436C328.83 564.475 331.681 568.404 331.774 568.857C332.107 570.402 330.003 575.157 329.23 576.156C328.458 577.155 313.899 589.676 313.02 588.797C312.141 587.918 315.404 579.327 315.404 578.767C315.404 578.208 290.682 564.515 288.977 563.103C285.78 560.439 262.444 534.238 260.232 520.186C258.021 506.133 282.504 436.176 301.884 454.771Z" fill="#FFD75F"/>
<path opacity="0.1" d="M298.141 452.28L281.864 555.444C273.766 545.96 261.778 530.136 260.232 520.199C258.155 507.092 279.493 444.888 298.141 452.28Z" fill="#1C1C1C"/>
<path d="M148.544 374.731C152.194 368.324 171.322 346.906 175.304 346.559C179.287 346.213 188.131 374.731 189.57 380.818C191.008 386.906 189.57 407.938 189.57 407.938L148.544 374.731Z" fill="#FFD75F"/>
<path opacity="0.1" d="M149.663 375.624C152.54 370.549 166.686 353.233 169.843 352.98C173 352.727 179.993 375.277 181.125 380.086C182.257 384.894 181.258 401.211 181.258 401.211L149.663 375.624Z" fill="#1C1C1C"/>
<path d="M156.55 381.218C156.55 381.218 160.293 378.421 160.706 376.809C160.961 375.641 161.095 374.449 161.105 373.253C161.801 374.608 162.295 376.057 162.57 377.555C162.536 378.576 162.411 379.593 162.197 380.592C162.971 379.923 163.604 379.108 164.062 378.194C164.519 377.28 164.791 376.284 164.861 375.264C164.715 372.98 164.335 370.717 163.729 368.511C163.729 368.511 168.751 374.332 169.297 377.488C169.843 380.645 170.283 385.227 170.696 386.932C171.108 388.637 172.56 394.112 172.56 394.112L156.55 381.218Z" fill="#FFD75F"/>
<path d="M82.091 414.438C81.2119 416.649 70.103 435.018 70.7824 440.319C71.4617 445.62 83.9159 465.747 111.062 476.363C111.062 476.363 113.939 478.787 114.605 486.313C115.271 493.839 111.755 511.741 112.088 517.122C112.297 519.454 112.976 521.72 114.086 523.782C114.086 523.782 113.806 516.776 114.685 515.311C114.685 515.311 116.204 524.635 117.642 527.805C118.609 529.559 120.043 531.012 121.785 532.001L118.881 524.302C118.881 524.302 123.396 533.492 139.367 541.551C152.927 548.384 206.753 546.266 213.093 546.266C219.434 546.266 271.315 538.607 276.27 528.577C277.895 525.261 294.678 494.984 295.957 486.846C296.636 482.45 307.545 464.775 304.402 457.835C301.258 450.895 290.522 438.801 279.8 432.593C271.395 427.732 233.18 426.626 201.958 439.253C201.157 438.448 200.293 437.709 199.374 437.042C198.115 436.189 196.689 435.612 195.191 435.351C195.191 435.351 190.09 404.715 188.318 400.918C186.546 397.122 160.892 376.45 153.686 373.652C146.48 370.855 117.416 374.678 111.954 375.864C106.493 377.049 86.753 388.837 85.421 392.221C84.089 395.604 82.091 414.438 82.091 414.438Z" fill="#FFD75F"/>
<path opacity="0.1" d="M168.138 546.12C155.91 545.534 144.615 544.229 139.367 541.578C123.876 533.719 119.174 524.808 118.894 524.302L121.785 531.974C120.043 530.985 118.609 529.533 117.642 527.778C116.204 524.568 114.685 515.284 114.685 515.284C113.806 516.749 114.086 523.756 114.086 523.756C112.976 521.694 112.297 519.428 112.088 517.096C111.755 511.768 115.258 493.799 114.605 486.287C113.952 478.774 111.062 476.337 111.062 476.337C83.8626 465.681 71.4484 445.607 70.7824 440.293C70.1164 434.978 81.2519 416.65 82.091 414.439C82.091 414.439 84.0757 395.564 85.4077 392.167C83.4897 402.757 84.4886 415.584 84.2622 416.476C84.0358 417.369 76.47 435.604 78.2682 440.319C80.0664 445.035 104.908 472.5 120.293 476.163C120.293 476.163 125.394 490.669 124.768 497.316C124.142 503.962 125.314 522.344 126.606 526.54C127.899 530.735 133.466 533.892 138.381 538.394C143.296 542.897 166.673 545.88 168.138 546.12Z" fill="#1C1C1C"/>
<path d="M229.836 543.456C224.508 544.708 219.1 545.92 213.639 546.799C204.448 547.625 195.258 547.438 186.04 547.358C178.661 547.132 171.255 547.185 163.942 545.853C156.616 543.908 150.236 540.006 144.335 535.637C147.519 537.475 150.756 539.193 154.086 540.698C163.996 545.866 175.238 544.934 186.054 545.387C195.164 545.48 204.369 545.893 213.466 545.6C217.222 545.187 225.96 543.935 229.81 543.456H229.836Z" fill="#1C1C1C"/>
<path d="M111.062 476.363C113.366 477.109 133.373 475.151 137.702 473.699C141.298 472.513 162.251 457.502 178.208 446.593C187.532 440.212 196.017 435.071 196.67 435.071C196.67 435.071 201.372 437.362 201.998 438.494C201.998 438.494 192.674 441.464 189.943 443.143C187.212 444.821 179.141 450.096 179.141 450.096C179.141 450.096 147.732 477.748 140.433 479.4C133.133 481.051 113.073 481.278 113.073 481.278C112.401 480.403 111.862 479.434 111.475 478.401C111.262 477.495 111.062 476.363 111.062 476.363Z" fill="#FFD75F"/>
<path d="M177.848 450.868C182.014 447.445 186.471 444.392 191.168 441.744C194.649 440.481 198.266 439.627 201.944 439.2C198.521 440.532 195.044 441.531 191.674 442.93C187.359 445.287 182.35 448.884 177.835 450.922L177.848 450.868Z" fill="#1C1C1C"/>
<path d="M195.191 435.297C193.566 436.283 191.342 437.802 189.703 438.814C188.861 439.437 188.056 440.108 187.292 440.825C186.457 441.547 185.567 442.202 184.628 442.783C185.662 441.127 186.882 439.594 188.265 438.214C190.287 436.658 192.678 435.653 195.204 435.297H195.191Z" fill="#1C1C1C"/>
<path d="M98.9807 403.303C92.9068 402.677 89.2437 408.431 88.5111 415.504C87.9251 421.231 90.9354 427.492 96.7562 428.051C102.577 428.611 106.879 422.137 107.412 416.756C107.945 411.374 105.561 403.982 98.9807 403.303Z" fill="#1C1C1C"/>
<path d="M99.407 404.848C93.7061 404.262 90.2562 409.656 89.5769 416.316C89.0174 421.644 91.8413 427.545 97.3158 428.105C102.79 428.664 106.84 422.55 107.359 417.449C107.879 412.347 105.601 405.474 99.407 404.848Z" fill="#F5EEE5"/>
<path d="M101.232 405.021C96.7565 404.568 94.0658 408.791 93.533 413.999C93.0935 418.221 95.3046 422.79 99.5936 423.23C103.883 423.669 107.04 418.887 107.452 414.918C107.865 410.949 106.12 405.514 101.232 405.021Z" fill="#1C1C1C"/>
<path d="M144.202 402.876C152.461 401.291 157.842 406.872 159.254 414.251C159.543 415.906 159.498 417.602 159.123 419.24C158.749 420.878 158.051 422.424 157.071 423.788C156.091 425.153 154.848 426.308 153.416 427.186C151.984 428.065 150.391 428.648 148.731 428.903C140.739 430.422 134.505 424.148 133.426 418.514C133.092 416.778 133.107 414.993 133.469 413.263C133.832 411.533 134.535 409.893 135.538 408.437C136.541 406.982 137.824 405.741 139.311 404.786C140.799 403.831 142.461 403.182 144.202 402.876Z" fill="#1C1C1C"/>
<path d="M143.696 404.582C151.475 403.09 156.523 408.311 157.855 415.238C158.119 416.79 158.072 418.379 157.715 419.912C157.359 421.446 156.701 422.893 155.78 424.17C154.859 425.447 153.693 426.528 152.35 427.35C151.008 428.172 149.515 428.718 147.958 428.957C140.499 430.383 134.638 424.495 133.573 419.194C133.266 417.568 133.285 415.898 133.629 414.281C133.973 412.663 134.636 411.13 135.578 409.77C136.52 408.41 137.722 407.252 139.116 406.361C140.51 405.47 142.067 404.865 143.696 404.582Z" fill="#F5EEE5"/>
<path d="M146.906 405.194C153.246 403.982 157.376 408.244 158.468 413.932C158.682 415.199 158.643 416.497 158.351 417.749C158.06 419.001 157.522 420.183 156.77 421.225C156.017 422.267 155.065 423.15 153.969 423.821C152.872 424.492 151.653 424.938 150.383 425.134C147.776 425.552 145.108 424.958 142.926 423.472C140.744 421.985 139.213 419.721 138.648 417.142C138.394 415.814 138.408 414.449 138.687 413.127C138.966 411.804 139.506 410.55 140.275 409.438C141.043 408.326 142.025 407.378 143.164 406.65C144.302 405.921 145.574 405.426 146.906 405.194Z" fill="#1C1C1C"/>
<path d="M121.212 419.873C121.132 420.632 116.603 423.456 116.083 423.456C115.564 423.456 110.915 420.685 110.755 419.939C110.596 419.193 114.858 418.887 115.95 418.874C117.043 418.86 121.318 419.127 121.212 419.873Z" fill="#1C1C1C"/>
<path d="M107.452 425.334C108.212 426.4 108.971 427.452 109.81 428.411C110.204 428.903 110.65 429.349 111.142 429.743C111.329 429.882 111.55 429.969 111.781 429.996C111.998 429.957 112.201 429.86 112.367 429.716C112.786 429.337 113.133 428.886 113.393 428.384C113.689 427.841 113.943 427.275 114.152 426.693C114.603 425.508 114.968 424.293 115.245 423.056L115.764 420.805L116.537 422.99C117.055 424.445 117.697 425.853 118.455 427.199C118.814 427.86 119.238 428.485 119.72 429.064C120.133 429.613 120.698 430.03 121.345 430.262H121.558H121.785C121.951 430.249 122.116 430.222 122.278 430.182C122.624 430.093 122.956 429.954 123.263 429.77C123.917 429.378 124.516 428.903 125.048 428.358C126.143 427.225 127.12 425.984 127.965 424.655C127.336 426.133 126.507 427.518 125.501 428.771C124.985 429.421 124.38 429.995 123.703 430.475C122.975 431.047 122.052 431.31 121.132 431.208C120.246 430.99 119.45 430.501 118.854 429.809C118.299 429.189 117.8 428.52 117.362 427.811C116.527 426.407 115.827 424.926 115.271 423.389L116.603 423.323C116.285 424.617 115.871 425.886 115.364 427.119C115.096 427.744 114.785 428.349 114.432 428.93C114.073 429.564 113.582 430.113 112.994 430.542C112.643 430.79 112.224 430.925 111.795 430.928C111.375 430.873 110.983 430.686 110.676 430.396C110.164 429.943 109.716 429.424 109.344 428.85C108.609 427.737 107.976 426.56 107.452 425.334Z" fill="#1C1C1C"/>
<path d="M86.3001 420.725C82.9701 420.579 79.6401 420.539 76.3101 420.579C72.9801 420.619 69.6501 420.699 66.3201 420.938C64.6551 421.005 63.0034 421.152 61.3384 421.271C59.6734 421.391 58.0217 421.591 56.37 421.778C53.0534 422.111 49.71 422.617 46.46 423.11C48.085 422.75 49.71 422.364 51.3617 422.071C53.0134 421.778 54.6518 421.498 56.3034 421.271C59.6201 420.792 62.9634 420.512 66.2801 420.286C69.5968 420.059 72.9401 420.006 76.3101 420.073C77.9751 420.073 79.6534 420.179 81.3184 420.272C82.9834 420.366 84.6484 420.499 86.3001 420.725Z" fill="#1C1C1C"/>
<path d="M85.008 422.71C83.5161 422.83 82.011 422.937 80.5191 423.096C79.0273 423.256 77.5221 423.376 76.0303 423.549C73.0466 423.869 70.0629 424.215 67.0926 424.668C65.6007 424.855 64.1222 425.094 62.6437 425.321L58.2081 426.08L55.9837 426.48L53.7726 426.933C52.294 427.186 50.8422 427.559 49.3636 427.838C52.2408 426.959 55.1578 426.187 58.1016 425.574C61.0453 424.961 64.0156 424.442 66.9993 424.002C69.983 423.563 72.98 423.243 75.9903 423.03C79.0006 422.817 81.9976 422.67 85.008 422.71Z" fill="#1C1C1C"/>
<path d="M85.9271 424.562C84.7017 424.815 83.4762 425.054 82.2508 425.334C81.0254 425.614 79.7999 425.854 78.5745 426.147C76.1369 426.719 73.6994 427.279 71.2884 427.905C68.8775 428.531 66.44 429.157 64.029 429.823C61.6181 430.489 59.2072 431.155 56.783 431.861C57.9551 431.395 59.1273 430.955 60.3128 430.529C61.4982 430.103 62.6837 429.703 63.8825 429.33C66.2668 428.544 68.691 427.878 71.1153 427.252C73.5395 426.626 76.0037 426.093 78.4812 425.64C80.9588 425.188 83.423 424.788 85.9271 424.562Z" fill="#1C1C1C"/>
<path d="M163.063 425.853C165.115 425.587 167.179 425.454 169.244 425.294C171.308 425.134 173.386 425.108 175.464 425.068C179.607 424.988 183.749 425.068 187.892 425.307C192.034 425.547 196.164 425.907 200.279 426.479C202.331 426.746 204.382 427.092 206.42 427.439C207.446 427.598 208.458 427.811 209.47 428.025L212.507 428.664C208.418 428.051 204.329 427.412 200.213 426.999C198.162 426.759 196.097 426.573 194.046 426.386C191.994 426.2 189.916 426.067 187.852 425.973C183.736 425.694 179.593 425.614 175.464 425.574C171.335 425.534 167.193 425.627 163.063 425.853Z" fill="#1C1C1C"/>
<path d="M164.675 428.304C168.405 428.304 172.134 428.464 175.864 428.744C179.593 429.024 183.31 429.45 187.013 429.929C190.716 430.409 194.405 431.075 198.055 431.847C201.705 432.62 205.341 433.512 208.924 434.511C207.086 434.152 205.288 433.685 203.45 433.352L200.706 432.793L197.962 432.3C196.124 431.954 194.285 431.661 192.447 431.354C190.609 431.048 188.771 430.782 186.919 430.542C183.23 430.009 179.527 429.583 175.824 429.21C173.972 429.01 172.108 428.837 170.256 428.677C168.405 428.517 166.5 428.437 164.675 428.304Z" fill="#1C1C1C"/>
<path d="M163.543 430.622C166.646 430.915 169.723 431.421 172.773 431.954C175.824 432.487 178.874 433.206 181.911 433.939C184.948 434.671 187.932 435.524 190.902 436.47C192.394 436.936 193.859 437.429 195.338 437.921C196.816 438.414 198.268 438.987 199.72 439.533C196.723 438.681 193.752 437.788 190.755 436.962C187.758 436.137 184.761 435.337 181.738 434.591C178.714 433.845 175.704 433.126 172.68 432.447C171.162 432.101 169.643 431.794 168.111 431.475C166.58 431.155 165.075 430.902 163.543 430.622Z" fill="#1C1C1C"/>
<path d="M92.7603 396.19C93.0889 395.217 93.6407 394.334 94.3716 393.612C95.1025 392.891 95.9922 392.35 96.9695 392.034C97.9173 391.655 98.9382 391.492 99.957 391.559C100.976 391.626 101.967 391.92 102.857 392.42C101.998 392.886 101.108 393.291 100.193 393.632C97.7435 394.626 95.2398 395.48 92.6937 396.19H92.7603Z" fill="#1C1C1C"/>
<path d="M158.588 398.268C156.077 397.425 153.618 396.438 151.222 395.311C150.348 394.926 149.503 394.481 148.691 393.979C149.608 393.522 150.615 393.278 151.639 393.264C152.663 393.25 153.677 393.467 154.605 393.899C155.567 394.262 156.43 394.847 157.125 395.606C157.819 396.365 158.325 397.277 158.601 398.268H158.588Z" fill="#1C1C1C"/>
<path d="M124.235 454.212C122.439 452.429 120.942 450.37 119.8 448.111C119.776 448.073 119.742 448.043 119.701 448.024C119.661 448.006 119.615 448 119.571 448.007C119.527 448.014 119.486 448.034 119.453 448.064C119.42 448.095 119.397 448.134 119.387 448.178C119.28 448.711 119.001 450.242 118.961 450.482C118.881 450.349 118.814 450.216 118.748 450.083C118.508 449.63 118.308 449.164 118.108 448.684C117.731 447.729 117.432 446.744 117.216 445.74C117 444.741 116.871 443.725 116.829 442.703C116.829 441.664 116.829 440.625 116.909 439.586C116.909 439.586 116.829 439.586 116.816 439.586C116.513 440.625 116.351 441.701 116.337 442.783C116.301 443.821 116.359 444.86 116.51 445.887C116.667 446.918 116.925 447.931 117.282 448.91C117.463 449.423 117.672 449.926 117.908 450.416C118.105 450.904 118.385 451.354 118.734 451.748C119.001 452.001 119.4 451.748 119.387 451.401C119.374 451.055 119.653 449.124 119.707 448.817C120.17 449.78 120.727 450.695 121.372 451.548C122.149 452.571 123.043 453.501 124.036 454.318C124.182 454.385 124.315 454.212 124.235 454.212Z" fill="#1C1C1C"/>
<path opacity="0.1" d="M174.185 416.769C177.59 422.321 180.276 428.283 182.177 434.511C183.509 439.839 173.826 446.499 169.95 449.163C172.334 446.979 174.692 444.781 176.863 442.437C178.514 440.452 180.686 438.441 181.032 435.777C180.733 433.86 180.205 431.987 179.46 430.196C177.888 425.84 175.89 421.072 174.239 416.703L174.185 416.769Z" fill="#1C1C1C"/>
<path d="M195.537 481.664C191.874 487.738 183.456 523.089 188.025 531.494C192.594 539.899 233.726 557.149 235.204 558.92C236.683 560.692 243.756 586.08 243.316 586.786C242.877 587.491 235.324 590.702 235.497 592.22C235.63 593.232 254.145 592.526 255.251 592.526C256.356 592.526 257.715 588.65 257.542 588.93C257.369 589.21 277.748 552.766 281.824 545.573C283.836 542.044 276.27 530.988 276.27 528.55C276.27 526.113 294.012 504.441 293.959 492.946C293.959 486.473 283.569 460.206 259.02 456.676C234.472 453.146 203.942 467.731 195.537 481.664Z" fill="#FFD75F"/>
<path opacity="0.1" d="M245.327 587.252C241.984 588.89 238.987 590.129 238.148 591.674C237.988 591.967 238.268 592.313 238.827 592.7C236.869 592.633 235.537 592.486 235.497 592.22C235.311 590.701 242.877 587.518 243.316 586.785C243.756 586.053 236.656 560.692 235.204 558.92C233.752 557.148 192.58 539.899 188.025 531.494C184.841 525.633 188.025 506.639 191.408 493.639C190.569 499.966 191.941 525.021 197.242 530.442C202.544 535.863 238.921 552.26 240.332 554.245C241.744 556.229 247.512 586.199 245.327 587.252Z" fill="#1C1C1C"/>
<path d="M210.522 546.546C202.53 542.99 193.566 539.886 187.772 532.933C185.894 530.349 186.054 526.926 185.96 523.902C186.347 512.08 188.595 500.393 192.62 489.27C190.129 502.057 187.372 515.058 188.131 528.124C188.193 529.435 188.607 530.705 189.33 531.801C194.725 538.461 203.276 542.004 210.522 546.453V546.546Z" fill="#1C1C1C"/>
<path d="M188.544 493.279C189.015 496.976 189.193 500.704 189.077 504.428C188.235 502.704 187.753 500.826 187.661 498.909C187.57 496.992 187.87 495.076 188.544 493.279Z" fill="#1C1C1C"/>
<path d="M288.577 463.829C291.834 471.149 294.355 478.774 296.103 486.592C296.471 488.156 296.521 489.778 296.25 491.361C293.04 503.496 285.834 514.218 279.36 524.808C278.881 525.62 277.495 527.765 277.096 528.564C276.976 528.244 277.189 528.963 277.349 529.35C279.094 533.972 281.571 538.474 282.677 543.376C282.754 543.938 282.642 544.51 282.357 545.001C281.262 547.255 279.969 549.408 278.494 551.434C279.726 549.29 280.812 547.065 281.744 544.774C281.951 544.391 282.008 543.945 281.904 543.522C280.346 538.567 277.615 534.065 275.604 529.216C275.491 528.961 275.44 528.683 275.457 528.404C276.114 526.838 276.912 525.336 277.842 523.915C283.929 513.259 291.068 502.776 294.558 490.975C295.224 485.647 293.226 480.425 291.894 475.284C290.869 471.434 289.683 467.638 288.511 463.829H288.577Z" fill="#1C1C1C"/>
<path d="M330.429 380.099C331.961 379.013 333.401 377.802 334.731 376.476C334.585 376.769 332.147 381.524 331.242 382.097C330.336 382.67 326.873 385.893 325.314 386.919C314.778 403.063 300.739 422.883 296.103 437.135C292.107 449.31 296.103 457.928 296.103 457.928L281.265 444.448C278.601 440.799 271.315 429.183 273.979 409.496C276.643 389.81 292.427 365.541 277.335 338.514C262.244 311.488 247.272 319.347 225.494 331.854C225.494 331.854 247.725 295.611 287.032 294.891C312.527 294.412 333.506 350.729 331.681 372.6C332.048 371.969 332.33 371.293 332.52 370.589C332.867 368.777 333.013 360.159 333.013 360.159C333.013 360.159 335.291 368.524 334.625 372.147C334.159 374.811 331.681 377.768 329.683 380.326L330.429 380.099Z" fill="#FFD75F"/>
<path d="M275.058 430.981C277.802 436.949 280.533 443.036 281.079 449.629C279.187 443.356 276.523 437.362 275.058 430.981Z" fill="#1C1C1C"/>
<path d="M278.388 440.319C278.949 442.26 278.822 444.335 278.028 446.193C277.914 444.228 278.035 442.256 278.388 440.319Z" fill="#1C1C1C"/>
<path d="M294.518 444.461L294.771 448.391C294.771 452.387 296.103 456.076 296.436 459.993C294.099 455.17 293.424 449.708 294.518 444.461Z" fill="#1C1C1C"/>
<path d="M294.705 451.921C296.043 453.61 297.263 455.391 298.355 457.249C296.567 455.94 295.28 454.06 294.705 451.921Z" fill="#1C1C1C"/>
<path opacity="0.1" d="M281.252 444.421C278.588 440.745 271.315 429.143 273.979 409.496C276.643 389.849 292.427 365.54 277.335 338.514C262.244 311.488 247.272 319.347 225.494 331.854C225.494 331.854 242.144 304.708 272.114 296.942C261.245 300.792 250.536 312.58 245.834 318.081C245.834 318.081 264.388 315.417 272.114 321.624C279.84 327.831 290.829 351.967 293.972 364.821C297.116 377.675 277.988 404.568 276.523 417.755C275.098 430.609 280.919 443.689 281.252 444.421Z" fill="#1C1C1C"/>
</svg>
