<svg width="320" height="320" viewBox="0 0 320 320" fill="none" xmlns="http://www.w3.org/2000/svg">
<path d="M59.008 144.992C58.9056 143.904 58.6624 142.829 58.4832 141.747C57.7664 139.187 57.0688 136.627 55.7248 134.285C55.3608 133.643 54.9319 133.04 54.4448 132.486C52.9216 130.79 51.0976 130.566 49.152 131.731C47.7382 132.631 46.5441 133.836 45.6576 135.257C43.6352 138.31 42.2464 141.625 42.5024 145.344C42.5676 147.149 43.0605 148.913 43.9406 150.491C44.8207 152.069 46.0629 153.415 47.5648 154.419C51.136 156.838 55.3408 155.84 57.5424 152.128C58.79 149.97 59.3043 147.466 59.008 144.992Z" fill="#FFDBCC"/>
<path d="M77.9456 147.744C80.0384 143.904 80.1216 139.911 77.9456 136.071C75.9565 132.486 72.734 129.746 68.8768 128.359C68.1825 128.108 67.4565 127.955 66.72 127.904C65.8424 127.768 64.9452 127.956 64.1961 128.433C63.447 128.91 62.8973 129.643 62.6496 130.496C62.0261 132.388 61.8401 134.397 62.1056 136.371C62.2336 137.863 62.4576 139.347 62.6368 140.851C63.1232 143.578 63.9872 146.131 65.8368 148.263C66.9699 149.646 68.493 150.656 70.208 151.162C71.6939 151.577 73.2781 151.464 74.6895 150.84C76.1009 150.217 77.2519 149.122 77.9456 147.744Z" fill="#FFDBCC"/>
<path d="M89.3248 161.92C92.7168 159.43 94.0864 155.974 93.7344 151.814C93.6635 151.338 93.5652 150.865 93.44 150.4C92.9148 147.617 91.5788 145.052 89.6 143.027C89.408 142.841 89.1968 142.656 88.96 142.489C86.7968 140.832 84.7296 141.037 82.944 143.129C81.6944 144.676 80.7654 146.455 80.2112 148.365C79.3984 150.835 78.7008 153.331 79.0272 155.987C79.1848 157.598 79.7558 159.141 80.6848 160.467C82.8032 163.347 86.4 164.019 89.3248 161.92Z" fill="#FFDBCC"/>
<path d="M47.0209 179.162C47.0593 179.559 47.1297 179.955 47.2065 180.474C48.1665 184.282 50.7841 186.503 54.6241 187.335C58.6817 188.211 62.4769 187.296 65.9969 185.261C68.237 183.918 70.859 183.356 73.4529 183.661C77.4401 184.09 81.2097 183.399 84.5441 181.069C87.3409 179.117 89.0241 176.474 88.8577 172.947C88.7913 171.635 88.4579 170.349 87.878 169.17C87.2981 167.99 86.4838 166.941 85.4849 166.087C84.3693 165.096 83.143 164.237 81.8305 163.527C78.9637 161.995 76.3689 160.001 74.1505 157.626C73.0989 156.476 71.8233 155.553 70.4021 154.913C68.9809 154.274 67.4439 153.932 65.8857 153.908C64.3274 153.884 62.7807 154.178 61.3405 154.774C59.9003 155.369 58.5969 156.253 57.5105 157.37C56.0799 158.803 55.0627 160.597 54.5665 162.56C53.9308 165.152 52.6418 167.539 50.8225 169.491C48.5084 171.83 47.1407 174.941 46.9825 178.227C46.9735 178.539 46.9863 178.852 47.0209 179.162Z" fill="#FFDBCC"/>
<path d="M34.0992 162.682C35.1296 167.239 37.5552 170.131 41.5808 171.533C45.6064 172.935 49.408 170.727 50.048 166.515C50.2676 165.049 50.1293 163.552 49.6448 162.151C48.5312 158.816 46.2464 156.314 43.712 154.023C42.7973 153.214 41.7767 152.533 40.6784 152C38.4128 150.893 36.4416 151.578 35.2128 153.773C34.2165 155.691 33.7545 157.842 33.8752 160C33.92 161.037 34.048 162.061 34.0992 162.682Z" fill="#FFDBCC"/>
<path d="M128.493 53.2799C128.422 51.6095 128.141 49.9455 127.962 48.2815C127.078 44.3007 126.234 40.3135 124.371 36.6463C123.869 35.6378 123.264 34.6834 122.566 33.7983C120.384 31.0847 117.619 30.5599 114.554 32.1983C112.318 33.4529 110.392 35.1913 108.915 37.2863C105.574 41.7663 103.155 46.7263 103.245 52.4287C103.334 58.1311 105.542 63.1487 110.221 66.7135C115.462 70.7071 121.971 69.5295 125.651 64.0447C127.739 60.8589 128.736 57.0813 128.493 53.2799Z" fill="#FFDBCC"/>
<path d="M157.171 59.072C160.698 53.3568 161.158 47.2896 158.202 41.248C155.462 35.608 150.771 31.1516 144.998 28.704C143.96 28.2646 142.866 27.9696 141.747 27.8272C138.701 27.3984 136.55 28.6336 135.302 31.4496C134.054 34.2656 133.894 37.3312 133.984 40.4096C134.048 42.6944 134.272 44.9792 134.419 47.264C134.931 51.4688 136.032 55.4368 138.675 58.848C140.279 61.0522 142.509 62.7226 145.075 63.6416C147.308 64.4035 149.737 64.3641 151.944 63.5303C154.152 62.6964 156 61.1201 157.171 59.072Z" fill="#FFDBCC"/>
<path d="M173.363 81.6259C178.752 78.1123 181.12 72.9603 180.941 66.5603C180.88 65.8525 180.775 65.1493 180.627 64.4547C179.923 60.1091 178.342 56.1347 175.341 52.8451C175.06 52.5352 174.761 52.2424 174.445 51.9682C171.277 49.2546 168.109 49.4083 165.21 52.4099C163.174 54.663 161.606 57.2973 160.595 60.1603C159.149 63.8659 157.869 67.6163 158.144 71.6803C158.258 74.1412 159 76.532 160.301 78.6243C163.277 83.3154 168.736 84.6403 173.363 81.6259Z" fill="#FFDBCC"/>
<path d="M107.302 104.448C107.302 105.088 107.405 105.671 107.475 106.471C108.627 112.359 112.442 115.981 118.234 117.568C124.352 119.251 130.227 118.17 135.776 115.354C139.311 113.497 143.361 112.86 147.296 113.543C153.344 114.535 159.162 113.792 164.448 110.522C168.883 107.77 171.642 103.872 171.718 98.4835C171.732 96.4717 171.333 94.4785 170.546 92.627C169.759 90.7756 168.6 89.1051 167.142 87.7187C165.526 86.1022 163.726 84.6803 161.779 83.4819C157.521 80.901 153.716 77.6384 150.515 73.8243C149.007 71.9728 147.136 70.45 145.016 69.3499C142.897 68.2497 140.575 67.5955 138.193 67.4275C135.811 67.2596 133.419 67.5816 131.167 68.3736C128.914 69.1655 126.847 70.4107 125.094 72.0323C122.806 74.1037 121.125 76.7585 120.23 79.7123C119.035 83.6064 116.865 87.131 113.926 89.9523C110.259 93.5171 107.808 97.7539 107.347 102.963C107.299 103.457 107.284 103.953 107.302 104.448Z" fill="#FFDBCC"/>
<path d="M88.9599 78.1954C90.1503 85.2354 93.6127 89.8626 99.6415 92.3458C105.805 94.9058 111.661 91.7698 112.998 85.3954C113.454 83.172 113.368 80.8716 112.749 78.6882C111.322 73.5042 108.045 69.4914 104.365 65.7858C103.032 64.4697 101.525 63.3434 99.8847 62.4386C96.5183 60.557 93.4847 61.4338 91.3919 64.6914C89.5807 67.5522 88.9471 70.7714 88.8319 74.093C88.7871 75.6674 88.9599 77.2418 88.9599 78.1954Z" fill="#FFDBCC"/>
<path d="M259.68 120.89C260.218 119.936 260.634 118.912 261.101 117.92C261.978 115.405 262.874 112.896 263.098 110.24C263.174 109.508 263.174 108.77 263.098 108.038C262.816 105.779 261.459 104.538 259.187 104.397C257.513 104.329 255.845 104.636 254.304 105.293C250.906 106.656 247.866 108.582 245.952 111.782C244.98 113.304 244.381 115.034 244.204 116.832C244.027 118.629 244.277 120.443 244.934 122.125C246.483 126.144 250.509 127.725 254.438 125.933C256.688 124.867 258.528 123.096 259.68 120.89Z" fill="#FFDBCC"/>
<path d="M273.664 133.952C277.587 131.981 279.917 128.762 280.346 124.352C280.759 120.27 279.677 116.176 277.299 112.832C276.872 112.232 276.364 111.693 275.789 111.232C275.146 110.618 274.302 110.259 273.413 110.222C272.525 110.186 271.654 110.474 270.963 111.034C269.37 112.231 268.072 113.777 267.168 115.552C266.419 116.832 265.76 118.196 265.056 119.52C263.898 122.036 263.136 124.64 263.45 127.424C263.587 129.203 264.256 130.9 265.37 132.295C266.345 133.491 267.706 134.31 269.219 134.612C270.733 134.915 272.304 134.681 273.664 133.952Z" fill="#FFDBCC"/>
<path d="M274.938 152.058C279.142 151.955 282.24 149.894 284.32 146.298C284.527 145.881 284.711 145.454 284.87 145.018C286.024 142.422 286.385 139.543 285.907 136.742C285.857 136.472 285.791 136.205 285.709 135.942C284.877 133.382 283.066 132.339 280.422 133.024C278.52 133.578 276.745 134.503 275.2 135.744C273.126 137.312 271.13 138.944 269.882 141.325C269.099 142.732 268.694 144.317 268.704 145.926C268.742 149.536 271.36 152.154 274.938 152.058Z" fill="#FFDBCC"/>
<path d="M230.336 142.08C230.138 142.432 229.978 142.797 229.741 143.264C228.358 146.938 229.242 150.259 231.917 153.133C234.746 156.166 238.387 157.581 242.445 157.92C245.052 158.098 247.527 159.133 249.485 160.864C252.506 163.488 256 165.075 260.07 165.062C263.482 165.062 266.355 163.834 268.243 160.858C268.942 159.743 269.404 158.498 269.601 157.197C269.798 155.897 269.726 154.57 269.389 153.299C269.045 151.843 268.531 150.432 267.859 149.094C266.374 146.199 265.375 143.079 264.902 139.859C264.698 138.311 264.179 136.821 263.377 135.482C262.574 134.143 261.506 132.982 260.238 132.071C258.969 131.161 257.527 130.52 256.002 130.189C254.476 129.857 252.898 129.842 251.366 130.144C249.381 130.509 247.533 131.409 246.022 132.749C244.016 134.512 241.593 135.735 238.982 136.301C235.752 136.905 232.857 138.68 230.854 141.286C230.666 141.541 230.493 141.806 230.336 142.08Z" fill="#FFDBCC"/>
<path d="M229.12 121.197C227.366 125.53 227.706 129.286 230.208 132.717C232.71 136.147 237.101 136.518 240.026 133.427C241.05 132.343 241.793 131.025 242.189 129.587C243.174 126.208 242.726 122.854 241.952 119.526C241.664 118.34 241.214 117.199 240.614 116.134C239.386 113.933 237.382 113.37 235.117 114.47C233.201 115.477 231.593 116.983 230.464 118.829C229.901 119.725 229.44 120.653 229.12 121.197Z" fill="#FFDBCC"/>
<path d="M28.448 284.608L61.3376 284.448L94.2272 284.397L160 284.288L225.773 284.39L258.662 284.448L291.552 284.608L258.662 284.762L225.773 284.819L160 284.928L94.2272 284.819L61.3376 284.762L28.448 284.608Z" fill="#1C1C1C"/>
<path d="M137.721 89.3184C141.869 92.1408 147.795 91.8784 147.795 91.8784C147.795 91.8784 151.097 86.9504 150.829 81.9456C150.605 77.7728 147.59 74.8224 144.608 75.4944C140.326 76.448 142.982 83.3408 142.982 83.3408C142.982 83.3408 138.451 77.504 135.417 80.6784C133.299 82.8672 134.265 86.9696 137.721 89.3184Z" fill="#FF8656"/>
<path d="M149.984 62.9184C151.136 66.0288 154.464 68.1472 154.464 68.1472C154.464 68.1472 158.131 66.7648 159.91 63.9616C161.389 61.6256 160.896 58.88 159.034 58.0928C156.358 56.9664 155.142 61.7024 155.142 61.7024C155.142 61.7024 154.944 56.8192 152.09 57.3568C150.074 57.7408 149.024 60.32 149.984 62.9184Z" fill="#FF8656"/>
<path d="M262.47 136.563C263.142 139.814 266.093 142.406 266.093 142.406C266.093 142.406 269.933 141.587 272.102 139.085C273.92 136.998 273.843 134.208 272.102 133.152C269.625 131.635 267.712 136.134 267.712 136.134C267.712 136.134 268.249 131.277 265.344 131.386C263.341 131.462 261.913 133.856 262.47 136.563Z" fill="#FF8656"/>
<path d="M49.8687 142.432C54.7391 147.2 62.7199 148.237 62.7199 148.237C62.7199 148.237 68.3263 142.445 69.1647 135.687C69.8623 130.048 66.5407 125.383 62.3871 125.555C56.4351 125.811 58.3295 135.667 58.3295 135.667C58.3295 135.667 53.6703 126.778 48.8511 130.285C45.5039 132.736 45.8111 138.458 49.8687 142.432Z" fill="#FF8656"/>
<path d="M59.9041 265.638C56.7809 267.558 53.3185 269.702 49.5233 269.113C46.0161 268.563 42.2465 266.931 40.7425 263.481C40.3137 262.496 40.2113 261.798 41.4273 261.638C43.2897 261.395 45.4017 262.419 47.1169 263.014C49.3151 263.8 51.582 264.379 53.8881 264.742C55.5073 264.979 57.1521 265.043 58.7841 265.241C58.9889 265.241 59.1937 265.293 59.4241 265.325L59.6545 265.357L59.7505 265.305C59.7764 265.293 59.8049 265.286 59.8337 265.286C59.8625 265.286 59.8909 265.293 59.9169 265.305L59.9745 265.35C59.9927 265.372 60.0055 265.399 60.0118 265.427C60.0182 265.455 60.0179 265.484 60.0111 265.512C60.0043 265.54 59.991 265.566 59.9725 265.588C59.9539 265.61 59.9305 265.627 59.9041 265.638Z" fill="#FF8656"/>
<path d="M59.9488 265.344C57.1136 266.861 54.1888 268.678 50.848 268.026C49.3101 267.69 47.8348 267.113 46.4768 266.317C45.8368 265.971 44.0064 264.941 44.0576 264.09C44.1536 262.547 50.08 265.299 50.7904 265.485C53.4312 266.096 56.1854 266.013 58.784 265.242C58.9888 265.242 59.1936 265.293 59.424 265.325C57.5925 265.9 55.6793 266.172 53.76 266.131C51.104 266.054 49.0176 264.922 46.5408 264.147C46.0032 263.981 44.3264 263.354 44.3584 264.314C44.3584 264.954 46.176 265.958 46.5664 266.176C47.8554 266.928 49.2518 267.478 50.7072 267.808C54.0352 268.518 57.0112 266.765 59.904 265.299L59.9488 265.344Z" fill="#F5EEE5"/>
<path d="M62.7521 266.605L62.8865 267.021C62.8944 267.036 62.8985 267.052 62.8985 267.069C62.8985 267.086 62.8944 267.102 62.8865 267.117C62.8617 267.146 62.8275 267.165 62.79 267.17C62.7525 267.176 62.7141 267.169 62.6817 267.149C62.6576 267.13 62.6416 267.102 62.6369 267.072C62.6369 267.072 62.6369 267.034 62.6369 267.008V266.88C60.8897 265.082 59.4369 263.008 57.6705 261.229C55.9041 259.45 54.1633 257.946 52.6017 256.109C51.6225 254.957 47.0785 248.947 50.4065 248.154C51.8785 247.808 53.7793 249.158 54.8865 249.99C56.3048 251.133 57.5095 252.517 58.4449 254.08C60.8705 257.92 61.4401 262.349 62.7521 266.605Z" fill="#FF8656"/>
<path d="M62.8865 267.021C62.8481 266.905 62.8161 266.797 62.7777 266.688C62.7813 266.662 62.7813 266.636 62.7777 266.611C62.6881 266.445 62.5921 266.285 62.4961 266.131C61.55 263.352 60.4409 260.632 59.1745 257.984C58.4013 256.464 57.4142 255.063 56.2433 253.824C55.8401 253.395 53.8753 251.347 53.1009 251.859C52.5953 252.185 53.1009 253.273 53.2289 253.638C53.8689 255.193 55.1489 256.409 56.2177 257.657C58.3673 260.216 60.3267 262.928 62.0801 265.773L62.3105 266.368L62.5025 266.848L62.5729 267.014C62.5893 267.06 62.6086 267.105 62.6305 267.149C62.6614 267.169 62.6991 267.178 62.736 267.172C62.7728 267.166 62.806 267.146 62.8289 267.117L62.6817 266.733L62.8545 267.021H62.8865ZM58.5089 260.275C57.5553 258.995 56.5441 257.811 55.5073 256.627C54.8983 255.971 54.3439 255.267 53.8497 254.521C53.4977 253.945 52.3521 251.699 54.2465 252.429C55.6161 252.96 56.9857 254.95 57.7601 256.109C58.6111 257.402 59.3416 258.771 59.9425 260.198C60.6401 261.805 61.2225 263.462 61.8625 265.101C60.8171 263.437 59.6993 261.828 58.5089 260.275Z" fill="#F5EEE5"/>
<path d="M69.3632 274.406L69.2544 274.483C66.2528 275.968 62.5152 278.412 59.0144 277.836C56.4544 277.414 53.0944 275.577 52.3264 272.87C51.4624 269.811 56.9088 271.014 58.3104 271.257C62.0408 272.038 65.7245 273.027 69.344 274.22H69.4144C69.4656 274.291 69.4208 274.355 69.3632 274.406Z" fill="#FF8656"/>
<path d="M69.4145 274.265L68.7361 274.233C66.1441 274.099 63.5521 273.849 60.9857 273.472C60.3457 273.376 55.4177 272.288 55.5073 273.606C55.5585 274.406 57.3633 275.091 57.9521 275.334C59.0105 275.763 60.1332 276.012 61.2737 276.07C63.8977 276.198 66.3937 275.142 68.9537 274.496L69.3121 274.406H69.3889C69.4209 274.355 69.4657 274.297 69.4145 274.265ZM62.7201 275.84C61.5555 275.937 60.3828 275.838 59.2513 275.545C58.5025 275.353 55.8017 274.573 55.8593 273.625C55.8593 273.113 56.2049 273.203 56.8001 273.171C57.0708 273.155 57.3422 273.155 57.6129 273.171C58.2529 273.222 58.9441 273.344 59.6033 273.453C60.7638 273.649 61.9244 273.815 63.0849 273.952C65.0049 274.189 66.9249 274.336 68.8449 274.425C66.7713 274.829 64.8001 275.648 62.7201 275.84Z" fill="#F5EEE5"/>
<path d="M71.3408 265.414C72.442 269.182 72.3975 273.192 71.2128 276.934C71.2076 276.957 71.194 276.978 71.1744 276.992C71.1519 277.015 71.1223 277.031 71.0901 277.037C71.0579 277.043 71.0246 277.038 70.9952 277.024C70.9618 277.009 70.9351 276.983 70.9208 276.949C70.9065 276.916 70.9056 276.878 70.9184 276.844C70.9184 276.768 70.9568 276.691 70.9824 276.614C69.248 272.377 67.584 268.134 65.7664 263.929C65.3376 262.937 62.7392 256.556 65.1264 256.505C66.592 256.473 68.032 258.88 68.7424 259.923C69.8853 261.609 70.7617 263.461 71.3408 265.414Z" fill="#FF8656"/>
<path d="M71.3793 273.696C71.3779 272.193 71.2365 270.693 70.9569 269.216C70.6634 267.706 70.2151 266.231 69.6193 264.813C69.0689 263.533 68.3393 261.683 67.3089 260.691C67.0273 260.416 66.6689 260.173 66.4193 260.608C65.9585 261.453 67.2385 264.416 67.5585 265.261C68.8385 268.736 69.8113 272.237 70.7585 275.795L71.0081 276.704C71.0081 276.813 71.0081 276.928 70.9633 277.037C70.989 277.057 71.0205 277.067 71.0529 277.067C71.0853 277.067 71.1168 277.057 71.1425 277.037C71.1455 277.005 71.1455 276.973 71.1425 276.941C71.1425 276.794 71.1873 276.64 71.2001 276.487C71.3184 275.561 71.3783 274.629 71.3793 273.696ZM71.0401 276.48C71.0401 276.352 70.9953 276.231 70.9633 276.109C70.3843 273.302 69.6232 270.536 68.6849 267.827C68.1985 266.451 67.6289 265.12 67.1873 263.731C67.0081 263.149 66.4257 261.504 66.7265 261.018C67.0273 260.531 67.3665 261.12 67.5777 261.434C67.7889 261.747 67.9873 262.074 68.1153 262.323C70.5435 266.543 71.5761 271.421 71.0657 276.263C71.0785 276.327 71.0401 276.397 71.0401 276.48Z" fill="#F5EEE5"/>
<path d="M76.288 284.928H75.52C75.3472 284.627 75.168 284.333 74.9952 284.038C73.7728 282.003 72.5312 279.98 71.2448 277.977C70.5152 276.832 69.7792 275.705 69.0048 274.611C69.0048 274.572 68.9536 274.54 68.928 274.496L68.736 274.233C68.672 274.137 68.5952 274.041 68.5248 273.945C66.7926 271.463 64.6804 269.268 62.2656 267.443C61.4464 266.848 60.608 266.285 59.744 265.741L59.52 265.6L59.456 265.561L59.2064 265.414L59.0208 265.299C56.3456 263.68 53.5296 262.272 50.7904 260.819C50.0032 260.403 49.216 259.981 48.4416 259.539L48.3008 259.462L48.1216 259.372C44.6592 257.491 41.216 255.577 37.7152 253.792C37.5808 253.728 37.7152 253.536 37.8304 253.606C40.1792 254.771 42.5536 255.884 44.9216 257.017L45.8688 257.472L47.7376 258.368C49.0176 258.957 50.208 259.564 51.4368 260.198C54.9633 261.884 58.383 263.784 61.6768 265.888L62.3872 266.393C62.5408 266.496 62.688 266.604 62.8288 266.713C62.9696 266.822 63.168 266.957 63.3344 267.085C66.1421 269.342 68.5333 272.073 70.4 275.155C70.528 275.366 70.6688 275.571 70.8032 275.795L70.9952 276.096L71.0976 276.249C71.136 276.32 71.1808 276.384 71.2256 276.461L71.3216 276.621C71.4368 276.8 71.5456 276.985 71.6608 277.171C72.9024 279.202 74.1206 281.239 75.3152 283.283L76.288 284.928Z" fill="#FF8656"/>
<path d="M38.0865 257.401C35.2897 256.121 30.7649 252.851 31.8337 249.235C32.0123 248.55 32.438 247.955 33.0288 247.566C33.6195 247.176 34.3337 247.018 35.0337 247.123C36.7809 247.328 38.2849 248.717 39.4753 249.901C42.6753 253.056 45.5105 256.486 48.9153 259.417C48.9153 259.417 49.2033 259.673 49.2801 259.731C49.3569 259.789 49.2801 259.897 49.1777 259.84L48.8449 259.552C45.2673 259.123 41.4017 258.893 38.0865 257.401Z" fill="#FF8656"/>
<path d="M48.9409 259.418L48.8641 259.379C47.812 258.799 46.7948 258.158 45.8177 257.459C43.8003 255.952 41.8767 254.324 40.0577 252.582C39.3537 251.942 36.0001 248.614 35.4689 250.97C35.2449 251.968 35.9809 253.094 36.5313 253.85C37.4164 255.065 38.5347 256.092 39.8209 256.87C42.3809 258.445 45.2993 259.072 48.2241 259.43L48.6209 259.482L48.7297 259.546L48.8065 259.584C48.8143 259.588 48.8231 259.591 48.8321 259.591C48.8411 259.591 48.8499 259.588 48.8577 259.584C48.8712 259.582 48.8842 259.578 48.8961 259.571C48.9079 259.565 48.9183 259.556 48.9266 259.545C48.935 259.534 48.9411 259.522 48.9446 259.509C48.9482 259.496 48.9491 259.482 48.9473 259.469C48.9507 259.451 48.9484 259.434 48.9409 259.418ZM48.0705 259.334C45.6367 259.023 43.2635 258.348 41.0305 257.331C39.8848 256.765 38.8282 256.034 37.8945 255.162C37.4859 254.767 37.1112 254.339 36.7745 253.882C36.5201 253.543 36.2994 253.181 36.1153 252.8C35.6865 251.974 35.5265 250.88 35.9617 250.547C36.4929 250.112 36.8833 250.349 37.6577 250.81C37.9187 250.965 38.1688 251.139 38.4065 251.328C39.0011 251.798 39.5715 252.298 40.1153 252.826C41.0305 253.683 41.9457 254.534 42.8929 255.354C43.5329 255.91 44.1729 256.454 44.8705 256.966C46.0312 257.858 47.2523 258.669 48.5249 259.392L48.0705 259.334Z" fill="#F5EEE5"/>
<path d="M266.727 256.48C265.146 258.355 263.437 260.128 261.715 261.875C260.736 262.873 259.751 263.852 258.771 264.851C257.696 265.945 256.487 266.988 256 268.486C255.973 268.55 255.941 268.612 255.904 268.672H255.872C255.841 268.68 255.808 268.681 255.776 268.673C255.745 268.665 255.716 268.649 255.692 268.626C255.669 268.603 255.652 268.575 255.643 268.544C255.634 268.512 255.634 268.479 255.642 268.448C255.65 268.415 255.66 268.383 255.674 268.352C255.674 268.352 255.674 268.352 255.674 268.313C255.704 267.855 255.788 267.402 255.923 266.963C256.638 263.233 257.996 259.655 259.936 256.39C261.124 254.443 262.566 252.663 264.224 251.097C265.555 249.849 267.514 247.968 269.344 247.552C271.015 247.174 270.784 249.363 270.528 250.387C269.959 252.723 268.224 254.72 266.727 256.48Z" fill="#FF8656"/>
<path d="M267.718 250.95C266.97 250.464 264.864 252.518 263.923 253.389C262.44 254.757 261.131 256.302 260.026 257.99C258.057 261.032 256.62 264.387 255.776 267.91C255.738 268.051 255.699 268.192 255.667 268.333C255.667 268.333 255.667 268.365 255.667 268.378C255.666 268.41 255.666 268.442 255.667 268.474C255.658 268.506 255.658 268.54 255.666 268.572C255.675 268.604 255.693 268.634 255.718 268.656C255.743 268.679 255.773 268.694 255.806 268.7C255.839 268.707 255.873 268.703 255.904 268.691C256.004 268.436 256.117 268.186 256.243 267.942C256.251 267.916 256.262 267.89 256.275 267.866C256.307 267.808 256.333 267.744 256.371 267.686C256.454 267.501 256.55 267.322 256.646 267.149C258.035 264.589 260.013 262.291 261.901 260.064C264.09 257.453 268.704 251.597 267.718 250.95ZM266.701 253.395C266.483 253.773 266.246 254.138 266.003 254.502C265.51 255.245 264.966 255.962 264.422 256.666C263.226 258.195 261.946 259.661 260.698 261.146C258.946 263.096 257.428 265.244 256.173 267.546C255.994 267.904 255.834 268.262 255.686 268.627C255.763 268.339 255.84 268.051 255.923 267.77C256.758 264.691 258.005 261.74 259.629 258.995C260.558 257.455 261.648 256.018 262.88 254.707C263.543 254.009 264.246 253.351 264.986 252.736C265.299 252.48 267.155 250.816 267.546 251.219C267.827 251.52 266.72 253.357 266.701 253.395Z" fill="#F5EEE5"/>
<path d="M274.803 269.76C271.699 271.539 268.064 272.089 264.563 272.32C262.682 272.429 260.787 272.448 258.899 272.512C257.209 272.473 255.519 272.608 253.856 272.915L253.638 272.966C253.18 273.089 252.736 273.26 252.314 273.478C252.3 273.485 252.284 273.488 252.269 273.488C252.253 273.488 252.238 273.485 252.224 273.478L252.102 273.568C252.102 273.568 252.032 273.568 252.058 273.523L252.16 273.395C252.157 273.373 252.16 273.351 252.171 273.331C252.181 273.311 252.198 273.296 252.218 273.286H252.269C252.307 273.248 252.339 273.203 252.371 273.165C254.79 270.297 259.027 268.563 262.438 267.353C265.85 266.144 269.478 265.51 273.069 266.259C273.965 266.451 276.09 266.752 276.442 267.808C276.794 268.864 275.462 269.382 274.803 269.76Z" fill="#FF8656"/>
<path d="M272.679 268.397C272.448 267.328 269.479 267.686 268.768 267.757C266.58 267.994 264.417 268.422 262.304 269.037C258.838 269.855 255.522 271.216 252.48 273.069L252.359 273.107L252.25 273.229H252.199C252.178 273.239 252.161 273.256 252.151 273.277C252.14 273.298 252.137 273.321 252.141 273.344L252.307 273.293C252.736 273.152 253.171 273.03 253.587 272.922L253.805 272.864C256.881 272.207 259.995 271.745 263.13 271.482C265.311 271.258 267.467 270.829 269.568 270.202C270.125 270.08 272.871 269.299 272.679 268.397ZM271.149 269.44C267.795 271.072 263.725 271.206 260.077 271.616C257.614 271.833 255.177 272.286 252.8 272.966C255.617 271.399 258.63 270.213 261.76 269.44C263.525 268.931 265.318 268.523 267.13 268.218C268.11 268.042 269.103 267.944 270.099 267.923C270.696 267.902 271.293 267.952 271.879 268.07C272.947 268.378 271.725 269.158 271.149 269.44Z" fill="#F5EEE5"/>
<path d="M247.718 279.533C247.69 279.547 247.658 279.554 247.626 279.554C247.593 279.554 247.562 279.547 247.533 279.533V279.603C247.535 279.611 247.536 279.619 247.534 279.626C247.532 279.634 247.529 279.641 247.524 279.647C247.519 279.652 247.512 279.657 247.505 279.659C247.497 279.662 247.489 279.662 247.482 279.661C247.475 279.664 247.468 279.666 247.46 279.665C247.453 279.665 247.446 279.663 247.439 279.659C247.433 279.655 247.428 279.65 247.424 279.643C247.42 279.637 247.418 279.63 247.418 279.622C246.56 275.398 246.138 270.662 247.11 266.451C247.503 264.661 248.184 262.947 249.126 261.376C249.766 260.307 251.098 258.176 252.499 257.971C255.302 257.613 252.71 265.21 252.314 266.355C251.597 268.442 250.707 270.458 249.946 272.531C249.12 274.797 248.454 277.12 247.795 279.443C247.782 279.482 247.755 279.514 247.718 279.533Z" fill="#FF8656"/>
<path d="M251.456 260.774C250.912 260.941 249.453 263.744 249.133 264.506C248.432 266.253 247.946 268.08 247.687 269.946C247.216 273.068 247.139 276.237 247.456 279.379C247.456 279.475 247.456 279.565 247.456 279.654C247.464 279.654 247.471 279.651 247.478 279.648C247.484 279.644 247.49 279.639 247.495 279.633C247.5 279.627 247.503 279.62 247.506 279.613C247.508 279.606 247.508 279.598 247.507 279.59C247.504 279.569 247.504 279.548 247.507 279.526H247.559C247.581 279.536 247.605 279.541 247.629 279.541C247.653 279.541 247.677 279.536 247.699 279.526C247.699 279.296 247.699 279.072 247.738 278.842C247.985 275.11 248.81 271.44 250.183 267.962C250.917 266.23 251.508 264.44 251.949 262.611C252.058 262.15 252.512 260.48 251.456 260.774ZM251.84 262.323C251.756 262.931 251.612 263.529 251.411 264.109C251.136 264.928 250.842 265.741 250.528 266.554C249.888 268.173 249.248 269.792 248.781 271.456C248.06 273.839 247.657 276.308 247.584 278.797C247.421 276.376 247.46 273.947 247.699 271.533C247.866 269.671 248.231 267.832 248.787 266.048C249.015 265.342 249.285 264.649 249.594 263.974C249.832 263.443 250.108 262.93 250.419 262.438C251.207 261.248 251.501 261.005 251.699 261.088C251.898 261.171 251.955 261.382 251.84 262.323Z" fill="#F5EEE5"/>
<path d="M259.91 278.547C258.796 279.61 257.464 280.42 256.006 280.921C253.152 282.016 250.112 282.496 247.2 283.385C246.765 283.52 246.33 283.667 245.92 283.82C245.869 283.82 245.402 284.147 245.427 284.115L245.805 283.718C246.963 282.515 250.522 278.924 252.979 277.504C254.494 276.577 256.117 275.84 257.811 275.308C258.624 275.084 260.454 274.668 261.114 275.443C261.773 276.217 260.48 277.971 259.91 278.547Z" fill="#FF8656"/>
<path d="M259.117 276.838C258.592 275.725 253.696 278.298 253.05 278.624C250.666 279.822 248.449 281.328 246.458 283.104C246.227 283.296 246.01 283.501 245.818 283.706L245.491 284.051L245.447 284.096C245.498 284.075 245.547 284.05 245.594 284.019L245.696 283.955L245.837 283.866L245.933 283.808L246.151 283.731L246.579 283.584L247.219 283.379C249.139 282.547 251.117 281.747 253.043 280.87C254.436 280.252 255.778 279.524 257.056 278.694C257.325 278.515 259.347 277.325 259.117 276.838ZM258.125 277.818C254.586 280.525 250.234 281.658 246.253 283.501L246.055 283.59L246.317 283.373C247.995 281.937 249.806 280.664 251.725 279.571C252.896 278.911 254.106 278.321 255.347 277.805C256.017 277.494 256.705 277.224 257.408 276.998C257.722 276.922 258.579 276.729 258.688 276.934C258.797 277.139 258.355 277.638 258.125 277.818Z" fill="#F5EEE5"/>
<path d="M287.622 255.219C281.107 259.526 272.442 257.862 265.709 261.715H265.677C265.472 261.83 265.259 261.952 265.037 262.08C265.017 262.093 264.994 262.101 264.971 262.103C264.947 262.105 264.923 262.101 264.902 262.092C264.88 262.082 264.861 262.067 264.847 262.048C264.832 262.03 264.823 262.007 264.819 261.984C264.818 261.962 264.822 261.94 264.832 261.921C264.842 261.902 264.858 261.886 264.877 261.875L265.024 261.786C267.827 258.483 271.725 255.731 275.514 253.664C278.816 251.878 282.554 250.624 286.342 251.014C287.277 251.11 289.146 251.238 289.542 252.346C289.939 253.453 288.422 254.72 287.622 255.219Z" fill="#FF8656"/>
<path d="M285.101 253.952C284.928 253.491 284.23 253.465 283.821 253.427C282.868 253.333 281.908 253.355 280.96 253.491C279.017 253.777 277.128 254.351 275.354 255.193C272.277 256.54 269.377 258.26 266.72 260.313C266.131 260.787 265.562 261.28 265.018 261.805L264.813 261.997C264.817 262.02 264.827 262.042 264.841 262.06C264.855 262.079 264.874 262.094 264.895 262.104C264.916 262.114 264.94 262.119 264.963 262.118C264.987 262.117 265.01 262.111 265.03 262.099C265.222 261.977 265.402 261.869 265.594 261.76L265.651 261.728C266.938 260.86 268.305 260.119 269.734 259.513C271.996 258.668 274.309 257.969 276.659 257.421C277.632 257.171 285.702 255.539 285.101 253.952ZM283.782 255.072C282.074 255.968 280.096 256.313 278.24 256.813C276.384 257.312 274.496 257.805 272.634 258.342C271.152 258.762 269.709 259.308 268.32 259.974C267.16 260.528 266.052 261.185 265.011 261.939C265.95 261.093 266.944 260.31 267.987 259.597C268 259.592 268.013 259.592 268.026 259.597C269.889 258.341 271.83 257.204 273.837 256.192L273.914 256.153C275.657 255.216 277.507 254.492 279.424 253.997C280.471 253.738 281.545 253.601 282.624 253.587C283.84 253.587 284.826 253.715 284.864 254.131C284.877 254.393 284.288 254.809 283.782 255.072Z" fill="#F5EEE5"/>
<path d="M273.92 256.326C272.039 257.51 270.17 258.739 268.314 259.974L265.703 261.721L265.645 261.753L264.73 262.393C261.888 264.313 258.893 266.176 256.41 268.518C255.104 269.762 253.919 271.127 252.871 272.595L252.538 273.049L252.365 273.299C252.327 273.344 252.301 273.395 252.269 273.44C251.367 274.72 250.528 276.057 249.709 277.356C248.576 279.168 247.578 281.036 246.599 282.924C246.564 282.976 246.537 283.032 246.515 283.091C246.464 283.174 246.419 283.257 246.375 283.347C246.351 283.388 246.329 283.431 246.311 283.475L246.176 283.718L245.536 284.902H244.762C245.523 283.031 246.415 281.215 247.431 279.468C247.448 279.43 247.47 279.394 247.495 279.36C247.591 279.18 247.699 278.995 247.802 278.822C247.904 278.649 248.051 278.387 248.186 278.182C248.506 277.664 248.826 277.145 249.133 276.64C250.983 273.683 252.973 270.649 255.533 268.198L255.744 268C255.771 267.969 255.801 267.941 255.834 267.916L255.981 267.769L256.231 267.545L256.679 267.155L256.813 267.04C259.273 265.093 261.862 263.316 264.563 261.721C265.043 261.42 265.517 261.12 266.003 260.825L266.803 260.339L268.039 259.609C268.051 259.605 268.064 259.605 268.077 259.609C269.997 258.464 271.962 257.363 273.888 256.204C273.92 256.121 274.016 256.275 273.92 256.326Z" fill="#FF8656"/>
<path d="M228.934 230.086C228.934 230.086 240.813 264.512 246.662 278.489C247.703 280.756 249.2 282.785 251.059 284.448C252.051 285.44 290.771 284.589 291.482 284.448C292.192 284.307 287.36 275.014 284.672 273.741C281.984 272.467 261.555 276.217 261.555 276.217C261.555 276.217 260.8 235.801 261.037 234.573C261.195 233.085 261.257 231.588 261.222 230.093L261.696 236.281C261.696 236.281 263.066 231.648 263.117 229.517C263.168 227.385 261.837 206.355 261.837 206.355L228.934 230.086Z" fill="#D56E45"/>
<path d="M282.445 278.278C284.454 279.558 286.643 282.118 285.805 284.678C285.67 282.118 283.84 280.32 282.445 278.278Z" fill="#1C1C1C"/>
<path d="M286.413 278.042C288.429 279.322 290.618 281.882 289.779 284.442C289.638 281.882 287.814 280.083 286.413 278.042Z" fill="#1C1C1C"/>
<path opacity="0.1" d="M262.33 214.4C258.579 221.728 253.03 229.555 251.13 231.181C245.566 235.611 239.686 239.628 233.536 243.2C230.854 235.635 228.934 230.074 228.934 230.074L261.837 206.336C261.837 206.336 262.067 209.99 262.33 214.4Z" fill="#1C1C1C"/>
<path d="M108.346 255.565L106.054 264.736C86.9823 250.016 68.8511 226.278 62.0479 203.693C60.5823 198.803 57.2287 188.205 57.1647 183.853C57.0943 179.264 59.5071 172.659 59.7247 172.128C59.6607 172.614 58.8991 178.643 59.7247 183.776C59.7631 182.95 59.8271 182.144 59.9167 181.331C62.8159 154.899 99.9487 132.134 99.9487 132.134C99.9487 132.134 81.9071 159.654 84.0127 196.134C84.7551 209.024 89.3695 221.824 94.3743 232.23C92.0639 227.174 89.8943 218.976 89.7919 218.47C90.1759 219.385 100.506 243.686 104.378 249.869L104.768 250.47C104.87 250.617 104.954 250.745 105.03 250.867C107.04 253.862 108.346 255.565 108.346 255.565Z" fill="#D56E45"/>
<path opacity="0.1" d="M108.346 255.565L106.054 264.736C103.629 262.867 101.222 260.858 98.8607 258.714L102.4 246.33C103.149 247.789 103.808 248.998 104.352 249.862L104.742 250.464C104.845 250.611 104.928 250.739 105.005 250.861C107.04 253.862 108.346 255.565 108.346 255.565Z" fill="#1C1C1C"/>
<path d="M102.573 268.685C102.816 271.943 102.15 284.288 114.483 284.288H175.469C183.411 284.288 239.2 238.464 248.602 227.84C258.003 217.216 266.093 204.442 267.226 194.227C268.358 184.013 257.536 137.645 245.76 115.943C245.76 115.943 245.664 105.735 242.97 97.5105C240.275 89.2865 232.768 77.5105 224.256 74.8161C215.744 72.1217 176.038 78.9313 172.064 86.7265C168.09 94.5217 168.378 108.288 168.378 108.288C168.378 108.288 134.202 122.893 134.342 125.306C134.483 127.719 147.955 142.183 159.302 143.315C170.65 144.448 192.486 135.802 192.486 135.802C192.486 135.802 193.478 139.911 192.346 143.597C191.213 147.283 162.419 186.867 157.146 190.759C151.872 194.65 122.88 205.293 116.48 216.211C110.08 227.13 101.299 251.52 102.573 268.685Z" fill="#FFD75F"/>
<path d="M102.573 268.685C102.816 271.943 102.15 284.288 114.483 284.288H175.469C183.411 284.288 239.2 238.464 248.602 227.84C258.003 217.216 266.093 204.442 267.226 194.227C268.358 184.013 257.536 137.645 245.76 115.943C245.76 115.943 245.664 105.735 242.97 97.5105C240.275 89.2865 232.768 77.5105 224.256 74.8161C215.744 72.1217 176.038 78.9313 172.064 86.7265C168.09 94.5217 168.378 108.288 168.378 108.288C168.378 108.288 134.202 122.893 134.342 125.306C134.483 127.719 147.955 142.183 159.302 143.315C170.65 144.448 192.486 135.802 192.486 135.802C192.486 135.802 193.478 139.911 192.346 143.597C191.213 147.283 162.419 186.867 157.146 190.759C151.872 194.65 122.88 205.293 116.48 216.211C110.08 227.13 101.299 251.52 102.573 268.685Z" fill="#D56E45"/>
<path opacity="0.1" d="M122.15 214.931C117.606 220.896 112.243 255.219 118.041 267.411C122.976 277.786 150.995 283.45 167.814 284.294H114.489C102.144 284.294 102.809 271.949 102.573 268.691C101.293 251.533 110.086 227.136 116.473 216.211C122.861 205.286 151.923 194.656 157.177 190.758C162.432 186.861 191.213 147.283 192.377 143.597C193.542 139.91 192.525 135.802 192.525 135.802C192.525 135.802 201.203 131.693 204.403 129.92C204.403 129.92 206.681 138.24 206.688 142.931C206.694 147.622 167.648 190.291 160.941 193.402C154.233 196.512 126.72 208.979 122.15 214.931Z" fill="#1C1C1C"/>
<path opacity="0.2" d="M149.305 194.938C148.441 205.523 143.129 221.062 135.187 229.926C127.123 238.931 111.053 240.307 106.528 240.518C109.376 230.746 113.235 221.747 116.473 216.198C121.235 208.077 138.598 200.09 149.305 194.938Z" fill="#1C1C1C"/>
<path opacity="0.2" d="M157.389 199.597C158.323 203.705 166.605 204.371 170.579 202.598C174.554 200.825 176.819 194.598 173.555 190.758C170.291 186.918 156.25 194.611 157.389 199.597Z" fill="#1C1C1C"/>
<path opacity="0.2" d="M186.739 166.79C186.528 171.821 182.137 179.91 177.382 181.51C173.856 182.726 169.305 181.702 166.969 179.405C172.281 172.614 178.63 164.013 183.654 156.902C185.843 158.554 186.88 163.053 186.739 166.79Z" fill="#1C1C1C"/>
<path opacity="0.1" d="M241.062 176.64C241.901 172.691 242.406 168.582 241.939 164.697C241.927 164.618 241.942 164.538 241.982 164.468C242.022 164.399 242.085 164.346 242.159 164.316C242.234 164.287 242.316 164.285 242.392 164.308C242.469 164.332 242.535 164.382 242.579 164.448C243.174 165.088 244.851 166.912 245.101 167.193C245.101 166.95 245.101 166.707 245.056 166.477C244.986 165.664 244.877 164.857 244.736 164.064C244.435 162.462 244.007 160.887 243.456 159.353C242.904 157.824 242.223 156.345 241.421 154.931C240.608 153.497 239.635 152.179 238.701 150.809C238.662 150.752 238.771 150.675 238.829 150.726C240.108 151.873 241.227 153.186 242.157 154.63C243.077 155.992 243.87 157.436 244.525 158.944C245.18 160.468 245.686 162.052 246.035 163.673C246.214 164.518 246.349 165.363 246.445 166.233C246.595 167.069 246.595 167.926 246.445 168.761C246.31 169.312 245.498 169.229 245.267 168.845C245.126 168.608 243.002 165.997 242.675 165.645C243.091 169.391 242.642 173.183 241.363 176.729C241.312 176.877 241.024 176.819 241.062 176.64Z" fill="#1C1C1C"/>
<path opacity="0.1" d="M192.147 135.373C191.622 135.584 190.483 136.013 188.915 136.576L192.147 135.373Z" fill="#1C1C1C"/>
<path d="M174.08 277.178C174.08 277.178 172.454 282.938 173.702 284.218C174.95 285.498 227.878 284.858 227.974 284.218C228.07 283.578 219.846 272.448 214.643 271.878C209.44 271.309 192.806 276.134 192.806 276.134C192.806 276.134 223.194 238.272 214.272 215.68C210.349 205.728 186.816 201.856 156.672 214.029C129.267 225.088 135.872 274.278 150.912 279.667C165.952 285.056 174.08 277.178 174.08 277.178Z" fill="#D56E45"/>
<path d="M158.573 213.069C172.147 207.597 200.365 199.917 212.083 211.539C221.44 221.44 215.04 238.835 209.92 249.472C205.181 258.937 199.444 267.869 192.806 276.115C195.904 271.84 198.829 267.449 201.536 262.931C208.87 250.605 222.176 226.285 211.891 213.081C201.203 200.921 172.077 208.441 158.605 213.081L158.573 213.069Z" fill="#1C1C1C"/>
<path d="M164.192 209.094C167.144 208.214 170.262 208.041 173.293 208.589C170.27 208.917 167.232 209.086 164.192 209.094Z" fill="#1C1C1C"/>
<path d="M173.85 284.288C173.668 284.21 173.513 284.083 173.4 283.921C173.287 283.759 173.221 283.569 173.21 283.372C173.048 282.221 173.012 281.056 173.101 279.897C173.377 276.059 173.996 272.253 174.95 268.525C175.149 267.782 175.334 267.04 175.59 266.304C175.501 267.065 175.379 267.827 175.283 268.589C175.072 270.016 174.477 273.92 174.246 275.398C173.914 277.664 173.53 279.929 173.408 282.214C173.408 282.912 173.178 283.865 173.901 284.288H173.85Z" fill="#1C1C1C"/>
<path d="M173.914 267.328C174.17 268.646 174.298 270.009 174.445 271.321C174.835 274.169 173.741 271.136 173.664 270.041C173.538 269.121 173.624 268.185 173.914 267.302V267.328Z" fill="#1C1C1C"/>
<path d="M217.248 278.278C219.264 279.558 221.453 282.118 220.614 284.678C220.474 282.118 218.65 280.32 217.248 278.278Z" fill="#1C1C1C"/>
<path d="M221.222 278.042C223.232 279.322 225.421 281.882 224.582 284.442C224.448 281.882 222.624 280.083 221.222 278.042Z" fill="#1C1C1C"/>
<path d="M245.76 115.386C245.76 115.386 247.258 100.845 247.936 99.6032C248.614 98.3616 255.77 96.6272 257.754 98.08C259.738 99.5328 246.765 116.525 246.765 116.525L245.76 115.386Z" fill="#FFD75F"/>
<path d="M249.101 113.382C248.921 113.638 248.742 113.875 248.582 114.106C247.712 113.779 246.861 113.466 246.022 113.178C246.022 112.902 246.086 112.614 246.118 112.307C247.1 112.644 248.094 113.003 249.101 113.382ZM251.245 106.342C249.798 105.824 248.39 105.325 247.001 104.858C246.963 105.139 246.925 105.427 246.893 105.722C248.237 106.182 249.613 106.656 251.014 107.168L251.814 107.462C252.205 107.597 252.601 107.744 252.992 107.898L253.485 107.168C252.998 106.982 252.525 106.803 252.045 106.643C251.769 106.496 251.52 106.406 251.245 106.31V106.342ZM253.977 99.4815L253.177 99.1999C252.307 98.8863 251.437 98.5599 250.617 98.2975C250.137 98.4447 249.696 98.5983 249.337 98.7583C250.541 99.1679 251.769 99.5839 253.024 100.038L253.817 100.32C254.867 100.691 255.923 101.088 257.017 101.498C257.152 101.222 257.28 100.966 257.395 100.717C256.217 100.269 255.078 99.8463 253.977 99.4495V99.4815ZM253.568 97.6767L253.177 99.1999C253.107 99.4751 253.03 99.7503 252.966 100.032C252.429 102.042 251.855 104.145 251.245 106.342L251.014 107.168C250.457 109.133 249.862 111.162 249.235 113.235C249.709 112.595 250.221 111.885 250.745 111.136C251.117 109.888 251.475 108.659 251.814 107.462L252.045 106.643C252.685 104.442 253.235 102.323 253.76 100.314C253.843 100.038 253.913 99.7567 253.977 99.4815C254.15 98.8415 254.31 98.2015 254.477 97.5935C254.176 97.5743 253.875 97.6127 253.568 97.6447V97.6767Z" fill="#4C4C4C"/>
<path opacity="0.3" d="M245.76 115.385C245.76 115.385 247.405 100.025 250.24 99.7117C253.075 99.3981 246.816 113.542 245.76 115.385Z" fill="#1C1C1C"/>
<path d="M246.451 115.245C246.451 115.245 257.113 110.765 258.233 110.65C260.313 110.458 262.432 114.227 262.195 116.166C261.958 118.106 246.048 116.384 246.048 116.384L246.451 115.245Z" fill="#FFD75F"/>
<path d="M259.654 111.072L258.253 111.789L257.504 112.179C257.606 112.442 257.715 112.704 257.824 112.973L258.586 112.582C259.181 112.275 259.77 111.974 260.346 111.667C260.136 111.446 259.904 111.246 259.654 111.072ZM258.56 112.582L258.227 111.789C258.08 111.43 257.946 111.085 257.792 110.739L256.992 111.002L257.478 112.179C257.581 112.442 257.69 112.704 257.798 112.973C258.336 114.291 258.869 115.642 259.398 117.024C259.712 117.024 260.038 116.979 260.275 116.947C259.738 115.462 259.155 114.003 258.56 112.582Z" fill="#4C4C4C"/>
<path d="M251.968 115.904C252.102 116.237 252.23 116.582 252.371 116.915L251.43 116.851L251.2 116.282C250.874 116.435 250.56 116.595 250.221 116.762L248.531 116.621L250.886 115.488C250.643 114.88 250.4 114.291 250.157 113.702L250.944 113.382L251.642 115.11C253.69 114.106 255.654 113.126 257.504 112.179C257.606 112.442 257.715 112.704 257.824 112.973C256 113.92 254.016 114.899 251.968 115.904Z" fill="#4C4C4C"/>
<path opacity="0.3" d="M246.451 115.245C246.451 115.245 257.754 110.432 259.053 112.288C260.352 114.144 248.134 115.264 246.451 115.245Z" fill="#1C1C1C"/>
<path d="M192.288 135.603C192.851 137.664 234.464 148.781 237.658 147.296C240.045 146.182 248.41 117.12 246.502 114.509C245.696 113.408 244.102 116.134 224.538 124.365C215.462 128.185 191.827 133.939 192.288 135.603Z" fill="#FFD75F"/>
<path d="M198.189 132.877C198.19 132.86 198.19 132.843 198.189 132.826L197.389 133.107C197.386 133.122 197.386 133.137 197.389 133.152C197.53 133.555 197.696 133.971 197.837 134.387C198.112 134.31 198.387 134.234 198.669 134.17C198.502 133.76 198.342 133.299 198.189 132.877ZM198.957 134.97L198.138 135.2C198.528 136.294 198.931 137.414 199.334 138.566L200.339 138.886C199.878 137.542 199.418 136.23 198.957 134.97ZM208.39 139.731C208.307 139.456 208.211 139.194 208.128 138.925C207.418 136.826 206.707 134.803 206.01 132.883C205.907 132.614 205.811 132.346 205.722 132.083L205.197 130.688L204.371 130.944C204.544 131.392 204.723 131.866 204.89 132.333C204.992 132.595 205.088 132.858 205.19 133.133C205.888 135.053 206.605 137.082 207.309 139.181C207.398 139.443 207.494 139.718 207.578 139.994L207.962 141.152L208.947 141.427C208.768 140.858 208.576 140.282 208.39 139.731ZM222.368 135.04L221.562 135.328C222.231 137.303 222.893 139.347 223.546 141.459C223.821 141.37 224.083 141.274 224.358 141.171C223.712 139.091 223.034 137.043 222.368 135.04ZM222.368 135.04L221.562 135.328C222.231 137.303 222.893 139.347 223.546 141.459C223.821 141.37 224.083 141.274 224.358 141.171C223.712 139.091 223.034 137.043 222.368 135.04ZM222.368 135.04L221.562 135.328C222.231 137.303 222.893 139.347 223.546 141.459C223.821 141.37 224.083 141.274 224.358 141.171C223.712 139.091 223.034 137.043 222.368 135.04ZM215.411 137.459C215.315 137.184 215.232 136.915 215.136 136.64C214.419 134.534 213.696 132.506 212.998 130.586C212.896 130.323 212.794 130.054 212.698 129.792L212.23 128.512C211.955 128.602 211.68 128.685 211.398 128.762C211.565 129.19 211.718 129.613 211.885 130.042C211.981 130.31 212.083 130.579 212.186 130.854C212.896 132.774 213.613 134.797 214.317 136.902C214.413 137.165 214.502 137.44 214.592 137.709C215.232 139.539 215.821 141.434 216.41 143.366L217.286 143.59H217.382C217.386 143.573 217.386 143.556 217.382 143.539C216.73 141.51 216.077 139.462 215.411 137.485V137.459ZM222.368 135.04L221.562 135.328C222.231 137.303 222.893 139.347 223.546 141.459C223.821 141.37 224.083 141.274 224.358 141.171C223.712 139.091 223.034 137.043 222.368 135.04ZM222.368 135.04L221.562 135.328C222.231 137.303 222.893 139.347 223.546 141.459C223.821 141.37 224.083 141.274 224.358 141.171C223.712 139.091 223.034 137.043 222.368 135.04ZM222.368 135.04L221.562 135.328C222.231 137.303 222.893 139.347 223.546 141.459C223.821 141.37 224.083 141.274 224.358 141.171C223.712 139.091 223.034 137.043 222.368 135.04ZM225.67 145.6C225.316 144.38 224.96 143.172 224.602 141.978C224.518 141.709 224.435 141.434 224.358 141.171C223.718 139.066 223.034 137.018 222.368 135.04C222.278 134.765 222.182 134.502 222.086 134.227C221.363 132.115 220.627 130.08 219.923 128.173C219.821 127.898 219.718 127.635 219.622 127.366C219.488 127.002 219.347 126.643 219.213 126.298L218.406 126.566C218.541 126.925 218.675 127.296 218.816 127.661C218.918 127.917 219.008 128.186 219.11 128.461C219.827 130.381 220.55 132.403 221.286 134.515C219.27 135.232 217.216 135.949 215.136 136.64C215.232 136.915 215.315 137.184 215.411 137.459C217.498 136.762 219.546 136.045 221.562 135.328C222.231 137.303 222.893 139.347 223.546 141.459C223.635 141.734 223.718 141.997 223.795 142.272C224.109 143.296 224.435 144.326 224.717 145.376L225.67 145.6ZM233.35 145.651C232.774 143.539 232.166 141.459 231.526 139.43C233.632 138.63 235.674 137.837 237.632 137.05C237.542 136.781 237.453 136.512 237.37 136.25C235.418 137.024 233.376 137.818 231.277 138.618C230.637 136.506 229.933 134.451 229.254 132.48C229.152 132.205 229.062 131.936 228.973 131.667C228.237 129.542 227.494 127.514 226.765 125.606C226.662 125.331 226.56 125.069 226.47 124.8C226.323 124.429 226.176 124.07 226.042 123.699C225.786 123.827 225.549 123.93 225.318 124.038C225.318 124.038 225.286 124.038 225.267 124.038C225.414 124.397 225.549 124.755 225.683 125.12L225.99 125.926C226.707 127.846 227.45 129.856 228.192 131.981C226.212 132.736 224.179 133.489 222.093 134.24C222.189 134.515 222.285 134.778 222.374 135.053C224.454 134.298 226.496 133.549 228.474 132.8C229.158 134.771 229.837 136.826 230.496 138.938C230.579 139.206 230.669 139.469 230.752 139.744C231.383 141.771 231.989 143.842 232.57 145.958C232.646 146.234 232.723 146.509 232.794 146.778C232.794 146.854 232.826 146.938 232.851 147.014L233.773 147.155C233.715 146.931 233.651 146.701 233.594 146.515L233.35 145.651ZM238.419 136.736C238.336 136.461 238.246 136.198 238.163 135.923C237.476 133.811 236.787 131.761 236.096 129.773C236.006 129.51 235.91 129.235 235.814 128.973C235.059 126.835 234.298 124.794 233.574 122.899C233.472 122.624 233.37 122.374 233.267 122.106C233.088 121.645 232.909 121.197 232.736 120.749L231.962 121.101C232.134 121.536 232.301 121.978 232.48 122.432L232.781 123.226C233.517 125.146 234.266 127.155 235.021 129.286C235.117 129.555 235.213 129.824 235.302 130.099C236.006 132.07 236.695 134.12 237.37 136.25C237.453 136.512 237.542 136.781 237.632 137.05C238.272 139.072 238.912 141.152 239.494 143.27C239.533 143.43 239.578 143.59 239.629 143.763C239.712 143.558 239.802 143.334 239.885 143.123C239.968 142.912 240.058 142.694 240.141 142.483C239.597 140.538 239.027 138.63 238.432 136.762L238.419 136.736ZM242.899 126.944C242.797 126.682 242.701 126.406 242.605 126.144C241.83 123.994 241.062 121.965 240.326 120.077L240.019 119.29C239.782 118.701 239.558 118.131 239.341 117.581L238.573 117.958C238.79 118.496 239.014 119.053 239.213 119.622C239.315 119.878 239.418 120.147 239.52 120.41C240.25 122.33 241.018 124.333 241.805 126.483C241.888 126.746 241.984 127.014 242.086 127.277C242.592 128.685 243.091 130.144 243.597 131.642C243.731 131.149 243.866 130.662 243.994 130.17C243.661 129.094 243.283 128 242.912 126.97L242.899 126.944ZM246.707 116.339C246.47 115.744 246.067 114.88 245.837 114.278C245.562 114.362 245.295 114.467 245.037 114.592C245.299 115.232 245.677 116.07 245.933 116.691C246.035 116.947 246.138 117.21 246.24 117.485C246.342 117.76 246.47 118.054 246.592 118.355C246.643 117.971 246.675 117.613 246.707 117.28C246.739 116.947 246.752 116.717 246.758 116.467C246.758 116.442 246.739 116.41 246.72 116.365L246.707 116.339ZM197.837 134.4C196.045 134.899 194.248 135.375 192.448 135.827C192.499 135.872 192.557 135.91 192.627 135.962L192.864 136.109C193.07 136.233 193.284 136.345 193.504 136.442C195.044 136.053 196.584 135.644 198.125 135.213C198.035 134.925 197.939 134.656 197.837 134.4ZM246.72 116.378C246.464 116.499 246.208 116.621 245.946 116.73C244.134 117.542 242.17 118.406 240.032 119.328C239.776 119.43 239.514 119.546 239.251 119.661C237.363 120.467 235.379 121.293 233.28 122.144C233.024 122.259 232.762 122.362 232.493 122.47C230.573 123.245 228.563 124.045 226.483 124.838L225.677 125.146C223.718 125.905 221.7 126.658 219.622 127.405L218.816 127.699C216.819 128.416 214.771 129.133 212.698 129.83L211.885 130.093C209.862 130.778 207.802 131.443 205.722 132.09L204.89 132.339C202.835 132.979 200.755 133.581 198.669 134.182C198.758 134.445 198.854 134.72 198.957 134.982C201.056 134.394 203.134 133.779 205.19 133.139C205.466 133.062 205.734 132.979 206.01 132.89C208.104 132.245 210.163 131.584 212.186 130.906C212.896 132.826 213.613 134.848 214.317 136.954C214.592 136.87 214.861 136.774 215.136 136.678C214.419 134.573 213.696 132.544 212.998 130.624C215.066 129.926 217.114 129.216 219.11 128.499C219.827 130.419 220.55 132.442 221.286 134.554C219.27 135.27 217.216 135.987 215.136 136.678C215.232 136.954 215.315 137.222 215.411 137.498C217.498 136.8 219.546 136.083 221.562 135.366L222.368 135.078C224.448 134.323 226.49 133.574 228.467 132.826C228.736 132.71 228.998 132.621 229.267 132.518C231.354 131.718 233.376 130.925 235.315 130.138C235.226 129.862 235.13 129.594 235.034 129.325C233.092 130.11 231.076 130.903 228.986 131.706C228.25 129.581 227.507 127.552 226.778 125.645C228.851 124.838 230.867 124.045 232.794 123.264C233.53 125.184 234.278 127.194 235.034 129.325L235.827 129.011C235.072 126.874 234.31 124.832 233.587 122.938C235.686 122.093 237.683 121.261 239.558 120.448L240.339 120.115C242.477 119.2 244.454 118.33 246.253 117.555L246.72 117.35C246.72 117.062 246.765 116.787 246.771 116.538V116.403L246.72 116.378ZM228.16 132.006C226.18 132.762 224.147 133.515 222.061 134.266C221.338 132.154 220.602 130.118 219.898 128.211C221.971 127.456 223.991 126.703 225.958 125.952C226.701 127.84 227.443 129.869 228.186 131.994L228.16 132.006ZM242.592 126.182L241.818 126.522C239.898 127.322 237.914 128.16 235.802 129.011L235.008 129.325C233.067 130.11 231.051 130.903 228.96 131.706L228.173 132.006C226.193 132.762 224.16 133.515 222.074 134.266C221.811 134.368 221.536 134.464 221.274 134.554C219.258 135.27 217.203 135.987 215.123 136.678C214.848 136.774 214.579 136.87 214.304 136.954C212.269 137.632 210.206 138.291 208.115 138.931C207.84 139.008 207.565 139.098 207.296 139.181L204.243 140.083L204.64 140.205C205.018 140.307 205.389 140.416 205.766 140.531L207.565 139.994L208.378 139.738C210.464 139.098 212.538 138.458 214.579 137.754L215.398 137.491C217.485 136.794 219.533 136.077 221.549 135.36L222.355 135.072C224.435 134.317 226.477 133.568 228.454 132.819C228.723 132.704 228.986 132.614 229.254 132.512C231.341 131.712 233.363 130.918 235.302 130.131C235.571 130.022 235.834 129.92 236.096 129.805C238.208 128.951 240.213 128.119 242.112 127.309L242.899 126.976C243.648 126.662 244.378 126.336 245.088 126.035C245.171 125.696 245.248 125.344 245.338 125.005C244.463 125.384 243.556 125.773 242.618 126.17L242.592 126.182ZM238.15 135.962L237.357 136.288C235.405 137.062 233.363 137.856 231.264 138.656C230.624 136.544 229.92 134.49 229.242 132.518C228.973 132.621 228.71 132.71 228.442 132.826C229.126 134.797 229.805 136.851 230.464 138.963C228.467 139.718 226.423 140.467 224.333 141.21C224.058 141.312 223.795 141.408 223.52 141.498C221.498 142.214 219.437 142.92 217.338 143.616H217.261H217.357L218.79 143.974C220.474 143.411 222.131 142.835 223.77 142.259C224.038 142.163 224.314 142.067 224.576 141.965C226.675 141.229 228.723 140.474 230.72 139.718L231.514 139.418C233.619 138.618 235.661 137.824 237.619 137.037L238.406 136.723C239.853 136.141 241.274 135.565 242.63 135.002L242.938 133.952C241.427 134.63 239.827 135.283 238.176 135.949L238.15 135.962ZM239.482 143.309C237.504 144.09 235.443 144.896 233.338 145.69L232.538 145.984L230.688 146.669L232.339 146.963L232.749 146.803C233.011 146.714 233.286 146.611 233.549 146.509C235.565 145.747 237.517 144.998 239.411 144.243C239.469 144.102 239.539 143.955 239.597 143.802C239.654 143.648 239.77 143.373 239.853 143.162L239.482 143.309Z" fill="#4C4C4C"/>
<path opacity="0.1" d="M243.13 133.408C241.094 140.409 238.746 146.784 237.658 147.296C235.059 148.505 206.989 141.357 196.346 137.555C207.027 140.704 234.24 145.017 236.742 143.789C238.464 142.944 242.054 135.577 243.13 133.408Z" fill="#1C1C1C"/>
<path d="M192.864 189.773C192.864 189.773 212.909 203.315 224.352 205.632C235.795 207.949 258.483 190.201 258.483 190.201C258.483 190.201 267.302 203.974 268.659 205.632C270.016 207.289 277.203 208.192 278.528 206.854C279.853 205.517 279.757 199.174 278.528 195.654C277.299 192.134 264.058 176.934 258.765 177.408C253.472 177.881 238.08 185.792 236.934 185.632C235.142 185.382 225.261 173.344 218.016 164.077" fill="#D56E45"/>
<path opacity="0.1" d="M278.528 206.854C277.203 208.217 270.016 207.289 268.659 205.632C267.302 203.974 258.483 190.201 258.483 190.201C258.483 190.201 235.789 207.942 224.346 205.632C216.934 204.134 205.914 197.913 199.078 193.728C203.014 195.84 221.536 200.32 226.714 200.96C232.102 201.6 258.483 189.177 258.483 189.177C258.483 189.177 269.709 203.257 270.842 203.897C271.974 204.537 276.397 206.233 277.722 205.817C278.534 205.561 279.302 202.867 279.45 200.979C279.584 203.577 279.296 206.08 278.528 206.854Z" fill="#1C1C1C"/>
<path d="M272.966 201.242C274.982 202.522 277.171 205.082 276.333 207.642C276.192 205.082 274.368 203.277 272.966 201.242Z" fill="#1C1C1C"/>
<path d="M276.845 199.04C278.483 200.883 280.211 204.192 278.682 206.522C279.264 203.872 277.728 201.478 276.845 199.04Z" fill="#1C1C1C"/>
<path d="M197.498 193.28C205.05 197.043 212.589 200.96 220.493 203.923L222.47 204.563C222.81 204.64 223.642 204.87 223.962 204.947C234.202 206.483 249.773 195.539 258.483 190.188C251.763 195.366 244.717 200.281 236.909 203.718C232.653 205.459 227.853 207.155 223.181 206.028C219.379 205.043 215.795 203.296 212.301 201.593C207.219 199.078 202.304 196.268 197.504 193.273L197.498 193.28Z" fill="#1C1C1C"/>
<path d="M256.499 187.142C259.546 191.584 262.701 196.326 265.459 200.947C261.9 196.743 258.889 192.105 256.499 187.142Z" fill="#1C1C1C"/>
<path d="M200.429 197.12C203.091 197.639 205.549 198.4 208.192 199.04C205.468 199.213 202.758 198.543 200.429 197.12Z" fill="#1C1C1C"/>
<path d="M220.634 167.398L229.99 177.971C232.25 180.358 234.285 183.046 236.922 185.011C238.012 184.647 239.081 184.22 240.122 183.731C244.435 181.875 248.742 179.942 253.216 178.381C254.9 177.735 256.652 177.284 258.438 177.037C259.082 177.007 259.722 177.139 260.301 177.421C262.466 178.411 264.458 179.742 266.202 181.363C264.331 179.961 262.271 178.832 260.083 178.01C259.584 177.8 259.041 177.716 258.502 177.766C256.808 178.116 255.152 178.635 253.562 179.315C249.786 180.806 244.403 183.251 240.627 184.909C239.584 185.325 238.349 185.914 237.235 186.227C236.961 186.303 236.669 186.274 236.416 186.144C235.477 185.554 234.631 184.827 233.907 183.987C232.269 182.253 230.707 180.467 229.235 178.643C226.234 175.002 223.386 171.245 220.634 167.418V167.398Z" fill="#1C1C1C"/>
<path d="M224.64 169.562C225.415 170.309 226.034 171.203 226.46 172.192C226.886 173.181 227.112 174.245 227.123 175.322C226.33 173.318 225.376 171.565 224.64 169.562Z" fill="#1C1C1C"/>
<path d="M204.365 74.8798C210.547 80.4862 212.25 103.373 217.805 111.309C223.36 119.245 243.142 116.793 246.029 105.734C248.915 94.675 233.331 76.243 224.256 74.2398C215.181 72.2366 204.365 74.8798 204.365 74.8798Z" fill="#805032"/>
<path d="M132.358 124.953C132.192 126.79 139.661 132.825 142.925 132.403C146.189 131.98 149.21 121.792 147.814 119.635C146.419 117.478 132.569 122.617 132.358 124.953Z" fill="#1C1C1C"/>
<path d="M141.683 130.515C144.294 132.435 151.75 139.258 154.867 137.491C157.517 135.891 158.118 132.205 158.637 129.357C158.477 132.384 157.997 136.263 155.149 138.035C151.405 140.103 144.269 133.037 141.709 130.515H141.683Z" fill="#1C1C1C"/>
<path d="M146.157 136.96C147.13 137.497 148.23 138.329 149.267 138.534C149.184 138.534 149.184 138.656 149.178 138.624C147.258 135.968 144.659 133.875 142.592 131.302C144.46 132.702 146.199 134.265 147.789 135.974C148.474 136.781 149.306 137.504 149.664 138.534C149.664 140.07 146.598 137.35 146.157 136.96Z" fill="#1C1C1C"/>
<path opacity="0.2" d="M179.731 96.64C187.315 92.32 194.451 96 198.33 102.771C201.472 108.282 200.173 116.474 192.89 120.621C185.606 124.768 177.338 120.73 174.387 115.552C171.437 110.374 171.52 101.306 179.731 96.64Z" fill="#1C1C1C"/>
<path d="M177.171 105.248C180.915 102.278 185.082 103.661 187.744 107.014C188.319 107.772 188.737 108.635 188.975 109.556C189.213 110.476 189.265 111.435 189.129 112.375C188.994 113.316 188.672 114.221 188.184 115.036C187.695 115.852 187.05 116.562 186.285 117.126C182.688 119.981 177.875 118.483 175.853 115.923C175.229 115.139 174.768 114.239 174.496 113.275C174.224 112.311 174.148 111.303 174.27 110.309C174.393 109.315 174.713 108.355 175.211 107.486C175.709 106.617 176.375 105.856 177.171 105.248Z" fill="#1C1C1C"/>
<path d="M177.37 106.24C180.89 103.449 184.8 104.742 187.309 107.904C187.848 108.616 188.242 109.427 188.465 110.292C188.688 111.157 188.738 112.058 188.611 112.942C188.483 113.826 188.181 114.676 187.723 115.443C187.264 116.21 186.658 116.877 185.939 117.408C182.56 120.089 178.035 118.688 176.128 116.275C175.543 115.538 175.111 114.691 174.856 113.785C174.602 112.879 174.53 111.931 174.646 110.997C174.761 110.063 175.062 109.161 175.529 108.345C175.997 107.528 176.623 106.812 177.37 106.24Z" fill="#F5EEE5"/>
<path d="M176.858 107.763C179.731 105.485 182.925 106.547 184.973 109.12C185.414 109.702 185.734 110.365 185.917 111.071C186.099 111.778 186.14 112.514 186.035 113.236C185.931 113.958 185.685 114.652 185.31 115.278C184.935 115.905 184.44 116.45 183.853 116.883C181.094 119.072 177.402 117.92 175.846 115.962C175.364 115.361 175.007 114.67 174.796 113.929C174.586 113.189 174.526 112.413 174.62 111.649C174.714 110.884 174.961 110.147 175.345 109.479C175.729 108.812 176.244 108.228 176.858 107.763Z" fill="#1C1C1C"/>
<path d="M41.0367 188.429C41.5359 184.038 43.5967 171.712 44.3647 170.65C45.1327 169.587 54.0031 173.766 57.8047 182.054L41.0367 188.429Z" fill="#FFD75F"/>
<path opacity="0.1" d="M42.0096 188.057C42.3808 184.467 43.9296 174.483 44.48 173.612C45.0304 172.742 51.7696 176.499 54.6112 183.276L42.0096 188.057Z" fill="#1C1C1C"/>
<path d="M45.7663 186.592C45.7663 186.592 46.0415 184.819 45.7087 184.333C45.4581 183.993 45.1728 183.679 44.8575 183.398C45.3811 183.538 45.8813 183.753 46.3423 184.038C46.6058 184.284 46.8477 184.551 47.0655 184.838C47.0641 184.121 46.7841 183.433 46.2847 182.918C45.6415 182.422 44.9488 181.993 44.2175 181.638C44.2175 181.638 46.9375 181.638 47.9039 182.24C48.8703 182.841 50.0287 183.264 50.5791 183.552C51.256 183.793 51.9581 183.956 52.6719 184.038L45.7663 186.592Z" fill="#FFD75F"/>
<path d="M81.92 240.531C80.4352 241.613 75.2 251.213 76.2624 254.611C77.3248 258.01 83.776 270.003 84.256 270.72C84.736 271.437 88.224 280.96 88.064 281.402C87.904 281.843 83.6544 283.578 83.6544 284.282C83.6544 284.986 94.2784 284.851 94.4384 284.544C94.5818 283.759 94.6525 282.962 94.6496 282.163C94.6496 282.003 100.173 268.915 101.133 266.522C102.093 264.128 99.5392 252.71 99.5392 251.648C99.5392 250.586 98.2912 228.634 81.92 240.531Z" fill="#FFD75F"/>
<g opacity="0.1">
<path d="M81.92 240.531C80.4352 241.613 75.2 251.213 76.2624 254.611C77.3248 258.01 83.776 270.003 84.256 270.72C84.736 271.437 88.224 280.96 88.064 281.402C87.904 281.843 83.6544 283.578 83.6544 284.282C83.6544 284.986 94.2784 284.851 94.4384 284.544C94.5818 283.759 94.6525 282.962 94.6496 282.163C94.6496 282.003 100.173 268.915 101.133 266.522C102.093 264.128 99.5392 252.71 99.5392 251.648C99.5392 250.586 98.2912 228.634 81.92 240.531Z" fill="#1C1C1C"/>
</g>
<path d="M63.8847 240.531C62.3999 241.613 59.4047 251.213 60.4799 254.611C61.5551 258.009 70.6687 269.862 71.1487 270.611C71.6287 271.36 75.8527 281.491 75.6927 281.926C75.5327 282.361 72.1471 283.814 72.1471 284.486C72.1471 285.158 83.0271 284.857 83.1871 284.55C83.4007 283.395 83.5482 282.228 83.6287 281.056C83.6287 280.896 89.5295 270.995 90.4895 268.601C91.4495 266.208 94.1119 256.665 94.1119 255.603C94.1119 254.541 80.2495 228.633 63.8847 240.531Z" fill="#FFD75F"/>
<path d="M145.049 218.509C148.057 221.395 153.145 233.133 153.459 237.011C153.773 240.89 151.494 259.482 151.763 260.282C153.559 263.857 155.533 267.341 157.677 270.72C157.997 271.219 159.366 273.107 159.411 273.325C159.571 274.067 158.56 276.352 158.189 276.832C157.817 277.312 150.822 283.328 150.4 282.906C149.977 282.483 151.545 278.355 151.545 278.086C151.545 277.818 139.667 271.238 138.848 270.56C137.312 269.28 126.099 256.691 125.037 249.939C123.974 243.187 135.737 209.574 145.049 218.509Z" fill="#FFD75F"/>
<path opacity="0.1" d="M143.251 217.312L135.43 266.88C131.539 262.323 125.779 254.72 125.037 249.945C124.038 243.648 134.291 213.76 143.251 217.312Z" fill="#1C1C1C"/>
<path d="M71.3727 180.051C73.1263 176.973 82.3167 166.682 84.2303 166.515C86.1439 166.349 90.3935 180.051 91.0847 182.976C91.7759 185.901 91.0847 196.006 91.0847 196.006L71.3727 180.051Z" fill="#FFD75F"/>
<path opacity="0.1" d="M71.9103 180.48C73.2927 178.041 80.0895 169.721 81.6063 169.6C83.1231 169.478 86.4831 180.313 87.0271 182.624C87.5711 184.934 87.0911 192.774 87.0911 192.774L71.9103 180.48Z" fill="#1C1C1C"/>
<path d="M75.2191 183.168C75.2191 183.168 77.0175 181.824 77.2159 181.049C77.3387 180.488 77.4031 179.915 77.4079 179.34C77.7422 179.991 77.9794 180.688 78.1119 181.408C78.0955 181.898 78.0356 182.387 77.9327 182.867C78.3043 182.546 78.6087 182.154 78.8284 181.715C79.0481 181.275 79.1787 180.797 79.2127 180.307C79.1422 179.21 78.9599 178.122 78.6687 177.062C78.6687 177.062 81.0815 179.859 81.3439 181.376C81.6063 182.892 81.8175 185.094 82.0159 185.913C82.2143 186.732 82.9119 189.363 82.9119 189.363L75.2191 183.168Z" fill="#FFD75F"/>
<path d="M39.4432 199.13C39.0208 200.192 33.6831 209.018 34.0095 211.565C34.3359 214.112 40.3199 223.782 53.3631 228.883C53.3631 228.883 54.7455 230.048 55.0655 233.664C55.3855 237.28 53.6959 245.882 53.856 248.467C53.9563 249.588 54.2829 250.676 54.8159 251.667C54.8159 251.667 54.6815 248.301 55.1039 247.597C55.1039 247.597 55.8335 252.077 56.5247 253.6C56.9893 254.443 57.6782 255.141 58.5151 255.616L57.1199 251.917C57.1199 251.917 59.2895 256.333 66.9631 260.205C73.4783 263.488 99.3407 262.47 102.387 262.47C105.434 262.47 130.362 258.79 132.742 253.971C133.523 252.378 141.587 237.83 142.202 233.92C142.528 231.808 147.77 223.315 146.259 219.981C144.749 216.646 139.59 210.835 134.438 207.853C130.4 205.517 112.038 204.986 97.0367 211.053C96.6522 210.666 96.237 210.31 95.7951 209.99C95.1903 209.58 94.5054 209.303 93.7855 209.178C93.7855 209.178 91.3344 194.458 90.4832 192.634C89.632 190.81 77.3055 180.877 73.8431 179.533C70.3807 178.189 56.416 180.026 53.792 180.595C51.168 181.165 41.6831 186.829 41.0431 188.454C40.4031 190.08 39.4432 199.13 39.4432 199.13Z" fill="#FFD75F"/>
<path opacity="0.1" d="M80.7872 262.4C74.912 262.118 69.4848 261.491 66.9632 260.217C59.52 256.441 57.2608 252.16 57.1264 251.917L58.5152 255.603C57.6782 255.128 56.9893 254.43 56.5248 253.587C55.8336 252.045 55.104 247.584 55.104 247.584C54.6816 248.288 54.816 251.654 54.816 251.654C54.2829 250.664 53.9563 249.575 53.856 248.454C53.696 245.894 55.3792 237.261 55.0656 233.651C54.752 230.041 53.3632 228.87 53.3632 228.87C40.2944 223.75 34.3296 214.105 34.0096 211.552C33.6896 208.998 39.04 200.192 39.4432 199.13C39.4432 199.13 40.3968 190.061 41.0368 188.429C40.1152 193.517 40.5952 199.68 40.4864 200.109C40.3776 200.538 36.7424 209.299 37.6064 211.565C38.4704 213.83 50.4064 227.027 57.7984 228.787C57.7984 228.787 60.2496 235.757 59.9488 238.95C59.648 242.144 60.2112 250.976 60.832 252.992C61.4528 255.008 64.128 256.525 66.4896 258.688C68.8512 260.851 80.0832 262.285 80.7872 262.4Z" fill="#1C1C1C"/>
<path d="M110.432 261.12C107.872 261.721 105.274 262.304 102.65 262.726C98.2335 263.123 93.8175 263.033 89.3887 262.995C85.8431 262.886 82.2847 262.912 78.7711 262.272C75.2511 261.337 72.1855 259.462 69.3503 257.363C70.8799 258.246 72.4351 259.072 74.0351 259.795C78.7967 262.278 84.1983 261.83 89.3951 262.048C93.7727 262.092 98.1951 262.291 102.566 262.15C104.371 261.952 108.57 261.35 110.419 261.12H110.432Z" fill="#1C1C1C"/>
<path d="M53.3632 228.883C54.4704 229.241 64.0832 228.301 66.1632 227.603C67.8912 227.033 77.9584 219.821 85.6256 214.579C90.1056 211.513 94.1824 209.043 94.496 209.043C94.496 209.043 96.7552 210.144 97.056 210.688C97.056 210.688 92.576 212.115 91.264 212.921C89.952 213.728 86.0736 216.262 86.0736 216.262C86.0736 216.262 70.9824 229.549 67.4752 230.342C63.968 231.136 54.3296 231.245 54.3296 231.245C54.0064 230.824 53.7476 230.359 53.5616 229.862C53.4592 229.427 53.3632 228.883 53.3632 228.883Z" fill="#FFD75F"/>
<path d="M85.4527 216.634C87.4542 214.989 89.5957 213.522 91.8527 212.25C93.5252 211.643 95.2628 211.232 97.0303 211.027C95.3855 211.667 93.7151 212.147 92.0959 212.819C90.0223 213.952 87.6159 215.68 85.4463 216.659L85.4527 216.634Z" fill="#1C1C1C"/>
<path d="M93.7855 209.152C93.0047 209.625 91.9359 210.355 91.1487 210.841C90.744 211.141 90.3572 211.463 89.9903 211.808C89.5891 212.155 89.1611 212.469 88.7103 212.749C89.2071 211.953 89.7934 211.216 90.4575 210.553C91.429 209.806 92.5779 209.323 93.7919 209.152H93.7855Z" fill="#1C1C1C"/>
<path d="M47.5583 193.779C44.6399 193.478 42.8799 196.243 42.5279 199.641C42.2463 202.393 43.6927 205.401 46.4895 205.67C49.2863 205.939 51.3535 202.828 51.6095 200.243C51.8655 197.657 50.7199 194.105 47.5583 193.779Z" fill="#1C1C1C"/>
<path d="M47.7631 194.521C45.0239 194.24 43.3663 196.832 43.0399 200.032C42.7711 202.592 44.1279 205.427 46.7583 205.696C49.3887 205.965 51.3343 203.027 51.5839 200.576C51.8335 198.125 50.7391 194.822 47.7631 194.521Z" fill="#F5EEE5"/>
<path d="M48.64 194.605C46.4896 194.387 45.1968 196.416 44.9408 198.918C44.7296 200.947 45.792 203.142 47.8528 203.354C49.9136 203.565 51.4304 201.267 51.6288 199.36C51.8272 197.453 50.9888 194.842 48.64 194.605Z" fill="#1C1C1C"/>
<path d="M69.2864 193.574C73.2544 192.812 75.8399 195.494 76.5183 199.04C76.6571 199.835 76.6358 200.65 76.4557 201.436C76.2756 202.223 75.9403 202.966 75.4695 203.622C74.9986 204.277 74.4017 204.833 73.7136 205.255C73.0255 205.677 72.2602 205.957 71.4624 206.08C67.6224 206.809 64.6272 203.795 64.1088 201.088C63.9482 200.254 63.9552 199.396 64.1294 198.565C64.3036 197.734 64.6415 196.945 65.1234 196.246C65.6053 195.547 66.2215 194.95 66.9363 194.491C67.651 194.033 68.4499 193.721 69.2864 193.574Z" fill="#1C1C1C"/>
<path d="M69.0432 194.393C72.7808 193.677 75.2064 196.186 75.8464 199.514C75.9732 200.259 75.9503 201.023 75.7792 201.76C75.608 202.496 75.2919 203.192 74.8494 203.805C74.4068 204.419 73.8466 204.938 73.2014 205.333C72.5562 205.728 71.8389 205.991 71.0912 206.106C67.5072 206.79 64.6912 203.962 64.1792 201.414C64.0317 200.633 64.0409 199.831 64.2063 199.054C64.3716 198.276 64.6898 197.54 65.1424 196.886C65.595 196.233 66.1729 195.676 66.8426 195.248C67.5122 194.82 68.2602 194.53 69.0432 194.393Z" fill="#F5EEE5"/>
<path d="M70.5856 194.688C73.632 194.106 75.616 196.154 76.1408 198.886C76.2438 199.495 76.2248 200.119 76.0847 200.72C75.9446 201.322 75.6863 201.89 75.3248 202.391C74.9633 202.891 74.5059 203.315 73.979 203.638C73.4521 203.96 72.8664 204.175 72.256 204.269C71.0035 204.47 69.7216 204.184 68.6731 203.47C67.6247 202.756 66.8892 201.668 66.6175 200.429C66.4958 199.791 66.5022 199.135 66.6365 198.499C66.7707 197.864 67.0299 197.262 67.3992 196.727C67.7685 196.193 68.2404 195.738 68.7875 195.387C69.3345 195.037 69.9457 194.8 70.5856 194.688Z" fill="#1C1C1C"/>
<path d="M58.2398 201.74C58.2014 202.105 56.0254 203.462 55.7758 203.462C55.5262 203.462 53.2926 202.131 53.2158 201.772C53.139 201.414 55.1871 201.267 55.7119 201.26C56.2366 201.254 58.291 201.382 58.2398 201.74Z" fill="#1C1C1C"/>
<path d="M51.6288 204.364C51.9936 204.876 52.3584 205.382 52.7616 205.843C52.9507 206.079 53.1654 206.294 53.4016 206.483C53.4916 206.55 53.5975 206.592 53.7088 206.604C53.813 206.586 53.9103 206.539 53.9904 206.47C54.1915 206.288 54.3583 206.071 54.4832 205.83C54.6254 205.569 54.7473 205.297 54.848 205.017C55.0644 204.448 55.2398 203.864 55.3728 203.27L55.6224 202.188L55.9936 203.238C56.2429 203.937 56.5512 204.614 56.9152 205.26C57.0879 205.578 57.2916 205.878 57.5232 206.156C57.7218 206.42 57.9932 206.621 58.304 206.732H58.4064H58.5152C58.595 206.726 58.6742 206.713 58.752 206.694C58.9186 206.651 59.0781 206.584 59.2256 206.496C59.5395 206.307 59.8277 206.079 60.0832 205.817C60.6092 205.273 61.0788 204.677 61.4848 204.038C61.1824 204.748 60.784 205.414 60.3008 206.016C60.053 206.328 59.7621 206.604 59.4368 206.835C59.0871 207.11 58.6435 207.236 58.2016 207.187C57.7759 207.082 57.3934 206.847 57.1072 206.515C56.8405 206.217 56.6006 205.895 56.3904 205.555C55.9889 204.88 55.6525 204.169 55.3856 203.43L56.0256 203.398C55.8727 204.02 55.6737 204.63 55.4304 205.222C55.3015 205.522 55.1518 205.813 54.9824 206.092C54.8098 206.397 54.5741 206.661 54.2912 206.867C54.1226 206.986 53.9216 207.051 53.7152 207.052C53.5135 207.026 53.3254 206.936 53.1776 206.796C52.9315 206.579 52.7162 206.329 52.5376 206.054C52.1847 205.519 51.8805 204.954 51.6288 204.364Z" fill="#1C1C1C"/>
<path d="M41.4655 202.15C39.8655 202.08 38.2655 202.061 36.6655 202.08C35.0655 202.099 33.4655 202.137 31.8655 202.253C31.0655 202.285 30.2719 202.355 29.4719 202.413C28.6719 202.47 27.8783 202.566 27.0847 202.656C25.4911 202.816 23.8847 203.059 22.3231 203.296C23.1039 203.123 23.8847 202.937 24.6783 202.797C25.4719 202.656 26.2591 202.521 27.0527 202.413C28.6463 202.182 30.2527 202.048 31.8463 201.939C33.4399 201.83 35.0463 201.805 36.6655 201.837C37.4655 201.837 38.2719 201.888 39.0719 201.933C39.8719 201.977 40.6719 202.041 41.4655 202.15Z" fill="#1C1C1C"/>
<path d="M40.8447 203.104C40.1279 203.162 39.4047 203.213 38.6879 203.29C37.9711 203.367 37.2479 203.424 36.5311 203.507C35.0975 203.661 33.6639 203.827 32.2367 204.045C31.5199 204.135 30.8095 204.25 30.0991 204.359L27.9679 204.723L26.8991 204.915L25.8367 205.133C25.1263 205.255 24.4287 205.434 23.7183 205.568C25.1007 205.146 26.5023 204.775 27.9167 204.48C29.3311 204.186 30.7583 203.936 32.1919 203.725C33.6255 203.514 35.0655 203.36 36.5119 203.258C37.9583 203.155 39.3983 203.085 40.8447 203.104Z" fill="#1C1C1C"/>
<path d="M41.2863 203.994C40.6975 204.115 40.1087 204.23 39.5199 204.365C38.9311 204.499 38.3423 204.614 37.7535 204.755C36.5823 205.03 35.4111 205.299 34.2527 205.6C33.0943 205.901 31.9231 206.202 30.7647 206.522C29.6063 206.842 28.4479 207.162 27.2831 207.501C27.8463 207.277 28.4095 207.066 28.9791 206.861C29.5487 206.656 30.1183 206.464 30.6943 206.285C31.8399 205.907 33.0047 205.587 34.1695 205.286C35.3343 204.986 36.5183 204.73 37.7087 204.512C38.8991 204.294 40.0831 204.102 41.2863 203.994Z" fill="#1C1C1C"/>
<path d="M78.3488 204.614C79.3344 204.486 80.3264 204.422 81.3184 204.345C82.3104 204.269 83.3088 204.256 84.3072 204.237C86.2976 204.198 88.288 204.237 90.2784 204.352C92.2688 204.467 94.2528 204.64 96.2304 204.915C97.216 205.043 98.2016 205.209 99.1808 205.376C99.6736 205.453 100.16 205.555 100.646 205.657L102.106 205.965C100.141 205.67 98.176 205.363 96.1984 205.165C95.2128 205.049 94.2208 204.96 93.2352 204.87C92.2496 204.781 91.2512 204.717 90.2592 204.672C88.2816 204.537 86.2912 204.499 84.3072 204.48C82.3232 204.461 80.3328 204.505 78.3488 204.614Z" fill="#1C1C1C"/>
<path d="M79.1231 205.792C80.9151 205.792 82.7071 205.869 84.4991 206.003C86.2911 206.138 88.0767 206.342 89.8559 206.573C91.6351 206.803 93.4079 207.123 95.1615 207.494C96.9151 207.866 98.6623 208.294 100.384 208.774C99.5007 208.602 98.6367 208.378 97.7535 208.218L96.4351 207.949L95.1167 207.712C94.2335 207.546 93.3503 207.405 92.4671 207.258C91.5839 207.11 90.7007 206.982 89.8111 206.867C88.0383 206.611 86.2591 206.406 84.4799 206.227C83.5903 206.131 82.6943 206.048 81.8047 205.971C80.9151 205.894 79.9999 205.856 79.1231 205.792Z" fill="#1C1C1C"/>
<path d="M78.5791 206.905C80.0703 207.046 81.5487 207.289 83.0143 207.545C84.4799 207.801 85.9455 208.147 87.4047 208.499C88.8639 208.851 90.2975 209.26 91.7247 209.715C92.4415 209.939 93.1455 210.176 93.8559 210.412C94.5663 210.649 95.2639 210.924 95.9615 211.187C94.5215 210.777 93.0943 210.348 91.6543 209.952C90.2143 209.555 88.7743 209.171 87.3215 208.812C85.8687 208.454 84.4223 208.108 82.9695 207.782C82.2399 207.616 81.5103 207.468 80.7743 207.315C80.0383 207.161 79.3151 207.04 78.5791 206.905Z" fill="#1C1C1C"/>
<path d="M44.5695 190.361C44.7274 189.894 44.9925 189.47 45.3437 189.123C45.6949 188.776 46.1224 188.517 46.5919 188.365C47.0474 188.182 47.5379 188.104 48.0274 188.136C48.5169 188.169 48.993 188.31 49.4207 188.55C49.0082 188.774 48.5804 188.969 48.1407 189.133C46.9639 189.61 45.7609 190.02 44.5375 190.361H44.5695Z" fill="#1C1C1C"/>
<path d="M76.1983 191.36C74.9921 190.955 73.8104 190.481 72.6591 189.939C72.2394 189.754 71.8331 189.541 71.4431 189.299C71.8835 189.08 72.3676 188.963 72.8596 188.956C73.3515 188.949 73.8386 189.053 74.2847 189.261C74.7471 189.435 75.1618 189.716 75.4953 190.081C75.8289 190.446 76.0719 190.884 76.2047 191.36H76.1983Z" fill="#1C1C1C"/>
<path d="M59.6927 218.24C58.8297 217.384 58.1101 216.394 57.5616 215.309C57.5502 215.291 57.5338 215.276 57.5142 215.267C57.4947 215.258 57.4729 215.255 57.4517 215.259C57.4304 215.262 57.4107 215.272 57.395 215.286C57.3792 215.301 57.3681 215.32 57.3631 215.341C57.3119 215.597 57.1775 216.333 57.1583 216.448C57.1199 216.384 57.088 216.32 57.056 216.256C56.9408 216.038 56.8447 215.815 56.7487 215.584C56.5673 215.125 56.4239 214.652 56.32 214.17C56.2165 213.69 56.1544 213.201 56.1343 212.71C56.1343 212.211 56.1343 211.712 56.1727 211.213C56.1727 211.213 56.1343 211.213 56.1279 211.213C55.9822 211.712 55.9046 212.229 55.8975 212.749C55.8805 213.247 55.9084 213.747 55.9808 214.24C56.0561 214.735 56.1804 215.222 56.352 215.693C56.439 215.939 56.5394 216.181 56.6527 216.416C56.7474 216.651 56.8816 216.867 57.0495 217.056C57.1775 217.178 57.3695 217.056 57.3631 216.89C57.3567 216.723 57.4912 215.795 57.5168 215.648C57.7392 216.111 58.0072 216.55 58.3168 216.96C58.6904 217.452 59.12 217.899 59.5968 218.291C59.6672 218.323 59.7311 218.24 59.6927 218.24Z" fill="#1C1C1C"/>
<path opacity="0.1" d="M83.6927 200.249C85.3286 202.917 86.619 205.781 87.5327 208.774C88.1727 211.334 83.5199 214.534 81.6575 215.814C82.8031 214.764 83.9359 213.708 84.9791 212.582C85.7727 211.628 86.8159 210.662 86.9823 209.382C86.8386 208.461 86.5851 207.561 86.2271 206.7C85.4719 204.608 84.5119 202.316 83.7183 200.217L83.6927 200.249Z" fill="#1C1C1C"/>
<path d="M93.9519 231.43C92.1919 234.349 88.1471 251.334 90.3423 255.373C92.5375 259.411 112.301 267.699 113.011 268.55C113.721 269.401 117.12 281.6 116.909 281.939C116.697 282.278 113.069 283.821 113.152 284.55C113.216 285.037 122.112 284.697 122.643 284.697C123.174 284.697 123.827 282.835 123.744 282.969C123.661 283.104 133.453 265.593 135.411 262.137C136.377 260.441 132.742 255.129 132.742 253.958C132.742 252.787 141.267 242.374 141.241 236.851C141.241 233.741 136.249 221.12 124.454 219.424C112.659 217.728 97.9903 224.736 93.9519 231.43Z" fill="#FFD75F"/>
<path opacity="0.1" d="M117.875 282.163C116.269 282.95 114.829 283.545 114.426 284.288C114.349 284.428 114.483 284.595 114.752 284.78C113.811 284.748 113.171 284.678 113.152 284.55C113.062 283.82 116.698 282.291 116.909 281.939C117.12 281.587 113.709 269.401 113.011 268.55C112.314 267.699 92.5311 259.411 90.3423 255.372C88.8127 252.556 90.3423 243.43 91.9679 237.184C91.5647 240.224 92.2239 252.262 94.7711 254.867C97.3183 257.472 114.797 265.35 115.475 266.304C116.154 267.257 118.925 281.657 117.875 282.163Z" fill="#1C1C1C"/>
<path d="M101.152 262.604C97.3119 260.896 93.0047 259.404 90.2207 256.064C89.3183 254.822 89.3951 253.177 89.3503 251.724C89.5363 246.044 90.6162 240.429 92.5503 235.084C91.3535 241.228 90.0287 247.475 90.3935 253.753C90.4233 254.383 90.6222 254.993 90.9695 255.52C93.5615 258.72 97.6703 260.422 101.152 262.56V262.604Z" fill="#1C1C1C"/>
<path d="M90.592 237.011C90.8179 238.787 90.9035 240.578 90.8479 242.368C90.4431 241.54 90.2116 240.637 90.1676 239.716C90.1236 238.795 90.268 237.875 90.592 237.011Z" fill="#1C1C1C"/>
<path d="M138.656 222.86C140.22 226.377 141.432 230.041 142.272 233.798C142.449 234.549 142.473 235.328 142.342 236.089C140.8 241.92 137.337 247.072 134.227 252.16C133.997 252.55 133.331 253.58 133.139 253.964C133.081 253.811 133.184 254.156 133.261 254.342C134.099 256.563 135.289 258.726 135.821 261.081C135.858 261.351 135.804 261.626 135.667 261.862C135.141 262.945 134.52 263.98 133.811 264.953C134.403 263.923 134.925 262.854 135.373 261.753C135.472 261.569 135.499 261.355 135.449 261.152C134.701 258.771 133.389 256.608 132.422 254.278C132.368 254.155 132.344 254.021 132.352 253.888C132.667 253.135 133.051 252.413 133.497 251.731C136.422 246.611 139.853 241.574 141.529 235.904C141.849 233.344 140.889 230.835 140.249 228.364C139.757 226.515 139.187 224.691 138.624 222.86H138.656Z" fill="#1C1C1C"/>
<path d="M158.765 182.63C159.501 182.109 160.192 181.526 160.832 180.889C160.761 181.03 159.59 183.315 159.155 183.59C158.72 183.865 157.056 185.414 156.307 185.907C151.245 193.664 144.499 203.187 142.272 210.035C140.352 215.885 142.272 220.025 142.272 220.025L135.142 213.549C133.862 211.795 130.361 206.214 131.641 196.755C132.921 187.296 140.505 175.635 133.254 162.649C126.003 149.664 118.809 153.44 108.345 159.449C108.345 159.449 119.027 142.035 137.913 141.689C150.163 141.459 160.243 168.518 159.366 179.027C159.542 178.724 159.678 178.399 159.769 178.061C159.936 177.19 160.006 173.049 160.006 173.049C160.006 173.049 161.101 177.069 160.781 178.809C160.557 180.089 159.366 181.51 158.406 182.739L158.765 182.63Z" fill="#FFD75F"/>
<path d="M132.16 207.078C133.478 209.945 134.79 212.87 135.053 216.038C134.144 213.024 132.864 210.144 132.16 207.078Z" fill="#1C1C1C"/>
<path d="M133.76 211.564C134.03 212.497 133.969 213.494 133.587 214.387C133.532 213.443 133.591 212.495 133.76 211.564Z" fill="#1C1C1C"/>
<path d="M141.51 213.555L141.632 215.443C141.632 217.363 142.272 219.136 142.432 221.018C141.309 218.7 140.985 216.076 141.51 213.555Z" fill="#1C1C1C"/>
<path d="M141.6 217.139C142.243 217.951 142.829 218.806 143.354 219.699C142.495 219.07 141.876 218.167 141.6 217.139Z" fill="#1C1C1C"/>
<path opacity="0.1" d="M135.136 213.536C133.856 211.769 130.361 206.195 131.641 196.755C132.921 187.315 140.505 175.635 133.254 162.649C126.003 149.664 118.809 153.44 108.345 159.449C108.345 159.449 116.345 146.406 130.745 142.675C125.523 144.524 120.377 150.188 118.118 152.832C118.118 152.832 127.033 151.552 130.745 154.534C134.457 157.516 139.737 169.113 141.248 175.289C142.758 181.465 133.568 194.387 132.864 200.723C132.179 206.899 134.976 213.184 135.136 213.536Z" fill="#1C1C1C"/>
</svg>
