<svg width="68" height="40" viewBox="0 0 68 40" fill="none" xmlns="http://www.w3.org/2000/svg">
<path d="M26.2033 31.4028C26.2033 32.0892 26.1347 32.9129 25.9974 33.8739C25.8945 34.8348 25.6714 35.7615 25.3282 36.6538C24.985 37.5118 24.5217 38.2497 23.9382 38.8674C23.3548 39.4509 22.5826 39.7426 21.6216 39.7426C20.3518 39.7426 19.3908 39.2793 18.7387 38.3526C18.121 37.426 17.6748 36.3278 17.4003 35.0579C17.1257 33.7537 16.9541 32.4324 16.8855 31.0939C16.8511 29.7555 16.8168 28.6915 16.7825 27.9022C14.3115 28.314 11.8747 28.6744 9.47233 28.9833C9.40369 29.7726 9.24925 30.7507 9.00901 31.9176C8.80309 33.0845 8.45989 34.2171 7.97941 35.3153C7.53325 36.3792 6.93265 37.3059 6.17761 38.0952C5.45689 38.8846 4.56456 39.2793 3.50064 39.2793C2.67696 39.2793 2.02488 38.9876 1.5444 38.4041C1.09824 37.7864 0.755041 37.0656 0.514801 36.242C0.27456 35.4183 0.12012 34.5774 0.0514801 33.7194C0.01716 32.8271 0 32.0892 0 31.5058C0 29.5495 0.15444 27.6276 0.46332 25.74C0.772201 23.8181 1.13256 21.9133 1.5444 20.0257C1.75032 19.0305 2.02488 17.8636 2.36808 16.5251C2.71128 15.1866 3.12312 13.8138 3.6036 12.4067C4.1184 10.9653 4.70185 9.55813 5.35393 8.18533C6.04033 6.77821 6.81253 5.52553 7.67053 4.42728C8.52853 3.32904 9.50665 2.43672 10.6049 1.75032C11.7031 1.06392 12.9215 0.720721 14.26 0.720721C15.5641 0.720721 16.6967 1.01244 17.6577 1.59588C18.6186 2.17932 19.4595 2.95152 20.1802 3.91248C20.9009 4.87344 21.5015 5.97169 21.982 7.20721C22.4625 8.40841 22.8571 9.64393 23.166 10.9138C23.5092 12.1493 23.7838 13.3677 23.9897 14.5689C24.2299 15.7701 24.4359 16.834 24.6075 17.7606C25.0536 19.9914 25.4311 22.2565 25.74 24.556C26.0489 26.8211 26.2033 29.1034 26.2033 31.4028ZM16.2677 18.8932C16.2677 18.4813 16.2334 17.8121 16.1647 16.8855C16.1304 15.9245 16.0275 14.9807 15.8559 14.0541C15.6843 13.0931 15.4097 12.2523 15.0322 11.5315C14.689 10.7765 14.2085 10.399 13.5907 10.399C13.2475 10.399 12.9215 10.6392 12.6126 11.1197C12.3037 11.5659 12.0292 12.1493 11.7889 12.87C11.5487 13.5564 11.3256 14.3286 11.1197 15.1866C10.9481 16.0446 10.7937 16.8683 10.6564 17.6577C10.5191 18.447 10.4161 19.1677 10.3475 19.8198C10.2789 20.4376 10.2274 20.8837 10.1931 21.1583C12.2523 20.9867 14.2771 20.7293 16.2677 20.3861V18.8932Z" fill="#FF8656"/>
<path d="M56.6281 20.9524C56.6281 22.3595 56.5594 23.8181 56.4221 25.3282C56.2849 26.8039 56.0446 28.2454 55.7014 29.6525C55.3582 31.0596 54.8777 32.3981 54.26 33.668C53.6765 34.9035 52.9215 36.0017 51.9949 36.9627C51.0682 37.8893 49.9528 38.6272 48.6487 39.1763C47.3445 39.7254 45.8172 40 44.0669 40C41.4929 40 39.245 39.3994 37.323 38.1982C35.4354 36.997 33.8567 35.4698 32.5869 33.6165C31.317 31.7289 30.3732 29.6353 29.7555 27.3359C29.1377 25.0021 28.8288 22.7027 28.8288 20.4376C28.8288 20.1973 28.8288 19.9743 28.8288 19.7683C28.8288 19.5624 28.846 19.3737 28.8803 19.2021C28.9146 18.4813 28.9661 17.5032 29.0347 16.2677C29.1377 15.0322 29.2922 13.7109 29.4981 12.3037C29.704 10.8966 29.9614 9.45517 30.2703 7.97941C30.6135 6.50365 31.0425 5.18232 31.5573 4.01544C32.1064 2.84856 32.7585 1.8876 33.5135 1.13256C34.2686 0.37752 35.1609 0 36.1905 0C36.9455 0 37.5804 0.22308 38.0952 0.669241C38.61 1.1154 39.0219 1.68168 39.3308 2.36808C39.674 3.02016 39.9142 3.72372 40.0515 4.47876C40.1888 5.19949 40.2574 5.86873 40.2574 6.48649C40.2574 7.41313 40.1544 8.35693 39.9485 9.31789C39.7769 10.2445 39.6053 11.1712 39.4337 12.0978C39.1592 13.5736 38.9361 15.0493 38.7645 16.5251C38.5929 18.0009 38.5071 19.5109 38.5071 21.0553C38.5071 21.8447 38.5414 22.8057 38.61 23.9382C38.713 25.0708 38.9361 26.169 39.2793 27.2329C39.6225 28.2625 40.103 29.1549 40.7207 29.9099C41.3728 30.6306 42.248 30.991 43.3462 30.991C44.4101 30.991 45.251 30.6306 45.8687 29.9099C46.5208 29.1892 47.0013 28.3312 47.3102 27.3359C47.619 26.3406 47.8078 25.2939 47.8764 24.1956C47.9794 23.0974 48.0309 22.1536 48.0309 21.3642C48.0309 19.0991 47.8421 16.8683 47.4646 14.6718C47.0871 12.441 46.5894 10.2274 45.9717 8.03089C45.8001 7.44745 45.6456 6.86401 45.5084 6.28057C45.4054 5.69713 45.3539 5.11369 45.3539 4.53024C45.3539 3.56928 45.6285 2.72844 46.1776 2.00772C46.761 1.287 47.5676 0.926641 48.5972 0.926641C49.4552 0.926641 50.2445 1.26984 50.9653 1.95624C51.7203 2.60832 52.3895 3.48348 52.973 4.58172C53.5564 5.64565 54.0541 6.84685 54.4659 8.18533C54.9121 9.52381 55.2896 10.8623 55.5985 12.2008C55.9073 13.5049 56.1304 14.7576 56.2677 15.9588C56.4393 17.16 56.5423 18.1381 56.5766 18.8932C56.6109 19.2364 56.6281 19.5796 56.6281 19.9228C56.6281 20.2317 56.6281 20.5749 56.6281 20.9524Z" fill="#FFD75F"/>
<path d="M67.4088 24.9723C67.1343 25.4602 66.7625 25.7273 66.2934 25.7735C65.8412 25.8291 65.3517 25.8527 64.8249 25.8442C64.3075 25.8189 63.8001 25.8546 63.3026 25.9513C62.822 26.0574 62.4208 26.3965 62.0989 26.9685C61.9285 27.2713 61.8491 27.57 61.8606 27.8644C61.8889 28.1684 61.952 28.4697 62.0497 28.7683C62.1738 29.0597 62.3099 29.3688 62.4581 29.6959C62.6064 30.023 62.7151 30.3611 62.7845 30.7102C62.8707 31.0689 62.8864 31.4543 62.8316 31.8665C62.7937 32.2882 62.6375 32.743 62.3629 33.2309C61.9653 33.9375 61.3874 34.5316 60.6291 35.0131C59.8971 35.4873 59.0936 35.8326 58.2186 36.0491C57.37 36.2582 56.5024 36.3238 55.6159 36.2459C54.7294 36.1679 53.9412 35.9349 53.2514 35.5467C52.9654 35.3858 52.6936 35.1996 52.436 34.9882C52.1689 34.7936 51.9507 34.5711 51.7815 34.3208C51.629 34.08 51.5339 33.816 51.4961 33.5289C51.4677 33.225 51.5482 32.9048 51.7376 32.5683C52.0026 32.0972 52.2987 31.7876 52.6258 31.6394C52.9623 31.4743 53.3162 31.3965 53.6874 31.4061C54.0587 31.4156 54.4278 31.4682 54.7948 31.564C55.1786 31.6692 55.5466 31.7434 55.8989 31.7866C56.2607 31.8129 56.5909 31.7772 56.8895 31.6795C57.1882 31.5817 57.4417 31.3478 57.65 30.9776C57.8488 30.6243 57.9093 30.1821 57.8316 29.651C57.7801 29.1126 57.7045 28.5384 57.6047 27.9285C57.5144 27.3017 57.4634 26.6639 57.452 26.015C57.4573 25.3757 57.6257 24.7615 57.957 24.1727C58.3641 23.4492 58.8811 22.8652 59.5079 22.4204C60.161 21.9683 60.8593 21.6524 61.6029 21.4727C62.3632 21.3025 63.134 21.271 63.9154 21.3784C64.7062 21.469 65.4549 21.7131 66.1615 22.1107C66.4307 22.2622 66.6773 22.4341 66.9012 22.6266C67.142 22.8286 67.3255 23.0536 67.4516 23.3018C67.5873 23.5332 67.6524 23.7914 67.6471 24.0764C67.6681 24.354 67.5887 24.6527 67.4088 24.9723Z" fill="#FFD75F"/>
</svg>
