<svg width="48" height="47" viewBox="0 0 48 47" fill="none" xmlns="http://www.w3.org/2000/svg">
<path d="M20.6683 13.2435C20.6316 12.3772 20.4849 11.5142 20.3915 10.6512C19.9313 8.58669 19.4912 6.51883 18.5208 4.61693C18.2589 4.09385 17.9438 3.59891 17.5804 3.13988C16.4433 1.73254 15.0028 1.46037 13.4056 2.31008C12.241 2.96075 11.2372 3.86232 10.4678 4.94885C8.72714 7.27228 7.46667 9.84466 7.51336 12.8021C7.56004 15.7595 8.71047 18.3617 11.148 20.2105C13.8791 22.2817 17.2703 21.671 19.1877 18.8264C20.2756 17.1741 20.7951 15.215 20.6683 13.2435Z" fill="#FFF6DB"/>
<path d="M35.6104 16.2474C37.4478 13.2834 37.6879 10.1368 36.1473 7.00343C34.7198 4.07837 32.2759 1.7672 29.2681 0.497803C28.7269 0.269926 28.157 0.116927 27.5741 0.0430732C25.9869 -0.179313 24.8664 0.461292 24.2162 1.92174C23.566 3.38219 23.4826 4.97208 23.5293 6.56862C23.5626 7.75357 23.6793 8.93852 23.756 10.1235C24.0228 12.3042 24.5963 14.3621 25.9735 16.1312C26.8091 17.2744 27.971 18.1407 29.3081 18.6173C30.4716 19.0124 31.737 18.992 32.8871 18.5596C34.0371 18.1271 35 17.3096 35.6104 16.2474Z" fill="#FFF6DB"/>
<path d="M44.047 27.9442C46.8547 26.1219 48.0885 23.45 47.9951 20.1308C47.9635 19.7637 47.909 19.399 47.8317 19.0388C47.4649 16.785 46.6413 14.7238 45.0774 13.0177C44.931 12.8571 44.7751 12.7052 44.6105 12.563C42.9599 11.1557 41.3093 11.2353 39.7987 12.792C38.7384 13.9606 37.9212 15.3268 37.3945 16.8116C36.6409 18.7334 35.974 20.6784 36.1173 22.7861C36.1766 24.0625 36.5635 25.3024 37.2411 26.3875C38.7917 28.8204 41.6361 29.5075 44.047 27.9442Z" fill="#FFF6DB"/>
<path d="M9.62746 39.7804C9.62746 40.1123 9.68081 40.4144 9.71749 40.8293C10.3177 43.8829 12.3051 45.7616 15.3229 46.5848C18.5108 47.4577 21.5719 46.8968 24.463 45.4363C26.3051 44.4734 28.4152 44.1431 30.4652 44.497C33.6164 45.0115 36.6475 44.6264 39.4019 42.9303C41.7128 41.5031 43.15 39.4817 43.19 36.6869C43.1969 35.6436 42.989 34.6099 42.5789 33.6496C42.1688 32.6894 41.5654 31.823 40.8058 31.104C39.9635 30.2657 39.0257 29.5283 38.0114 28.9067C35.7928 27.5682 33.8102 25.8761 32.1425 23.8981C31.3568 22.9378 30.3817 22.1481 29.2774 21.5775C28.1732 21.0069 26.9632 20.6676 25.7221 20.5805C24.481 20.4935 23.2351 20.6604 22.0614 21.0712C20.8876 21.4819 19.8109 22.1277 18.8976 22.9687C17.7055 24.0429 16.8294 25.4198 16.3633 26.9517C15.7403 28.9713 14.6098 30.7992 13.0787 32.2624C11.168 34.1112 9.89089 36.3085 9.6508 39.0104C9.62558 39.2662 9.61779 39.5235 9.62746 39.7804Z" fill="#FFF6DB"/>
<path d="M0.0705548 26.165C0.690786 29.8161 2.49479 32.2159 5.63596 33.5037C8.84716 34.8314 11.8983 33.205 12.5952 29.8991C12.8325 28.746 12.7879 27.553 12.4652 26.4206C11.7216 23.732 10.0143 21.6509 8.09688 19.7291C7.40258 19.0465 6.61713 18.4624 5.76268 17.9931C4.00869 17.0173 2.4281 17.472 1.3377 19.1615C0.39401 20.6452 0.0638866 22.3147 0.00386424 24.0374C-0.0194778 24.8539 0.0705548 25.6704 0.0705548 26.165Z" fill="#FFF6DB"/>
</svg>
