<svg width="24" height="25" viewBox="0 0 24 25" fill="none" xmlns="http://www.w3.org/2000/svg">
<path d="M15.8154 15.2969C16.0649 15.4173 16.3147 15.5402 16.5088 15.6357C16.5069 15.6416 16.5049 15.6474 16.5029 15.6533C16.4978 15.659 16.4929 15.6671 16.4854 15.6748C16.4268 15.7346 16.3303 15.8131 16.2002 15.8965C16.0725 15.9783 15.938 16.0482 15.8203 16.0977C15.7558 16.1248 15.7097 16.1401 15.6826 16.1484L15.6592 16.1562C15.3104 16.2079 14.9555 16.2198 14.5869 16.1279C14.7443 16.0174 14.8721 15.8968 14.9688 15.7861C15.0527 15.6901 15.2742 15.4294 15.5039 15.1484C15.6036 15.1959 15.7091 15.2455 15.8154 15.2969ZM8.20215 8.80078C8.27895 8.9874 8.36217 9.19112 8.4375 9.37109C8.39265 9.42553 8.35156 9.47657 8.32324 9.51074C8.2891 9.55195 8.26206 9.5844 8.23926 9.61035C8.22816 9.62299 8.21941 9.63262 8.21289 9.63965L8.12598 9.72656C8.02573 9.83107 7.84845 10.0381 7.7207 10.3154C7.57002 9.95518 7.47852 9.6014 7.47852 9.29492C7.47855 8.84061 7.59345 8.54538 7.7041 8.34961C7.76772 8.23712 7.82993 8.15115 7.90039 8.06836C7.99527 8.29948 8.10127 8.55567 8.20215 8.80078Z" fill="#1C1C1C" stroke="#1C1C1C" stroke-width="3"/>
</svg>
